<svg width="1096123" height="861.6149954439696" title="SMC Browser - export" version="1.1" viewBox="-127 -82 1096123 861.6149954439696" xmlns="http://www.w3.org/2000/svg"><defs><marker id="uses" viewBox="0 -5 10 10" refX="15" refY="-1.5" markerWidth="6" markerHeight="6" orient="auto"><path d="M0,-3L10,0L0,3"></path></marker></defs><g><path class="link uses" marker-end="url(#uses)" d="M411.55214723926383,426.3601613230033L591.4171779141104,448.51307518961033"></path><path class="link uses" marker-end="url(#uses)" d="M411.55214723926383,451.16585187171154L591.4171779141104,448.51307518961033"></path><path class="link uses" marker-end="url(#uses)" d="M411.55214723926383,496.8563263157698L591.4171779141104,448.51307518961033"></path><path class="link uses" marker-end="url(#uses)" d="M493.079754601227,360.5296187744942L591.4171779141104,448.51307518961033"></path><path class="link uses" marker-end="url(#uses)" d="M493.079754601227,343.3331990148009L591.4171779141104,448.51307518961033"></path><path class="link uses" marker-end="url(#uses)" d="M334.2269938650307,484.5546632063591L411.55214723926383,426.3601613230033"></path><path class="link uses" marker-end="url(#uses)" d="M334.2269938650307,282.89515568891534L411.55214723926383,426.3601613230033"></path><path class="link uses" marker-end="url(#uses)" d="M334.2269938650307,498.47677555590207L411.55214723926383,426.3601613230033"></path><path class="link uses" marker-end="url(#uses)" d="M334.2269938650307,347.03291723057794L411.55214723926383,426.3601613230033"></path><path class="link uses" marker-end="url(#uses)" d="M334.2269938650307,305.9078581405971L411.55214723926383,426.3601613230033"></path><path class="link uses" marker-end="url(#uses)" d="M334.2269938650307,336.15399067009815L411.55214723926383,426.3601613230033"></path><path class="link uses" marker-end="url(#uses)" d="M334.2269938650307,359.0450308732416L411.55214723926383,426.3601613230033"></path><path class="link uses" marker-end="url(#uses)" d="M334.2269938650307,394.7777971274576L411.55214723926383,426.3601613230033"></path><path class="link uses" marker-end="url(#uses)" d="M334.2269938650307,295.1241501306827L411.55214723926383,426.3601613230033"></path><path class="link uses" marker-end="url(#uses)" d="M334.2269938650307,549.70867681089L411.55214723926383,426.3601613230033"></path><path class="link uses" marker-end="url(#uses)" d="M334.2269938650307,530.1294864573374L411.55214723926383,426.3601613230033"></path><path class="link uses" marker-end="url(#uses)" d="M334.2269938650307,325.9869474119869L411.55214723926383,426.3601613230033"></path><path class="link uses" marker-end="url(#uses)" d="M334.2269938650307,571.8481133967923L411.55214723926383,426.3601613230033"></path><path class="link uses" marker-end="url(#uses)" d="M334.2269938650307,465.88062695149324L411.55214723926383,426.3601613230033"></path><path class="link uses" marker-end="url(#uses)" d="M166.12883435582825,425.26523478020414L411.55214723926383,426.3601613230033"></path><path class="link uses" marker-end="url(#uses)" d="M334.2269938650307,316.03901856348295L411.55214723926383,426.3601613230033"></path><path class="link uses" marker-end="url(#uses)" d="M334.2269938650307,520.4138475151378L411.55214723926383,426.3601613230033"></path><path class="link uses" marker-end="url(#uses)" d="M334.2269938650307,373.4665501533499L411.55214723926383,426.3601613230033"></path><path class="link uses" marker-end="url(#uses)" d="M334.2269938650307,559.9663348807309L411.55214723926383,426.3601613230033"></path><path class="link uses" marker-end="url(#uses)" d="M334.2269938650307,539.8297648453257L411.55214723926383,426.3601613230033"></path><path class="link uses" marker-end="url(#uses)" d="M334.2269938650307,510.7713139961989L411.55214723926383,451.16585187171154"></path><path class="link uses" marker-end="url(#uses)" d="M334.2269938650307,621.0826510501539L411.55214723926383,496.8563263157698"></path><path class="link uses" marker-end="url(#uses)" d="M411.55214723926383,240.76220487887318L493.079754601227,360.5296187744942"></path><path class="link uses" marker-end="url(#uses)" d="M411.55214723926383,240.76220487887318L493.079754601227,343.3331990148009"></path><path class="link uses" marker-end="url(#uses)" d="M591.4171779141104,448.51307518961033L691.435582822086,355.18967852398964"></path><path class="link uses" marker-end="url(#uses)" d="M591.4171779141104,448.51307518961033L691.435582822086,492.72801680542153"></path><path class="link uses" marker-end="url(#uses)" d="M591.4171779141104,448.51307518961033L691.435582822086,546.557652480536"></path><path class="link uses" marker-end="url(#uses)" d="M591.4171779141104,448.51307518961033L691.435582822086,439.3876939785631"></path><path class="link uses" marker-end="url(#uses)" d="M591.4171779141104,448.51307518961033L691.435582822086,519.1666851366615"></path><path class="link uses" marker-end="url(#uses)" d="M691.435582822086,355.18967852398964L776.3251533742332,272.54370013377644"></path><path class="link uses" marker-end="url(#uses)" d="M691.435582822086,492.72801680542153L776.3251533742332,573.4760028011514"></path><path class="link uses" marker-end="url(#uses)" d="M691.435582822086,546.557652480536L776.3251533742332,654.8767735244639"></path><path class="link uses" marker-end="url(#uses)" d="M691.435582822086,439.3876939785631L776.3251533742332,543.9039752716318"></path><path class="link uses" marker-end="url(#uses)" d="M691.435582822086,439.3876939785631L776.3251533742332,365.59096464545354"></path><path class="link uses" marker-end="url(#uses)" d="M691.435582822086,439.3876939785631L776.3251533742332,322.3229228118544"></path><path class="link uses" marker-end="url(#uses)" d="M691.435582822086,439.3876939785631L776.3251533742332,523.3887531243904"></path><path class="link uses" marker-end="url(#uses)" d="M691.435582822086,439.3876939785631L776.3251533742332,382.2847619622171"></path><path class="link uses" marker-end="url(#uses)" d="M691.435582822086,439.3876939785631L776.3251533742332,334.52728879261264"></path><path class="link uses" marker-end="url(#uses)" d="M776.3251533742332,543.9039752716318L857.0122699386503,472.0312348087874"></path><path class="link uses" marker-end="url(#uses)" d="M776.3251533742332,365.59096464545354L857.0122699386503,276.8157800211567"></path><path class="link uses" marker-end="url(#uses)" d="M776.3251533742332,322.3229228118544L857.0122699386503,233.16283242962086"></path><path class="link uses" marker-end="url(#uses)" d="M776.3251533742332,523.3887531243904L857.0122699386503,447.22581775852717"></path><path class="link uses" marker-end="url(#uses)" d="M776.3251533742332,382.2847619622171L857.0122699386503,432.97115874738836"></path><path class="link uses" marker-end="url(#uses)" d="M776.3251533742332,334.52728879261264L857.0122699386503,401.78593839252756"></path><path class="link uses" marker-end="url(#uses)" d="M691.435582822086,519.1666851366615L776.3251533742332,614.8252491613302"></path><path class="link uses" marker-end="url(#uses)" d="M776.3251533742332,614.8252491613302L857.0122699386503,526.707890133629"></path><path class="link uses" marker-end="url(#uses)" d="M493.079754601227,226.61963218957484L591.4171779141104,312.0915576671061"></path><path class="link uses" marker-end="url(#uses)" d="M493.079754601227,210.1709634778295L591.4171779141104,312.0915576671061"></path><path class="link uses" marker-end="url(#uses)" d="M493.079754601227,247.79286069769697L591.4171779141104,312.0915576671061"></path><path class="link uses" marker-end="url(#uses)" d="M411.55214723926383,119.80679648848245L493.079754601227,226.61963218957484"></path><path class="link uses" marker-end="url(#uses)" d="M411.55214723926383,119.80679648848245L493.079754601227,210.1709634778295"></path><path class="link uses" marker-end="url(#uses)" d="M334.2269938650307,194.92141672243483L493.079754601227,247.79286069769697"></path><path class="link uses" marker-end="url(#uses)" d="M591.4171779141104,312.0915576671061L691.435582822086,207.544955142945"></path><path class="link uses" marker-end="url(#uses)" d="M591.4171779141104,312.0915576671061L691.435582822086,380.0583117426831"></path><path class="link uses" marker-end="url(#uses)" d="M591.4171779141104,312.0915576671061L691.435582822086,234.56858897122146"></path><path class="link uses" marker-end="url(#uses)" d="M591.4171779141104,312.0915576671061L691.435582822086,415.0427719377544"></path><path class="link uses" marker-end="url(#uses)" d="M591.4171779141104,312.0915576671061L776.3251533742332,257.04750726557705"></path><path class="link uses" marker-end="url(#uses)" d="M591.4171779141104,312.0915576671061L691.435582822086,439.3876939785631"></path><path class="link uses" marker-end="url(#uses)" d="M691.435582822086,207.544955142945L776.3251533742332,272.54370013377644"></path><path class="link uses" marker-end="url(#uses)" d="M691.435582822086,380.0583117426831L776.3251533742332,346.6452840366152"></path><path class="link uses" marker-end="url(#uses)" d="M691.435582822086,234.56858897122146L776.3251533742332,297.6244289414166"></path><path class="link uses" marker-end="url(#uses)" d="M691.435582822086,415.0427719377544L776.3251533742332,488.5663402743431"></path><path class="link uses" marker-end="url(#uses)" d="M776.3251533742332,257.04750726557705L857.0122699386503,172.40954387257696"></path><path class="link uses" marker-end="url(#uses)" d="M776.3251533742332,257.04750726557705L934.3374233128834,258.77466558048314"></path><path class="link uses" marker-end="url(#uses)" d="M857.0122699386503,172.40954387257696L934.3374233128834,258.77466558048314"></path><path class="link uses" marker-end="url(#uses)" d="M493.079754601227,-31.228941063386916L591.4171779141104,33.32202206450969"></path><path class="link uses" marker-end="url(#uses)" d="M493.079754601227,89.892576249702L591.4171779141104,33.32202206450969"></path><path class="link uses" marker-end="url(#uses)" d="M493.079754601227,110.80182591802995L591.4171779141104,33.32202206450969"></path><path class="link uses" marker-end="url(#uses)" d="M493.079754601227,-51.71048574729362L591.4171779141104,33.32202206450969"></path><path class="link uses" marker-end="url(#uses)" d="M411.55214723926383,30.395207028930308L493.079754601227,-31.228941063386916"></path><path class="link uses" marker-end="url(#uses)" d="M411.55214723926383,30.395207028930308L493.079754601227,89.892576249702"></path><path class="link uses" marker-end="url(#uses)" d="M411.55214723926383,30.395207028930308L493.079754601227,110.80182591802995"></path><path class="link uses" marker-end="url(#uses)" d="M411.55214723926383,30.395207028930308L493.079754601227,-51.71048574729362"></path><path class="link uses" marker-end="url(#uses)" d="M591.4171779141104,33.32202206450969L691.435582822086,143.96258865276437"></path><path class="link uses" marker-end="url(#uses)" d="M591.4171779141104,33.32202206450969L691.435582822086,-44.12268939530972"></path><path class="link uses" marker-end="url(#uses)" d="M591.4171779141104,33.32202206450969L691.435582822086,-15.736897636454012"></path><path class="link uses" marker-end="url(#uses)" d="M591.4171779141104,33.32202206450969L691.435582822086,62.8808879887468"></path><path class="link uses" marker-end="url(#uses)" d="M591.4171779141104,33.32202206450969L691.435582822086,92.01441176532683"></path><path class="link uses" marker-end="url(#uses)" d="M591.4171779141104,33.32202206450969L776.3251533742332,52.11628956761428"></path><path class="link uses" marker-end="url(#uses)" d="M691.435582822086,143.96258865276437L776.3251533742332,272.54370013377644"></path><path class="link uses" marker-end="url(#uses)" d="M691.435582822086,92.01441176532683L776.3251533742332,13.6454753557253"></path><path class="link uses" marker-end="url(#uses)" d="M691.435582822086,92.01441176532683L776.3251533742332,182.21816111178236"></path><path class="link uses" marker-end="url(#uses)" d="M691.435582822086,92.01441176532683L776.3251533742332,149.446745941647"></path><path class="link uses" marker-end="url(#uses)" d="M691.435582822086,92.01441176532683L776.3251533742332,-10.903266032144721"></path><path class="link uses" marker-end="url(#uses)" d="M776.3251533742332,13.6454753557253L857.0122699386503,106.44818394633381"></path><path class="link uses" marker-end="url(#uses)" d="M776.3251533742332,182.21816111178236L857.0122699386503,276.8157800211567"></path><path class="link uses" marker-end="url(#uses)" d="M776.3251533742332,149.446745941647L857.0122699386503,233.16283242962086"></path><path class="link uses" marker-end="url(#uses)" d="M776.3251533742332,-10.903266032144721L857.0122699386503,72.37819991020642"></path><path class="link uses" marker-end="url(#uses)" d="M776.3251533742332,52.11628956761428L857.0122699386503,149.59438288858976"></path><path class="link uses" marker-end="url(#uses)" d="M857.0122699386503,149.59438288858976L934.3374233128834,258.77466558048314"></path><path class="link uses" marker-end="url(#uses)" d="M493.079754601227,169.19775427535558L591.4171779141104,92.5937703226864"></path><path class="link uses" marker-end="url(#uses)" d="M411.55214723926383,263.6931570000333L493.079754601227,169.19775427535558"></path><path class="link uses" marker-end="url(#uses)" d="M493.079754601227,385.7452914901494L591.4171779141104,338.1995799302397"></path><path class="link uses" marker-end="url(#uses)" d="M411.55214723926383,263.6931570000333L493.079754601227,385.7452914901494"></path><path class="link uses" marker-end="url(#uses)" d="M493.079754601227,147.53979195056647L591.4171779141104,202.0592749362232"></path><path class="link uses" marker-end="url(#uses)" d="M411.55214723926383,263.6931570000333L493.079754601227,147.53979195056647"></path><path class="link uses" marker-end="url(#uses)" d="M-96.94478527607362,388.169385830083L-13.736196319018404,303.38672837752847"></path><path class="link uses" marker-end="url(#uses)" d="M-13.736196319018404,303.38672837752847L72.83435582822088,220.05931405733728"></path><path class="link uses" marker-end="url(#uses)" d="M-13.736196319018404,303.38672837752847L72.83435582822088,373.6722738429449"></path><path class="link uses" marker-end="url(#uses)" d="M-13.736196319018404,303.38672837752847L72.83435582822088,399.2784396154744"></path><path class="link uses" marker-end="url(#uses)" d="M-13.736196319018404,303.38672837752847L72.83435582822088,243.52518678105602"></path><path class="link uses" marker-end="url(#uses)" d="M-13.736196319018404,303.38672837752847L72.83435582822088,199.56282353857856"></path><path class="link uses" marker-end="url(#uses)" d="M411.55214723926383,565.7292872236907L591.4171779141104,540.2660626352483"></path><path class="link uses" marker-end="url(#uses)" d="M-96.94478527607362,547.2542746524128L411.55214723926383,565.7292872236907"></path><path class="link uses" marker-end="url(#uses)" d="M591.4171779141104,540.2660626352483L691.435582822086,404.7543285524351"></path><path class="link uses" marker-end="url(#uses)" d="M591.4171779141104,540.2660626352483L691.435582822086,617.4087419647906"></path><path class="link uses" marker-end="url(#uses)" d="M591.4171779141104,540.2660626352483L691.435582822086,586.7048659516067"></path><path class="link uses" marker-end="url(#uses)" d="M591.4171779141104,540.2660626352483L691.435582822086,631.71870688978"></path><path class="link uses" marker-end="url(#uses)" d="M591.4171779141104,540.2660626352483L691.435582822086,439.3876939785631"></path><path class="link uses" marker-end="url(#uses)" d="M591.4171779141104,540.2660626352483L691.435582822086,519.1666851366615"></path><path class="link uses" marker-end="url(#uses)" d="M591.4171779141104,540.2660626352483L691.435582822086,651.4999634637655"></path><path class="link uses" marker-end="url(#uses)" d="M691.435582822086,404.7543285524351L776.3251533742332,272.54370013377644"></path><path class="link uses" marker-end="url(#uses)" d="M691.435582822086,617.4087419647906L776.3251533742332,573.4760028011514"></path><path class="link uses" marker-end="url(#uses)" d="M691.435582822086,586.7048659516067L776.3251533742332,654.8767735244639"></path><path class="link uses" marker-end="url(#uses)" d="M691.435582822086,631.71870688978L776.3251533742332,702.2534486319632"></path><path class="link uses" marker-end="url(#uses)" d="M691.435582822086,651.4999634637655L776.3251533742332,750.1412184539128"></path><path class="link uses" marker-end="url(#uses)" d="M691.435582822086,651.4999634637655L776.3251533742332,726.214566380631"></path><path class="link uses" marker-end="url(#uses)" d="M776.3251533742332,750.1412184539128L857.0122699386503,656.8376379334478"></path><path class="link uses" marker-end="url(#uses)" d="M776.3251533742332,726.214566380631L857.0122699386503,620.7788381385952"></path></g><g><g class="node type-component selected" transform="translate(591.4171779141104,448.51307518961033)"><circle r="4"></circle><title>Access</title><text x="8" y=".31em" class="shadow">Access</text><text x="8" y=".31em">Access</text></g><g class="node type-component selected" transform="translate(591.4171779141104,312.0915576671061)"><circle r="4"></circle><title>Access</title><text x="8" y=".31em" class="shadow">Access</text><text x="8" y=".31em">Access</text></g><g class="node type-component selected" transform="translate(591.4171779141104,33.32202206450969)"><circle r="4"></circle><title>Access</title><text x="8" y=".31em" class="shadow">Access</text><text x="8" y=".31em">Access</text></g><g class="node type-element selected" transform="translate(591.4171779141104,92.5937703226864)"><circle r="4"></circle><title>Access</title><text x="8" y=".31em" class="shadow">Access</text><text x="8" y=".31em">Access</text></g><g class="node type-element selected" transform="translate(591.4171779141104,338.1995799302397)"><circle r="4"></circle><title>Access</title><text x="8" y=".31em" class="shadow">Access</text><text x="8" y=".31em">Access</text></g><g class="node type-element selected" transform="translate(591.4171779141104,202.0592749362232)"><circle r="4"></circle><title>Access</title><text x="8" y=".31em" class="shadow">Access</text><text x="8" y=".31em">Access</text></g><g class="node type-component selected" transform="translate(-13.736196319018404,303.38672837752847)"><circle r="4"></circle><title>ResourceAccess</title><text x="8" y=".31em" class="shadow">ResourceAccess</text><text x="8" y=".31em">ResourceAccess</text></g><g class="node type-component selected" transform="translate(591.4171779141104,540.2660626352483)"><circle r="4"></circle><title>Access</title><text x="8" y=".31em" class="shadow">Access</text><text x="8" y=".31em">Access</text></g><g class="node type-component" transform="translate(411.55214723926383,426.3601613230033)"><circle r="4"></circle><title>Collection</title><text x="8" y=".31em" class="shadow">Collection</text><text x="8" y=".31em">Collection</text></g><g class="node type-component" transform="translate(411.55214723926383,451.16585187171154)"><circle r="4"></circle><title>LexicalResource</title><text x="8" y=".31em" class="shadow">LexicalResource</text><text x="8" y=".31em">LexicalResource</text></g><g class="node type-component" transform="translate(411.55214723926383,496.8563263157698)"><circle r="4"></circle><title>InterviewGeneral</title><text x="8" y=".31em" class="shadow">InterviewGeneral</text><text x="8" y=".31em">InterviewGeneral</text></g><g class="node type-component" transform="translate(493.079754601227,360.5296187744942)"><circle r="4"></circle><title>SL-MediaFile</title><text x="8" y=".31em" class="shadow">SL-MediaFile</text><text x="8" y=".31em">SL-MediaFile</text></g><g class="node type-component" transform="translate(493.079754601227,343.3331990148009)"><circle r="4"></circle><title>SL-AnnotationDocument</title><text x="8" y=".31em" class="shadow">SL-AnnotationDocument</text><text x="8" y=".31em">SL-AnnotationDocument</text></g><g class="node type-profile" transform="translate(334.2269938650307,484.5546632063591)"><circle r="4"></circle><title>Bedevaartbank</title><text x="8" y=".31em" class="shadow">Bedevaartbank</text><text x="8" y=".31em">Bedevaartbank</text></g><g class="node type-profile" transform="translate(334.2269938650307,282.89515568891534)"><circle r="4"></circle><title>Boedelbank</title><text x="8" y=".31em" class="shadow">Boedelbank</text><text x="8" y=".31em">Boedelbank</text></g><g class="node type-profile" transform="translate(334.2269938650307,498.47677555590207)"><circle r="4"></circle><title>DBNL</title><text x="8" y=".31em" class="shadow">DBNL</text><text x="8" y=".31em">DBNL</text></g><g class="node type-profile" transform="translate(334.2269938650307,347.03291723057794)"><circle r="4"></circle><title>DIDDD</title><text x="8" y=".31em" class="shadow">DIDDD</text><text x="8" y=".31em">DIDDD</text></g><g class="node type-profile" transform="translate(334.2269938650307,305.9078581405971)"><circle r="4"></circle><title>DSOL</title><text x="8" y=".31em" class="shadow">DSOL</text><text x="8" y=".31em">DSOL</text></g><g class="node type-profile" transform="translate(334.2269938650307,336.15399067009815)"><circle r="4"></circle><title>DynaSAND</title><text x="8" y=".31em" class="shadow">DynaSAND</text><text x="8" y=".31em">DynaSAND</text></g><g class="node type-profile" transform="translate(334.2269938650307,359.0450308732416)"><circle r="4"></circle><title>Familienamenbank</title><text x="8" y=".31em" class="shadow">Familienamenbank</text><text x="8" y=".31em">Familienamenbank</text></g><g class="node type-profile" transform="translate(334.2269938650307,394.7777971274576)"><circle r="4"></circle><title>GTRP</title><text x="8" y=".31em" class="shadow">GTRP</text><text x="8" y=".31em">GTRP</text></g><g class="node type-profile" transform="translate(334.2269938650307,295.1241501306827)"><circle r="4"></circle><title>HZSKCorpus</title><text x="8" y=".31em" class="shadow">HZSKCorpus</text><text x="8" y=".31em">HZSKCorpus</text></g><g class="node type-profile" transform="translate(334.2269938650307,549.70867681089)"><circle r="4"></circle><title>Liederenbank</title><text x="8" y=".31em" class="shadow">Liederenbank</text><text x="8" y=".31em">Liederenbank</text></g><g class="node type-profile" transform="translate(334.2269938650307,530.1294864573374)"><circle r="4"></circle><title>media-corpus-profile</title><text x="8" y=".31em" class="shadow">media-corpus-profile</text><text x="8" y=".31em">media-corpus-profile</text></g><g class="node type-profile" transform="translate(334.2269938650307,325.9869474119869)"><circle r="4"></circle><title>PLAND</title><text x="8" y=".31em" class="shadow">PLAND</text><text x="8" y=".31em">PLAND</text></g><g class="node type-profile" transform="translate(334.2269938650307,571.8481133967923)"><circle r="4"></circle><title>Soundbites</title><text x="8" y=".31em" class="shadow">Soundbites</text><text x="8" y=".31em">Soundbites</text></g><g class="node type-profile" transform="translate(334.2269938650307,465.88062695149324)"><circle r="4"></circle><title>SpeechCorpusProfile</title><text x="8" y=".31em" class="shadow">SpeechCorpusProfile</text><text x="8" y=".31em">SpeechCorpusProfile</text></g><g class="node type-profile" transform="translate(166.12883435582825,425.26523478020414)"><circle r="4"></circle><title>SpeechCorpusProfile_Autonomata_speaker</title><text x="8" y=".31em" class="shadow">SpeechCorpusProfile_Autonomata_speaker</text><text x="8" y=".31em">SpeechCorpusProfile_Autonomata_speaker</text></g><g class="node type-profile" transform="translate(334.2269938650307,316.03901856348295)"><circle r="4"></circle><title>TextCorpusProfile</title><text x="8" y=".31em" class="shadow">TextCorpusProfile</text><text x="8" y=".31em">TextCorpusProfile</text></g><g class="node type-profile" transform="translate(334.2269938650307,520.4138475151378)"><circle r="4"></circle><title>TxtCrpsProfile-20110928</title><text x="8" y=".31em" class="shadow">TxtCrpsProfile-20110928</text><text x="8" y=".31em">TxtCrpsProfile-20110928</text></g><g class="node type-profile" transform="translate(334.2269938650307,373.4665501533499)"><circle r="4"></circle><title>Voornamenbank</title><text x="8" y=".31em" class="shadow">Voornamenbank</text><text x="8" y=".31em">Voornamenbank</text></g><g class="node type-profile" transform="translate(334.2269938650307,559.9663348807309)"><circle r="4"></circle><title>VU-DNC-profile-20111101</title><text x="8" y=".31em" class="shadow">VU-DNC-profile-20111101</text><text x="8" y=".31em">VU-DNC-profile-20111101</text></g><g class="node type-profile" transform="translate(334.2269938650307,539.8297648453257)"><circle r="4"></circle><title>VVB</title><text x="8" y=".31em" class="shadow">VVB</text><text x="8" y=".31em">VVB</text></g><g class="node type-profile" transform="translate(334.2269938650307,510.7713139961989)"><circle r="4"></circle><title>LexicalResourceProfile</title><text x="8" y=".31em" class="shadow">LexicalResourceProfile</text><text x="8" y=".31em">LexicalResourceProfile</text></g><g class="node type-profile" transform="translate(334.2269938650307,621.0826510501539)"><circle r="4"></circle><title>OralHistoryInterview</title><text x="8" y=".31em" class="shadow">OralHistoryInterview</text><text x="8" y=".31em">OralHistoryInterview</text></g><g class="node type-component" transform="translate(411.55214723926383,240.76220487887318)"><circle r="4"></circle><title>SL-Resources</title><text x="8" y=".31em" class="shadow">SL-Resources</text><text x="8" y=".31em">SL-Resources</text></g><g class="node type-element" transform="translate(691.435582822086,355.18967852398964)"><circle r="4"></circle><title>Availability</title><text x="8" y=".31em" class="shadow">Availability</text><text x="8" y=".31em">Availability</text></g><g class="node type-element" transform="translate(691.435582822086,492.72801680542153)"><circle r="4"></circle><title>DistributionMedium</title><text x="8" y=".31em" class="shadow">DistributionMedium</text><text x="8" y=".31em">DistributionMedium</text></g><g class="node type-element" transform="translate(691.435582822086,546.557652480536)"><circle r="4"></circle><title>CatalogueLink</title><text x="8" y=".31em" class="shadow">CatalogueLink</text><text x="8" y=".31em">CatalogueLink</text></g><g class="node type-component" transform="translate(691.435582822086,439.3876939785631)"><circle r="4"></circle><title>Contact</title><text x="8" y=".31em" class="shadow">Contact</text><text x="8" y=".31em">Contact</text></g><g class="node type-component" transform="translate(691.435582822086,519.1666851366615)"><circle r="4"></circle><title>Price</title><text x="8" y=".31em" class="shadow">Price</text><text x="8" y=".31em">Price</text></g><g class="node type-datcat" transform="translate(776.3251533742332,272.54370013377644)"><circle r="4"></circle><title>availability</title><text x="8" y=".31em" class="shadow">availability</text><text x="8" y=".31em">availability</text></g><g class="node type-datcat" transform="translate(776.3251533742332,573.4760028011514)"><circle r="4"></circle><title>DC-2967</title><text x="8" y=".31em" class="shadow">DC-2967</text><text x="8" y=".31em">DC-2967</text></g><g class="node type-datcat" transform="translate(776.3251533742332,654.8767735244639)"><circle r="4"></circle><title>DC-2969</title><text x="8" y=".31em" class="shadow">DC-2969</text><text x="8" y=".31em">DC-2969</text></g><g class="node type-element" transform="translate(776.3251533742332,543.9039752716318)"><circle r="4"></circle><title>Person</title><text x="8" y=".31em" class="shadow">Person</text><text x="8" y=".31em">Person</text></g><g class="node type-element" transform="translate(776.3251533742332,365.59096464545354)"><circle r="4"></circle><title>Address</title><text x="8" y=".31em" class="shadow">Address</text><text x="8" y=".31em">Address</text></g><g class="node type-element" transform="translate(776.3251533742332,322.3229228118544)"><circle r="4"></circle><title>Email</title><text x="8" y=".31em" class="shadow">Email</text><text x="8" y=".31em">Email</text></g><g class="node type-element" transform="translate(776.3251533742332,523.3887531243904)"><circle r="4"></circle><title>Organisation</title><text x="8" y=".31em" class="shadow">Organisation</text><text x="8" y=".31em">Organisation</text></g><g class="node type-element" transform="translate(776.3251533742332,382.2847619622171)"><circle r="4"></circle><title>Telephone</title><text x="8" y=".31em" class="shadow">Telephone</text><text x="8" y=".31em">Telephone</text></g><g class="node type-element" transform="translate(776.3251533742332,334.52728879261264)"><circle r="4"></circle><title>Website</title><text x="8" y=".31em" class="shadow">Website</text><text x="8" y=".31em">Website</text></g><g class="node type-datcat" transform="translate(857.0122699386503,472.0312348087874)"><circle r="4"></circle><title>DC-2978</title><text x="8" y=".31em" class="shadow">DC-2978</text><text x="8" y=".31em">DC-2978</text></g><g class="node type-datcat" transform="translate(857.0122699386503,276.8157800211567)"><circle r="4"></circle><title>address</title><text x="8" y=".31em" class="shadow">address</text><text x="8" y=".31em">address</text></g><g class="node type-datcat" transform="translate(857.0122699386503,233.16283242962086)"><circle r="4"></circle><title>email</title><text x="8" y=".31em" class="shadow">email</text><text x="8" y=".31em">email</text></g><g class="node type-datcat" transform="translate(857.0122699386503,447.22581775852717)"><circle r="4"></circle><title>DC-2979</title><text x="8" y=".31em" class="shadow">DC-2979</text><text x="8" y=".31em">DC-2979</text></g><g class="node type-datcat" transform="translate(857.0122699386503,432.97115874738836)"><circle r="4"></circle><title>telephoneNumber</title><text x="8" y=".31em" class="shadow">telephoneNumber</text><text x="8" y=".31em">telephoneNumber</text></g><g class="node type-datcat" transform="translate(857.0122699386503,401.78593839252756)"><circle r="4"></circle><title>DC-63</title><text x="8" y=".31em" class="shadow">DC-63</text><text x="8" y=".31em">DC-63</text></g><g class="node type-element" transform="translate(776.3251533742332,614.8252491613302)"><circle r="4"></circle><title>Price</title><text x="8" y=".31em" class="shadow">Price</text><text x="8" y=".31em">Price</text></g><g class="node type-datcat" transform="translate(857.0122699386503,526.707890133629)"><circle r="4"></circle><title>price</title><text x="8" y=".31em" class="shadow">price</text><text x="8" y=".31em">price</text></g><g class="node type-component" transform="translate(493.079754601227,226.61963218957484)"><circle r="4"></circle><title>MediaFile</title><text x="8" y=".31em" class="shadow">MediaFile</text><text x="8" y=".31em">MediaFile</text></g><g class="node type-component" transform="translate(493.079754601227,210.1709634778295)"><circle r="4"></circle><title>WrittenResource</title><text x="8" y=".31em" class="shadow">WrittenResource</text><text x="8" y=".31em">WrittenResource</text></g><g class="node type-component" transform="translate(493.079754601227,247.79286069769697)"><circle r="4"></circle><title>Anonyms</title><text x="8" y=".31em" class="shadow">Anonyms</text><text x="8" y=".31em">Anonyms</text></g><g class="node type-component" transform="translate(411.55214723926383,119.80679648848245)"><circle r="4"></circle><title>Resources</title><text x="8" y=".31em" class="shadow">Resources</text><text x="8" y=".31em">Resources</text></g><g class="node type-component" transform="translate(334.2269938650307,194.92141672243483)"><circle r="4"></circle><title>Session</title><text x="8" y=".31em" class="shadow">Session</text><text x="8" y=".31em">Session</text></g><g class="node type-element" transform="translate(691.435582822086,207.544955142945)"><circle r="4"></circle><title>Availability</title><text x="8" y=".31em" class="shadow">Availability</text><text x="8" y=".31em">Availability</text></g><g class="node type-element" transform="translate(691.435582822086,380.0583117426831)"><circle r="4"></circle><title>Date</title><text x="8" y=".31em" class="shadow">Date</text><text x="8" y=".31em">Date</text></g><g class="node type-element" transform="translate(691.435582822086,234.56858897122146)"><circle r="4"></circle><title>Owner</title><text x="8" y=".31em" class="shadow">Owner</text><text x="8" y=".31em">Owner</text></g><g class="node type-element" transform="translate(691.435582822086,415.0427719377544)"><circle r="4"></circle><title>Publisher</title><text x="8" y=".31em" class="shadow">Publisher</text><text x="8" y=".31em">Publisher</text></g><g class="node type-component" transform="translate(776.3251533742332,257.04750726557705)"><circle r="4"></circle><title>Description</title><text x="8" y=".31em" class="shadow">Description</text><text x="8" y=".31em">Description</text></g><g class="node type-datcat" transform="translate(776.3251533742332,346.6452840366152)"><circle r="4"></circle><title>lastUpdate</title><text x="8" y=".31em" class="shadow">lastUpdate</text><text x="8" y=".31em">lastUpdate</text></g><g class="node type-datcat" transform="translate(776.3251533742332,297.6244289414166)"><circle r="4"></circle><title>DC-5224</title><text x="8" y=".31em" class="shadow">DC-5224</text><text x="8" y=".31em">DC-5224</text></g><g class="node type-datcat" transform="translate(776.3251533742332,488.5663402743431)"><circle r="4"></circle><title>DC-5225</title><text x="8" y=".31em" class="shadow">DC-5225</text><text x="8" y=".31em">DC-5225</text></g><g class="node type-element" transform="translate(857.0122699386503,172.40954387257696)"><circle r="4"></circle><title>Description</title><text x="8" y=".31em" class="shadow">Description</text><text x="8" y=".31em">Description</text></g><g class="node type-datcat" transform="translate(934.3374233128834,258.77466558048314)"><circle r="4"></circle><title>description</title><text x="8" y=".31em" class="shadow">description</text><text x="8" y=".31em">description</text></g><g class="node type-component" transform="translate(493.079754601227,-31.228941063386916)"><circle r="4"></circle><title>MediaFile</title><text x="8" y=".31em" class="shadow">MediaFile</text><text x="8" y=".31em">MediaFile</text></g><g class="node type-component" transform="translate(493.079754601227,89.892576249702)"><circle r="4"></circle><title>WrittenResource</title><text x="8" y=".31em" class="shadow">WrittenResource</text><text x="8" y=".31em">WrittenResource</text></g><g class="node type-component" transform="translate(493.079754601227,110.80182591802995)"><circle r="4"></circle><title>Source</title><text x="8" y=".31em" class="shadow">Source</text><text x="8" y=".31em">Source</text></g><g class="node type-component" transform="translate(493.079754601227,-51.71048574729362)"><circle r="4"></circle><title>Anonyms</title><text x="8" y=".31em" class="shadow">Anonyms</text><text x="8" y=".31em">Anonyms</text></g><g class="node type-component" transform="translate(411.55214723926383,30.395207028930308)"><circle r="4"></circle><title>Resources</title><text x="8" y=".31em" class="shadow">Resources</text><text x="8" y=".31em">Resources</text></g><g class="node type-element" transform="translate(691.435582822086,143.96258865276437)"><circle r="4"></circle><title>Availability</title><text x="8" y=".31em" class="shadow">Availability</text><text x="8" y=".31em">Availability</text></g><g class="node type-element" transform="translate(691.435582822086,-44.12268939530972)"><circle r="4"></circle><title>Date</title><text x="8" y=".31em" class="shadow">Date</text><text x="8" y=".31em">Date</text></g><g class="node type-element" transform="translate(691.435582822086,-15.736897636454012)"><circle r="4"></circle><title>Owner</title><text x="8" y=".31em" class="shadow">Owner</text><text x="8" y=".31em">Owner</text></g><g class="node type-element" transform="translate(691.435582822086,62.8808879887468)"><circle r="4"></circle><title>Publisher</title><text x="8" y=".31em" class="shadow">Publisher</text><text x="8" y=".31em">Publisher</text></g><g class="node type-component" transform="translate(691.435582822086,92.01441176532683)"><circle r="4"></circle><title>Contact</title><text x="8" y=".31em" class="shadow">Contact</text><text x="8" y=".31em">Contact</text></g><g class="node type-component" transform="translate(776.3251533742332,52.11628956761428)"><circle r="4"></circle><title>descriptions</title><text x="8" y=".31em" class="shadow">descriptions</text><text x="8" y=".31em">descriptions</text></g><g class="node type-element" transform="translate(776.3251533742332,13.6454753557253)"><circle r="4"></circle><title>Name</title><text x="8" y=".31em" class="shadow">Name</text><text x="8" y=".31em">Name</text></g><g class="node type-element" transform="translate(776.3251533742332,182.21816111178236)"><circle r="4"></circle><title>Address</title><text x="8" y=".31em" class="shadow">Address</text><text x="8" y=".31em">Address</text></g><g class="node type-element" transform="translate(776.3251533742332,149.446745941647)"><circle r="4"></circle><title>Email</title><text x="8" y=".31em" class="shadow">Email</text><text x="8" y=".31em">Email</text></g><g class="node type-element" transform="translate(776.3251533742332,-10.903266032144721)"><circle r="4"></circle><title>Organisation</title><text x="8" y=".31em" class="shadow">Organisation</text><text x="8" y=".31em">Organisation</text></g><g class="node type-datcat" transform="translate(857.0122699386503,106.44818394633381)"><circle r="4"></circle><title>contactFullName</title><text x="8" y=".31em" class="shadow">contactFullName</text><text x="8" y=".31em">contactFullName</text></g><g class="node type-datcat" transform="translate(857.0122699386503,72.37819991020642)"><circle r="4"></circle><title>organization</title><text x="8" y=".31em" class="shadow">organization</text><text x="8" y=".31em">organization</text></g><g class="node type-element" transform="translate(857.0122699386503,149.59438288858976)"><circle r="4"></circle><title>Description</title><text x="8" y=".31em" class="shadow">Description</text><text x="8" y=".31em">Description</text></g><g class="node type-component" transform="translate(493.079754601227,169.19775427535558)"><circle r="4"></circle><title>LrtCollectionDetails</title><text x="8" y=".31em" class="shadow">LrtCollectionDetails</text><text x="8" y=".31em">LrtCollectionDetails</text></g><g class="node type-profile" transform="translate(411.55214723926383,263.6931570000333)"><circle r="4"></circle><title>LrtInventoryResource</title><text x="8" y=".31em" class="shadow">LrtInventoryResource</text><text x="8" y=".31em">LrtInventoryResource</text></g><g class="node type-component" transform="translate(493.079754601227,385.7452914901494)"><circle r="4"></circle><title>LrtLexiconDetails</title><text x="8" y=".31em" class="shadow">LrtLexiconDetails</text><text x="8" y=".31em">LrtLexiconDetails</text></g><g class="node type-component" transform="translate(493.079754601227,147.53979195056647)"><circle r="4"></circle><title>LrtServiceDetails</title><text x="8" y=".31em" class="shadow">LrtServiceDetails</text><text x="8" y=".31em">LrtServiceDetails</text></g><g class="node type-profile" transform="translate(-96.94478527607362,388.169385830083)"><circle r="4"></circle><title>TITUS_metadata</title><text x="8" y=".31em" class="shadow">TITUS_metadata</text><text x="8" y=".31em">TITUS_metadata</text></g><g class="node type-element" transform="translate(72.83435582822088,220.05931405733728)"><circle r="4"></circle><title>ResourceAccessLink</title><text x="8" y=".31em" class="shadow">ResourceAccessLink</text><text x="8" y=".31em">ResourceAccessLink</text></g><g class="node type-element" transform="translate(72.83435582822088,373.6722738429449)"><circle r="4"></circle><title>ResourceAccessAvailability</title><text x="8" y=".31em" class="shadow">ResourceAccessAvailability</text><text x="8" y=".31em">ResourceAccessAvailability</text></g><g class="node type-element" transform="translate(72.83435582822088,399.2784396154744)"><circle r="4"></circle><title>ResourceAccessDate</title><text x="8" y=".31em" class="shadow">ResourceAccessDate</text><text x="8" y=".31em">ResourceAccessDate</text></g><g class="node type-element" transform="translate(72.83435582822088,243.52518678105602)"><circle r="4"></circle><title>ResourceAccessOwner</title><text x="8" y=".31em" class="shadow">ResourceAccessOwner</text><text x="8" y=".31em">ResourceAccessOwner</text></g><g class="node type-element" transform="translate(72.83435582822088,199.56282353857856)"><circle r="4"></circle><title>ResourceAccessPublisher</title><text x="8" y=".31em" class="shadow">ResourceAccessPublisher</text><text x="8" y=".31em">ResourceAccessPublisher</text></g><g class="node type-component" transform="translate(411.55214723926383,565.7292872236907)"><circle r="4"></circle><title>Tool</title><text x="8" y=".31em" class="shadow">Tool</text><text x="8" y=".31em">Tool</text></g><g class="node type-profile" transform="translate(-96.94478527607362,547.2542746524128)"><circle r="4"></circle><title>ToolService</title><text x="8" y=".31em" class="shadow">ToolService</text><text x="8" y=".31em">ToolService</text></g><g class="node type-element" transform="translate(691.435582822086,404.7543285524351)"><circle r="4"></circle><title>Availability</title><text x="8" y=".31em" class="shadow">Availability</text><text x="8" y=".31em">Availability</text></g><g class="node type-element" transform="translate(691.435582822086,617.4087419647906)"><circle r="4"></circle><title>DistributionMedium</title><text x="8" y=".31em" class="shadow">DistributionMedium</text><text x="8" y=".31em">DistributionMedium</text></g><g class="node type-element" transform="translate(691.435582822086,586.7048659516067)"><circle r="4"></circle><title>CatalogueLink</title><text x="8" y=".31em" class="shadow">CatalogueLink</text><text x="8" y=".31em">CatalogueLink</text></g><g class="node type-element" transform="translate(691.435582822086,631.71870688978)"><circle r="4"></circle><title>accessProtocol</title><text x="8" y=".31em" class="shadow">accessProtocol</text><text x="8" y=".31em">accessProtocol</text></g><g class="node type-component" transform="translate(691.435582822086,651.4999634637655)"><circle r="4"></circle><title>DistributionType</title><text x="8" y=".31em" class="shadow">DistributionType</text><text x="8" y=".31em">DistributionType</text></g><g class="node type-datcat" transform="translate(776.3251533742332,702.2534486319632)"><circle r="4"></circle><title>accessProtocol</title><text x="8" y=".31em" class="shadow">accessProtocol</text><text x="8" y=".31em">accessProtocol</text></g><g class="node type-element" transform="translate(776.3251533742332,750.1412184539128)"><circle r="4"></circle><title>distributionType</title><text x="8" y=".31em" class="shadow">distributionType</text><text x="8" y=".31em">distributionType</text></g><g class="node type-element" transform="translate(776.3251533742332,726.214566380631)"><circle r="4"></circle><title>restriction</title><text x="8" y=".31em" class="shadow">restriction</text><text x="8" y=".31em">restriction</text></g><g class="node type-datcat" transform="translate(857.0122699386503,656.8376379334478)"><circle r="4"></circle><title>distributionType</title><text x="8" y=".31em" class="shadow">distributionType</text><text x="8" y=".31em">distributionType</text></g><g class="node type-datcat" transform="translate(857.0122699386503,620.7788381385952)"><circle r="4"></circle><title>DC-1956</title><text x="8" y=".31em" class="shadow">DC-1956</text><text x="8" y=".31em">DC-1956</text></g></g><style type="text/css">
/*div#infovis-wrapper {border: 1px solid grey; margin: 20px; padding: 5px; height:450px; width:70%;}*/
 #infovis {height: 95%; width: 100%; overflow: auto;}
 
 #index-container, #detail-container, #navigate { overflow: auto;}
 
 #navigate { line-height: 2.5em;}
 #navigate select { margin-right: 0.5em; }
 #navigate label {padding: 0px 2px;}
 a.type-link { padding: 2px 4px;}
 
.block {
    border: 1px solid #999;
    /* background-color: rgba(180,180,240,0.6); */    
}
.detail{
  display: none;
}

.hide { display:none;}

.highlight,
.selected {
    font-weight: bold;
    background: #f66;    
}

.widget-slider {width: 80px;  display:inline-block; font-size: 70%;  margin: 6px 12px 0 2px;}

.detaildivs-wrapper {
float:right;
}

path.link {
  fill: none;
  stroke: #999;
}

path.link.highlight {
    stroke: #f66;
    stroke-width: 1.5px;
}

path.link.fade {
    stroke-opacity: 0.2;
}

circle.highlight {
    stroke: #f66;
    stroke-width: 1.5px;
}

.fade circle, circle.fade {
    opacity: 0.2;
}


.type-element circle {
  fill: #99f;
  stroke: #66a;
  stroke-width: 1px;
}


.type-profile circle {
  fill: #66a;
  stroke: #339;
}

.type-profile text{
  font-size: 12px;
  font-weight: bold;
}

.type-component circle {
  fill: #ddf;
  stroke: #99c;
}

.type-datcat circle {
  fill: #6a6;
  stroke: #393;
}

.type-datcat text{
  font-style: italic;
}


.highlight circle,
.selected circle {
    fill: #f66;    
}



circle.selected {
    fill: #f66;
    stroke-width: 2px;
}
text {
  font: 10px sans-serif;
/* pointer-events: none; */
}
text.shadow {
  stroke: #fff;
  stroke-width: 3px;
  stroke-opacity: .8;
}    
</style></svg>