<svg width="109681" height="1054.1126154613985" title="SMC Browser - export" version="1.1" viewBox="10 -183 109681 1054.1126154613985" xmlns="http://www.w3.org/2000/svg"><defs><marker id="uses" viewBox="0 -5 10 10" refX="15" refY="-1.5" markerWidth="6" markerHeight="6" orient="auto"><path d="M0,-3L10,0L0,3"></path></marker></defs><g><path class="link uses" marker-end="url(#uses)" d="M407.7001919397964,405.17536602524734L536.3816134003736,432.9049898322004"></path><path class="link uses" marker-end="url(#uses)" d="M449.612244250782,508.42054557178676L536.3816134003736,432.9049898322004"></path><path class="link uses" marker-end="url(#uses)" d="M479.19542038795083,528.2331656623046L536.3816134003736,432.9049898322004"></path><path class="link uses" marker-end="url(#uses)" d="M515.6511048120686,327.28025250013746L536.3816134003736,432.9049898322004"></path><path class="link uses" marker-end="url(#uses)" d="M546.1326199289575,323.93649189583334L536.3816134003736,432.9049898322004"></path><path class="link uses" marker-end="url(#uses)" d="M337.55582892466765,465.3540793014219L407.7001919397964,405.17536602524734"></path><path class="link uses" marker-end="url(#uses)" d="M281.7779239740889,410.25583577627674L407.7001919397964,405.17536602524734"></path><path class="link uses" marker-end="url(#uses)" d="M391.5425371482881,502.37390114501824L407.7001919397964,405.17536602524734"></path><path class="link uses" marker-end="url(#uses)" d="M359.84186875492037,502.6692265826628L407.7001919397964,405.17536602524734"></path><path class="link uses" marker-end="url(#uses)" d="M469.73417148575874,457.7027878329964L407.7001919397964,405.17536602524734"></path><path class="link uses" marker-end="url(#uses)" d="M325.7633293279122,311.29310573663093L407.7001919397964,405.17536602524734"></path><path class="link uses" marker-end="url(#uses)" d="M369.45766175659384,321.95454796707435L407.7001919397964,405.17536602524734"></path><path class="link uses" marker-end="url(#uses)" d="M420.35346810951637,301.0922746954666L407.7001919397964,405.17536602524734"></path><path class="link uses" marker-end="url(#uses)" d="M357.59425072810245,290.99063562776325L407.7001919397964,405.17536602524734"></path><path class="link uses" marker-end="url(#uses)" d="M301.28451991370696,474.01142254657515L407.7001919397964,405.17536602524734"></path><path class="link uses" marker-end="url(#uses)" d="M448.3472458383628,317.07411618699217L407.7001919397964,405.17536602524734"></path><path class="link uses" marker-end="url(#uses)" d="M332.38209379622987,344.8699103715536L407.7001919397964,405.17536602524734"></path><path class="link uses" marker-end="url(#uses)" d="M316.0147013064917,427.0359976068193L407.7001919397964,405.17536602524734"></path><path class="link uses" marker-end="url(#uses)" d="M477.0126366737473,358.5719103956795L407.7001919397964,405.17536602524734"></path><path class="link uses" marker-end="url(#uses)" d="M298.61003152181274,342.8192253330759L407.7001919397964,405.17536602524734"></path><path class="link uses" marker-end="url(#uses)" d="M317.1889241907422,383.2714758102772L407.7001919397964,405.17536602524734"></path><path class="link uses" marker-end="url(#uses)" d="M326.51906885126965,499.0549504578978L407.7001919397964,405.17536602524734"></path><path class="link uses" marker-end="url(#uses)" d="M392.70693509351673,289.6915456525905L407.7001919397964,405.17536602524734"></path><path class="link uses" marker-end="url(#uses)" d="M286.05673881468886,444.7513401585131L407.7001919397964,405.17536602524734"></path><path class="link uses" marker-end="url(#uses)" d="M284.7709569226658,376.27190932279257L407.7001919397964,405.17536602524734"></path><path class="link uses" marker-end="url(#uses)" d="M355.8479603985988,590.6214628849231L449.612244250782,508.42054557178676"></path><path class="link uses" marker-end="url(#uses)" d="M405.47106989315364,617.5325922443462L479.19542038795083,528.2331656623046"></path><path class="link uses" marker-end="url(#uses)" d="M502.4987899724489,229.37564461011985L515.6511048120686,327.28025250013746"></path><path class="link uses" marker-end="url(#uses)" d="M502.4987899724489,229.37564461011985L546.1326199289575,323.93649189583334"></path><path class="link uses" marker-end="url(#uses)" d="M536.3816134003736,432.9049898322004L597.1026937498374,342.50480175460194"></path><path class="link uses" marker-end="url(#uses)" d="M536.3816134003736,432.9049898322004L578.7381744457236,520.8304255253358"></path><path class="link uses" marker-end="url(#uses)" d="M536.3816134003736,432.9049898322004L515.1139992847081,546.548887304867"></path><path class="link uses" marker-end="url(#uses)" d="M536.3816134003736,432.9049898322004L684.3376100606207,422.7688504012429"></path><path class="link uses" marker-end="url(#uses)" d="M536.3816134003736,432.9049898322004L555.1385383805732,544.6177186568466"></path><path class="link uses" marker-end="url(#uses)" d="M597.1026937498374,342.50480175460194L661.1896258961524,253.1550926329011"></path><path class="link uses" marker-end="url(#uses)" d="M578.7381744457236,520.8304255253358L562.6461245271413,631.8720446520276"></path><path class="link uses" marker-end="url(#uses)" d="M515.1139992847081,546.548887304867L511.5710371984193,659.3905131790561"></path><path class="link uses" marker-end="url(#uses)" d="M684.3376100606207,422.7688504012429L719.7172359572526,513.2505153465686"></path><path class="link uses" marker-end="url(#uses)" d="M684.3376100606207,422.7688504012429L693.2498551220801,310.3434048426292"></path><path class="link uses" marker-end="url(#uses)" d="M684.3376100606207,422.7688504012429L639.8316910420733,307.57938348497294"></path><path class="link uses" marker-end="url(#uses)" d="M684.3376100606207,422.7688504012429L757.3901386975559,498.84135388477233"></path><path class="link uses" marker-end="url(#uses)" d="M684.3376100606207,422.7688504012429L778.6233650734414,464.3603017063158"></path><path class="link uses" marker-end="url(#uses)" d="M684.3376100606207,422.7688504012429L779.1248218502328,417.3478370059293"></path><path class="link uses" marker-end="url(#uses)" d="M719.7172359572526,513.2505153465686L786.6399929763808,593.1132084400922"></path><path class="link uses" marker-end="url(#uses)" d="M693.2498551220801,310.3434048426292L666.1141165889172,187.74850755692543"></path><path class="link uses" marker-end="url(#uses)" d="M639.8316910420733,307.57938348497294L578.8230139018744,187.82453347459528"></path><path class="link uses" marker-end="url(#uses)" d="M757.3901386975559,498.84135388477233L835.8590623679062,575.5485814013895"></path><path class="link uses" marker-end="url(#uses)" d="M778.6233650734414,464.3603017063158L865.1021959636565,531.1222764465623"></path><path class="link uses" marker-end="url(#uses)" d="M779.1248218502328,417.3478370059293L864.88717733017,474.33061727483926"></path><path class="link uses" marker-end="url(#uses)" d="M555.1385383805732,544.6177186568466L464.8921775027425,640.5174837282347"></path><path class="link uses" marker-end="url(#uses)" d="M464.8921775027425,640.5174837282347L379.53315538840445,707.620643066677"></path><path class="link uses" marker-end="url(#uses)" d="M845.2223204363239,253.6403009251013L802.4230621859107,342.0073581912003"></path><path class="link uses" marker-end="url(#uses)" d="M808.1132206255503,239.8844548807391L802.4230621859107,342.0073581912003"></path><path class="link uses" marker-end="url(#uses)" d="M895.0241282372909,298.27962074727867L802.4230621859107,342.0073581912003"></path><path class="link uses" marker-end="url(#uses)" d="M855.3300959189003,160.42318944056765L845.2223204363239,253.6403009251013"></path><path class="link uses" marker-end="url(#uses)" d="M855.3300959189003,160.42318944056765L808.1132206255503,239.8844548807391"></path><path class="link uses" marker-end="url(#uses)" d="M992.1316969915172,271.73311205582263L895.0241282372909,298.27962074727867"></path><path class="link uses" marker-end="url(#uses)" d="M802.4230621859107,342.0073581912003L752.6490154712113,260.6722076171835"></path><path class="link uses" marker-end="url(#uses)" d="M802.4230621859107,342.0073581912003L901.3302890987726,379.02146580163503"></path><path class="link uses" marker-end="url(#uses)" d="M802.4230621859107,342.0073581912003L907.0101504505184,338.6490598891869"></path><path class="link uses" marker-end="url(#uses)" d="M802.4230621859107,342.0073581912003L878.852642183872,412.14815125184373"></path><path class="link uses" marker-end="url(#uses)" d="M802.4230621859107,342.0073581912003L889.5195685978326,243.28203102476988"></path><path class="link uses" marker-end="url(#uses)" d="M802.4230621859107,342.0073581912003L684.3376100606207,422.7688504012429"></path><path class="link uses" marker-end="url(#uses)" d="M752.6490154712113,260.6722076171835L661.1896258961524,253.1550926329011"></path><path class="link uses" marker-end="url(#uses)" d="M901.3302890987726,379.02146580163503L993.0142982085843,420.4945202635471"></path><path class="link uses" marker-end="url(#uses)" d="M907.0101504505184,338.6490598891869L1006.7287194547895,346.7863203710408"></path><path class="link uses" marker-end="url(#uses)" d="M878.852642183872,412.14815125184373L956.3117495431695,482.9033907138543"></path><path class="link uses" marker-end="url(#uses)" d="M889.5195685978326,243.28203102476988L981.1676198072286,198.54765537016172"></path><path class="link uses" marker-end="url(#uses)" d="M889.5195685978326,243.28203102476988L927.6551274814324,140.02353003274024"></path><path class="link uses" marker-end="url(#uses)" d="M981.1676198072286,198.54765537016172L927.6551274814324,140.02353003274024"></path><path class="link uses" marker-end="url(#uses)" d="M745.0711689475647,-59.59736921390408L683.797267250276,9.842556044449948"></path><path class="link uses" marker-end="url(#uses)" d="M764.1724323514711,-30.830389816518274L683.797267250276,9.842556044449948"></path><path class="link uses" marker-end="url(#uses)" d="M783.864289881829,-4.4580312267109825L683.797267250276,9.842556044449948"></path><path class="link uses" marker-end="url(#uses)" d="M730.0046873711336,-85.36097310673277L683.797267250276,9.842556044449948"></path><path class="link uses" marker-end="url(#uses)" d="M827.7884756526546,-85.5075497771401L745.0711689475647,-59.59736921390408"></path><path class="link uses" marker-end="url(#uses)" d="M827.7884756526546,-85.5075497771401L764.1724323514711,-30.830389816518274"></path><path class="link uses" marker-end="url(#uses)" d="M827.7884756526546,-85.5075497771401L783.864289881829,-4.4580312267109825"></path><path class="link uses" marker-end="url(#uses)" d="M827.7884756526546,-85.5075497771401L730.0046873711336,-85.36097310673277"></path><path class="link uses" marker-end="url(#uses)" d="M683.797267250276,9.842556044449948L679.6795577239936,123.02870343149918"></path><path class="link uses" marker-end="url(#uses)" d="M683.797267250276,9.842556044449948L672.8483291503941,-86.31412124002343"></path><path class="link uses" marker-end="url(#uses)" d="M683.797267250276,9.842556044449948L632.9744521874004,-71.72925333361485"></path><path class="link uses" marker-end="url(#uses)" d="M683.797267250276,9.842556044449948L604.735783103568,-35.08385031794885"></path><path class="link uses" marker-end="url(#uses)" d="M683.797267250276,9.842556044449948L580.380359823936,12.172356805420492"></path><path class="link uses" marker-end="url(#uses)" d="M683.797267250276,9.842556044449948L779.2962013496974,46.52932462073038"></path><path class="link uses" marker-end="url(#uses)" d="M679.6795577239936,123.02870343149918L661.1896258961524,253.1550926329011"></path><path class="link uses" marker-end="url(#uses)" d="M580.380359823936,12.172356805420492L486.6916785676856,-5.328862398830248"></path><path class="link uses" marker-end="url(#uses)" d="M580.380359823936,12.172356805420492L614.0572193959999,94.72896575690092"></path><path class="link uses" marker-end="url(#uses)" d="M580.380359823936,12.172356805420492L530.2865396459832,90.90451540189709"></path><path class="link uses" marker-end="url(#uses)" d="M580.380359823936,12.172356805420492L527.4983830251931,-67.84875802004738"></path><path class="link uses" marker-end="url(#uses)" d="M486.6916785676856,-5.328862398830248L435.74376164993714,-76.65467957613389"></path><path class="link uses" marker-end="url(#uses)" d="M614.0572193959999,94.72896575690092L666.1141165889172,187.74850755692543"></path><path class="link uses" marker-end="url(#uses)" d="M530.2865396459832,90.90451540189709L578.8230139018744,187.82453347459528"></path><path class="link uses" marker-end="url(#uses)" d="M527.4983830251931,-67.84875802004738L503.00991083773016,-152.13850908701622"></path><path class="link uses" marker-end="url(#uses)" d="M779.2962013496974,46.52932462073038L881.2545016209715,58.93554423429307"></path><path class="link uses" marker-end="url(#uses)" d="M881.2545016209715,58.93554423429307L927.6551274814324,140.02353003274024"></path><path class="link uses" marker-end="url(#uses)" d="M158.17690863246085,180.06771040516702L147.216236013764,96.38635495172939"></path><path class="link uses" marker-end="url(#uses)" d="M111.65068167108383,255.02642979309002L158.17690863246085,180.06771040516702"></path><path class="link uses" marker-end="url(#uses)" d="M77.93580345211707,338.37764775774554L67.87766129641814,425.31081854101984"></path><path class="link uses" marker-end="url(#uses)" d="M111.65068167108383,255.02642979309002L77.93580345211707,338.37764775774554"></path><path class="link uses" marker-end="url(#uses)" d="M83.09992239318036,173.40698301200996L40.573153685746234,245.58091102685418"></path><path class="link uses" marker-end="url(#uses)" d="M111.65068167108383,255.02642979309002L83.09992239318036,173.40698301200996"></path><path class="link uses" marker-end="url(#uses)" d="M306.7295325648782,-123.7912533027468L267.0051403536378,-48.47103803091319"></path><path class="link uses" marker-end="url(#uses)" d="M267.0051403536378,-48.47103803091319L184.94366062140386,-25.13993085649517"></path><path class="link uses" marker-end="url(#uses)" d="M267.0051403536378,-48.47103803091319L224.351933787911,28.388243426383706"></path><path class="link uses" marker-end="url(#uses)" d="M267.0051403536378,-48.47103803091319L283.49332651816076,38.528909254817336"></path><path class="link uses" marker-end="url(#uses)" d="M267.0051403536378,-48.47103803091319L339.3515206366219,-2.07517050944675"></path><path class="link uses" marker-end="url(#uses)" d="M267.0051403536378,-48.47103803091319L348.26146343913325,-75.97471413608099"></path><path class="link uses" marker-end="url(#uses)" d="M734.7259463012911,617.1653426588175L659.9829750072211,541.1274413660005"></path><path class="link uses" marker-end="url(#uses)" d="M803.3402087589111,692.9985756419834L734.7259463012911,617.1653426588175"></path><path class="link uses" marker-end="url(#uses)" d="M659.9829750072211,541.1274413660005L657.1828898265843,399.70589395719645"></path><path class="link uses" marker-end="url(#uses)" d="M659.9829750072211,541.1274413660005L654.8382827223045,633.9413745249777"></path><path class="link uses" marker-end="url(#uses)" d="M659.9829750072211,541.1274413660005L603.7666258068306,622.957550830361"></path><path class="link uses" marker-end="url(#uses)" d="M659.9829750072211,541.1274413660005L701.4587756025101,644.3678032761754"></path><path class="link uses" marker-end="url(#uses)" d="M659.9829750072211,541.1274413660005L684.3376100606207,422.7688504012429"></path><path class="link uses" marker-end="url(#uses)" d="M659.9829750072211,541.1274413660005L555.1385383805732,544.6177186568466"></path><path class="link uses" marker-end="url(#uses)" d="M659.9829750072211,541.1274413660005L630.7186768432563,673.595346610837"></path><path class="link uses" marker-end="url(#uses)" d="M657.1828898265843,399.70589395719645L661.1896258961524,253.1550926329011"></path><path class="link uses" marker-end="url(#uses)" d="M654.8382827223045,633.9413745249777L562.6461245271413,631.8720446520276"></path><path class="link uses" marker-end="url(#uses)" d="M603.7666258068306,622.957550830361L511.5710371984193,659.3905131790561"></path><path class="link uses" marker-end="url(#uses)" d="M701.4587756025101,644.3678032761754L732.4781471689734,739.6573395892545"></path><path class="link uses" marker-end="url(#uses)" d="M630.7186768432563,673.595346610837L626.4546030168218,776.0628568969546"></path><path class="link uses" marker-end="url(#uses)" d="M630.7186768432563,673.595346610837L556.4164565900154,755.2219047528247"></path><path class="link uses" marker-end="url(#uses)" d="M626.4546030168218,776.0628568969546L563.4310414236819,841.9741063743824"></path><path class="link uses" marker-end="url(#uses)" d="M556.4164565900154,755.2219047528247L467.7232850521197,798.9035693937366"></path></g><g><g class="node type-component selected" transform="translate(536.3816134003736,432.9049898322004)"><circle r="4"></circle><title>Access</title><text x="8" y=".31em" class="shadow">Access</text><text x="8" y=".31em">Access</text></g><g class="node type-component selected" transform="translate(802.4230621859107,342.0073581912003)"><circle r="4"></circle><title>Access</title><text x="8" y=".31em" class="shadow">Access</text><text x="8" y=".31em">Access</text></g><g class="node type-component selected" transform="translate(683.797267250276,9.842556044449948)"><circle r="4"></circle><title>Access</title><text x="8" y=".31em" class="shadow">Access</text><text x="8" y=".31em">Access</text></g><g class="node type-element selected" transform="translate(147.216236013764,96.38635495172939)"><circle r="4"></circle><title>Access</title><text x="8" y=".31em" class="shadow">Access</text><text x="8" y=".31em" class="">Access</text></g><g class="node type-element selected" transform="translate(67.87766129641814,425.31081854101984)"><circle r="4"></circle><title>Access</title><text x="8" y=".31em" class="shadow">Access</text><text x="8" y=".31em" class="">Access</text></g><g class="node type-element selected" transform="translate(40.573153685746234,245.58091102685418)"><circle r="4"></circle><title>Access</title><text x="8" y=".31em" class="shadow">Access</text><text x="8" y=".31em" class="">Access</text></g><g class="node type-component selected" transform="translate(267.0051403536378,-48.47103803091319)"><circle r="4"></circle><title>ResourceAccess</title><text x="8" y=".31em" class="shadow">ResourceAccess</text><text x="8" y=".31em" class="">ResourceAccess</text></g><g class="node type-component selected" transform="translate(659.9829750072211,541.1274413660005)"><circle r="4"></circle><title>Access</title><text x="8" y=".31em" class="shadow">Access</text><text x="8" y=".31em">Access</text></g><g class="node type-component" transform="translate(407.7001919397964,405.17536602524734)"><circle r="4"></circle><title>Collection</title><text x="8" y=".31em" class="shadow">Collection</text><text x="8" y=".31em">Collection</text></g><g class="node type-component" transform="translate(449.612244250782,508.42054557178676)"><circle r="4"></circle><title>LexicalResource</title><text x="8" y=".31em" class="shadow">LexicalResource</text><text x="8" y=".31em">LexicalResource</text></g><g class="node type-component" transform="translate(479.19542038795083,528.2331656623046)"><circle r="4"></circle><title>InterviewGeneral</title><text x="8" y=".31em" class="shadow">InterviewGeneral</text><text x="8" y=".31em">InterviewGeneral</text></g><g class="node type-component" transform="translate(515.6511048120686,327.28025250013746)"><circle r="4"></circle><title>SL-MediaFile</title><text x="8" y=".31em" class="shadow">SL-MediaFile</text><text x="8" y=".31em">SL-MediaFile</text></g><g class="node type-component" transform="translate(546.1326199289575,323.93649189583334)"><circle r="4"></circle><title>SL-AnnotationDocument</title><text x="8" y=".31em" class="shadow">SL-AnnotationDocument</text><text x="8" y=".31em">SL-AnnotationDocument</text></g><g class="node type-profile" transform="translate(337.55582892466765,465.3540793014219)"><circle r="4"></circle><title>Bedevaartbank</title><text x="8" y=".31em" class="shadow">Bedevaartbank</text><text x="8" y=".31em">Bedevaartbank</text></g><g class="node type-profile" transform="translate(281.7779239740889,410.25583577627674)"><circle r="4"></circle><title>Boedelbank</title><text x="8" y=".31em" class="shadow">Boedelbank</text><text x="8" y=".31em">Boedelbank</text></g><g class="node type-profile" transform="translate(391.5425371482881,502.37390114501824)"><circle r="4"></circle><title>DBNL</title><text x="8" y=".31em" class="shadow">DBNL</text><text x="8" y=".31em">DBNL</text></g><g class="node type-profile" transform="translate(359.84186875492037,502.6692265826628)"><circle r="4"></circle><title>DIDDD</title><text x="8" y=".31em" class="shadow">DIDDD</text><text x="8" y=".31em">DIDDD</text></g><g class="node type-profile" transform="translate(469.73417148575874,457.7027878329964)"><circle r="4"></circle><title>DSOL</title><text x="8" y=".31em" class="shadow">DSOL</text><text x="8" y=".31em">DSOL</text></g><g class="node type-profile" transform="translate(325.7633293279122,311.29310573663093)"><circle r="4"></circle><title>DynaSAND</title><text x="8" y=".31em" class="shadow">DynaSAND</text><text x="8" y=".31em">DynaSAND</text></g><g class="node type-profile" transform="translate(369.45766175659384,321.95454796707435)"><circle r="4"></circle><title>Familienamenbank</title><text x="8" y=".31em" class="shadow">Familienamenbank</text><text x="8" y=".31em">Familienamenbank</text></g><g class="node type-profile" transform="translate(420.35346810951637,301.0922746954666)"><circle r="4"></circle><title>GTRP</title><text x="8" y=".31em" class="shadow">GTRP</text><text x="8" y=".31em">GTRP</text></g><g class="node type-profile" transform="translate(357.59425072810245,290.99063562776325)"><circle r="4"></circle><title>HZSKCorpus</title><text x="8" y=".31em" class="shadow">HZSKCorpus</text><text x="8" y=".31em">HZSKCorpus</text></g><g class="node type-profile" transform="translate(301.28451991370696,474.01142254657515)"><circle r="4"></circle><title>Liederenbank</title><text x="8" y=".31em" class="shadow">Liederenbank</text><text x="8" y=".31em">Liederenbank</text></g><g class="node type-profile" transform="translate(448.3472458383628,317.07411618699217)"><circle r="4"></circle><title>media-corpus-profile</title><text x="8" y=".31em" class="shadow">media-corpus-profile</text><text x="8" y=".31em">media-corpus-profile</text></g><g class="node type-profile" transform="translate(332.38209379622987,344.8699103715536)"><circle r="4"></circle><title>PLAND</title><text x="8" y=".31em" class="shadow">PLAND</text><text x="8" y=".31em">PLAND</text></g><g class="node type-profile" transform="translate(316.0147013064917,427.0359976068193)"><circle r="4"></circle><title>Soundbites</title><text x="8" y=".31em" class="shadow">Soundbites</text><text x="8" y=".31em">Soundbites</text></g><g class="node type-profile" transform="translate(477.0126366737473,358.5719103956795)"><circle r="4"></circle><title>SpeechCorpusProfile</title><text x="8" y=".31em" class="shadow">SpeechCorpusProfile</text><text x="8" y=".31em">SpeechCorpusProfile</text></g><g class="node type-profile" transform="translate(298.61003152181274,342.8192253330759)"><circle r="4"></circle><title>SpeechCorpusProfile_Autonomata_speaker</title><text x="8" y=".31em" class="shadow">SpeechCorpusProfile_Autonomata_speaker</text><text x="8" y=".31em">SpeechCorpusProfile_Autonomata_speaker</text></g><g class="node type-profile" transform="translate(317.1889241907422,383.2714758102772)"><circle r="4"></circle><title>TextCorpusProfile</title><text x="8" y=".31em" class="shadow">TextCorpusProfile</text><text x="8" y=".31em">TextCorpusProfile</text></g><g class="node type-profile" transform="translate(326.51906885126965,499.0549504578978)"><circle r="4"></circle><title>TxtCrpsProfile-20110928</title><text x="8" y=".31em" class="shadow">TxtCrpsProfile-20110928</text><text x="8" y=".31em">TxtCrpsProfile-20110928</text></g><g class="node type-profile" transform="translate(392.70693509351673,289.6915456525905)"><circle r="4"></circle><title>Voornamenbank</title><text x="8" y=".31em" class="shadow">Voornamenbank</text><text x="8" y=".31em">Voornamenbank</text></g><g class="node type-profile" transform="translate(286.05673881468886,444.7513401585131)"><circle r="4"></circle><title>VU-DNC-profile-20111101</title><text x="8" y=".31em" class="shadow">VU-DNC-profile-20111101</text><text x="8" y=".31em">VU-DNC-profile-20111101</text></g><g class="node type-profile" transform="translate(284.7709569226658,376.27190932279257)"><circle r="4"></circle><title>VVB</title><text x="8" y=".31em" class="shadow">VVB</text><text x="8" y=".31em">VVB</text></g><g class="node type-profile" transform="translate(355.8479603985988,590.6214628849231)"><circle r="4"></circle><title>LexicalResourceProfile</title><text x="8" y=".31em" class="shadow">LexicalResourceProfile</text><text x="8" y=".31em">LexicalResourceProfile</text></g><g class="node type-profile" transform="translate(405.47106989315364,617.5325922443462)"><circle r="4"></circle><title>OralHistoryInterview</title><text x="8" y=".31em" class="shadow">OralHistoryInterview</text><text x="8" y=".31em">OralHistoryInterview</text></g><g class="node type-component" transform="translate(502.4987899724489,229.37564461011985)"><circle r="4"></circle><title>SL-Resources</title><text x="8" y=".31em" class="shadow">SL-Resources</text><text x="8" y=".31em">SL-Resources</text></g><g class="node type-element" transform="translate(597.1026937498374,342.50480175460194)"><circle r="4"></circle><title>Availability</title><text x="8" y=".31em" class="shadow">Availability</text><text x="8" y=".31em" class="">Availability</text></g><g class="node type-element" transform="translate(578.7381744457236,520.8304255253358)"><circle r="4"></circle><title>DistributionMedium</title><text x="8" y=".31em" class="shadow">DistributionMedium</text><text x="8" y=".31em" class="">DistributionMedium</text></g><g class="node type-element" transform="translate(515.1139992847081,546.548887304867)"><circle r="4"></circle><title>CatalogueLink</title><text x="8" y=".31em" class="shadow">CatalogueLink</text><text x="8" y=".31em" class="">CatalogueLink</text></g><g class="node type-component" transform="translate(684.3376100606207,422.7688504012429)"><circle r="4"></circle><title>Contact</title><text x="8" y=".31em" class="shadow">Contact</text><text x="8" y=".31em">Contact</text></g><g class="node type-component" transform="translate(555.1385383805732,544.6177186568466)"><circle r="4"></circle><title>Price</title><text x="8" y=".31em" class="shadow">Price</text><text x="8" y=".31em" class="">Price</text></g><g class="node type-datcat" transform="translate(661.1896258961524,253.1550926329011)"><circle r="4"></circle><title>availability</title><text x="8" y=".31em" class="shadow">availability</text><text x="8" y=".31em" class="">availability</text></g><g class="node type-datcat" transform="translate(562.6461245271413,631.8720446520276)"><circle r="4"></circle><title>DC-2967</title><text x="8" y=".31em" class="shadow">DC-2967</text><text x="8" y=".31em" class="">DC-2967</text></g><g class="node type-datcat" transform="translate(511.5710371984193,659.3905131790561)"><circle r="4"></circle><title>DC-2969</title><text x="8" y=".31em" class="shadow">DC-2969</text><text x="8" y=".31em" class="">DC-2969</text></g><g class="node type-element" transform="translate(719.7172359572526,513.2505153465686)"><circle r="4"></circle><title>Person</title><text x="8" y=".31em" class="shadow">Person</text><text x="8" y=".31em" class="">Person</text></g><g class="node type-element" transform="translate(693.2498551220801,310.3434048426292)"><circle r="4"></circle><title>Address</title><text x="8" y=".31em" class="shadow">Address</text><text x="8" y=".31em" class="">Address</text></g><g class="node type-element" transform="translate(639.8316910420733,307.57938348497294)"><circle r="4"></circle><title>Email</title><text x="8" y=".31em" class="shadow">Email</text><text x="8" y=".31em">Email</text></g><g class="node type-element" transform="translate(757.3901386975559,498.84135388477233)"><circle r="4"></circle><title>Organisation</title><text x="8" y=".31em" class="shadow">Organisation</text><text x="8" y=".31em" class="">Organisation</text></g><g class="node type-element" transform="translate(778.6233650734414,464.3603017063158)"><circle r="4"></circle><title>Telephone</title><text x="8" y=".31em" class="shadow">Telephone</text><text x="8" y=".31em" class="">Telephone</text></g><g class="node type-element" transform="translate(779.1248218502328,417.3478370059293)"><circle r="4"></circle><title>Website</title><text x="8" y=".31em" class="shadow">Website</text><text x="8" y=".31em" class="">Website</text></g><g class="node type-datcat" transform="translate(786.6399929763808,593.1132084400922)"><circle r="4"></circle><title>DC-2978</title><text x="8" y=".31em" class="shadow">DC-2978</text><text x="8" y=".31em" class="">DC-2978</text></g><g class="node type-datcat" transform="translate(666.1141165889172,187.74850755692543)"><circle r="4"></circle><title>address</title><text x="8" y=".31em" class="shadow">address</text><text x="8" y=".31em" class="">address</text></g><g class="node type-datcat" transform="translate(578.8230139018744,187.82453347459528)"><circle r="4"></circle><title>email</title><text x="8" y=".31em" class="shadow">email</text><text x="8" y=".31em">email</text></g><g class="node type-datcat" transform="translate(835.8590623679062,575.5485814013895)"><circle r="4"></circle><title>DC-2979</title><text x="8" y=".31em" class="shadow">DC-2979</text><text x="8" y=".31em" class="">DC-2979</text></g><g class="node type-datcat" transform="translate(865.1021959636565,531.1222764465623)"><circle r="4"></circle><title>telephoneNumber</title><text x="8" y=".31em" class="shadow">telephoneNumber</text><text x="8" y=".31em" class="">telephoneNumber</text></g><g class="node type-datcat" transform="translate(864.88717733017,474.33061727483926)"><circle r="4"></circle><title>DC-63</title><text x="8" y=".31em" class="shadow">DC-63</text><text x="8" y=".31em" class="">DC-63</text></g><g class="node type-element" transform="translate(464.8921775027425,640.5174837282347)"><circle r="4"></circle><title>Price</title><text x="8" y=".31em" class="shadow">Price</text><text x="8" y=".31em" class="">Price</text></g><g class="node type-datcat" transform="translate(379.53315538840445,707.620643066677)"><circle r="4"></circle><title>price</title><text x="8" y=".31em" class="shadow">price</text><text x="8" y=".31em" class="">price</text></g><g class="node type-component" transform="translate(845.2223204363239,253.6403009251013)"><circle r="4"></circle><title>MediaFile</title><text x="8" y=".31em" class="shadow">MediaFile</text><text x="8" y=".31em">MediaFile</text></g><g class="node type-component" transform="translate(808.1132206255503,239.8844548807391)"><circle r="4"></circle><title>WrittenResource</title><text x="8" y=".31em" class="shadow">WrittenResource</text><text x="8" y=".31em">WrittenResource</text></g><g class="node type-component" transform="translate(895.0241282372909,298.27962074727867)"><circle r="4"></circle><title>Anonyms</title><text x="8" y=".31em" class="shadow">Anonyms</text><text x="8" y=".31em">Anonyms</text></g><g class="node type-component" transform="translate(855.3300959189003,160.42318944056765)"><circle r="4"></circle><title>Resources</title><text x="8" y=".31em" class="shadow">Resources</text><text x="8" y=".31em">Resources</text></g><g class="node type-component" transform="translate(992.1316969915172,271.73311205582263)"><circle r="4"></circle><title>Session</title><text x="8" y=".31em" class="shadow">Session</text><text x="8" y=".31em">Session</text></g><g class="node type-element" transform="translate(752.6490154712113,260.6722076171835)"><circle r="4"></circle><title>Availability</title><text x="8" y=".31em" class="shadow">Availability</text><text x="8" y=".31em" class="">Availability</text></g><g class="node type-element" transform="translate(901.3302890987726,379.02146580163503)"><circle r="4"></circle><title>Date</title><text x="8" y=".31em" class="shadow">Date</text><text x="8" y=".31em" class="">Date</text></g><g class="node type-element" transform="translate(907.0101504505184,338.6490598891869)"><circle r="4"></circle><title>Owner</title><text x="8" y=".31em" class="shadow">Owner</text><text x="8" y=".31em" class="">Owner</text></g><g class="node type-element" transform="translate(878.852642183872,412.14815125184373)"><circle r="4"></circle><title>Publisher</title><text x="8" y=".31em" class="shadow">Publisher</text><text x="8" y=".31em" class="">Publisher</text></g><g class="node type-component" transform="translate(889.5195685978326,243.28203102476988)"><circle r="4"></circle><title>Description</title><text x="8" y=".31em" class="shadow">Description</text><text x="8" y=".31em" class="">Description</text></g><g class="node type-datcat" transform="translate(993.0142982085843,420.4945202635471)"><circle r="4"></circle><title>lastUpdate</title><text x="8" y=".31em" class="shadow">lastUpdate</text><text x="8" y=".31em" class="">lastUpdate</text></g><g class="node type-datcat" transform="translate(1006.7287194547895,346.7863203710408)"><circle r="4"></circle><title>DC-5224</title><text x="8" y=".31em" class="shadow">DC-5224</text><text x="8" y=".31em" class="">DC-5224</text></g><g class="node type-datcat" transform="translate(956.3117495431695,482.9033907138543)"><circle r="4"></circle><title>DC-5225</title><text x="8" y=".31em" class="shadow">DC-5225</text><text x="8" y=".31em" class="">DC-5225</text></g><g class="node type-element" transform="translate(981.1676198072286,198.54765537016172)"><circle r="4"></circle><title>Description</title><text x="8" y=".31em" class="shadow">Description</text><text x="8" y=".31em" class="">Description</text></g><g class="node type-datcat" transform="translate(927.6551274814324,140.02353003274024)"><circle r="4"></circle><title>description</title><text x="8" y=".31em" class="shadow">description</text><text x="8" y=".31em" class="">description</text></g><g class="node type-component" transform="translate(745.0711689475647,-59.59736921390408)"><circle r="4"></circle><title>MediaFile</title><text x="8" y=".31em" class="shadow">MediaFile</text><text x="8" y=".31em">MediaFile</text></g><g class="node type-component" transform="translate(764.1724323514711,-30.830389816518274)"><circle r="4"></circle><title>WrittenResource</title><text x="8" y=".31em" class="shadow">WrittenResource</text><text x="8" y=".31em">WrittenResource</text></g><g class="node type-component" transform="translate(783.864289881829,-4.4580312267109825)"><circle r="4"></circle><title>Source</title><text x="8" y=".31em" class="shadow">Source</text><text x="8" y=".31em">Source</text></g><g class="node type-component" transform="translate(730.0046873711336,-85.36097310673277)"><circle r="4"></circle><title>Anonyms</title><text x="8" y=".31em" class="shadow">Anonyms</text><text x="8" y=".31em">Anonyms</text></g><g class="node type-component" transform="translate(827.7884756526546,-85.5075497771401)"><circle r="4"></circle><title>Resources</title><text x="8" y=".31em" class="shadow">Resources</text><text x="8" y=".31em">Resources</text></g><g class="node type-element" transform="translate(679.6795577239936,123.02870343149918)"><circle r="4"></circle><title>Availability</title><text x="8" y=".31em" class="shadow">Availability</text><text x="8" y=".31em" class="">Availability</text></g><g class="node type-element" transform="translate(672.8483291503941,-86.31412124002343)"><circle r="4"></circle><title>Date</title><text x="8" y=".31em" class="shadow">Date</text><text x="8" y=".31em" class="">Date</text></g><g class="node type-element" transform="translate(632.9744521874004,-71.72925333361485)"><circle r="4"></circle><title>Owner</title><text x="8" y=".31em" class="shadow">Owner</text><text x="8" y=".31em" class="">Owner</text></g><g class="node type-element" transform="translate(604.735783103568,-35.08385031794885)"><circle r="4"></circle><title>Publisher</title><text x="8" y=".31em" class="shadow">Publisher</text><text x="8" y=".31em" class="">Publisher</text></g><g class="node type-component" transform="translate(580.380359823936,12.172356805420492)"><circle r="4"></circle><title>Contact</title><text x="8" y=".31em" class="shadow">Contact</text><text x="8" y=".31em">Contact</text></g><g class="node type-component" transform="translate(779.2962013496974,46.52932462073038)"><circle r="4"></circle><title>descriptions</title><text x="8" y=".31em" class="shadow">descriptions</text><text x="8" y=".31em" class="">descriptions</text></g><g class="node type-element" transform="translate(486.6916785676856,-5.328862398830248)"><circle r="4"></circle><title>Name</title><text x="8" y=".31em" class="shadow">Name</text><text x="8" y=".31em" class="">Name</text></g><g class="node type-element" transform="translate(614.0572193959999,94.72896575690092)"><circle r="4"></circle><title>Address</title><text x="8" y=".31em" class="shadow">Address</text><text x="8" y=".31em" class="">Address</text></g><g class="node type-element" transform="translate(530.2865396459832,90.90451540189709)"><circle r="4"></circle><title>Email</title><text x="8" y=".31em" class="shadow">Email</text><text x="8" y=".31em">Email</text></g><g class="node type-element" transform="translate(527.4983830251931,-67.84875802004738)"><circle r="4"></circle><title>Organisation</title><text x="8" y=".31em" class="shadow">Organisation</text><text x="8" y=".31em" class="">Organisation</text></g><g class="node type-datcat" transform="translate(435.74376164993714,-76.65467957613389)"><circle r="4"></circle><title>contactFullName</title><text x="8" y=".31em" class="shadow">contactFullName</text><text x="8" y=".31em" class="">contactFullName</text></g><g class="node type-datcat" transform="translate(503.00991083773016,-152.13850908701622)"><circle r="4"></circle><title>organization</title><text x="8" y=".31em" class="shadow">organization</text><text x="8" y=".31em" class="">organization</text></g><g class="node type-element" transform="translate(881.2545016209715,58.93554423429307)"><circle r="4"></circle><title>Description</title><text x="8" y=".31em" class="shadow">Description</text><text x="8" y=".31em" class="">Description</text></g><g class="node type-component" transform="translate(158.17690863246085,180.06771040516702)"><circle r="4"></circle><title>LrtCollectionDetails</title><text x="8" y=".31em" class="shadow">LrtCollectionDetails</text><text x="8" y=".31em" class="">LrtCollectionDetails</text></g><g class="node type-profile" transform="translate(111.65068167108383,255.02642979309002)"><circle r="4"></circle><title>LrtInventoryResource</title><text x="8" y=".31em" class="shadow">LrtInventoryResource</text><text x="8" y=".31em" class="">LrtInventoryResource</text></g><g class="node type-component" transform="translate(77.93580345211707,338.37764775774554)"><circle r="4"></circle><title>LrtLexiconDetails</title><text x="8" y=".31em" class="shadow">LrtLexiconDetails</text><text x="8" y=".31em" class="">LrtLexiconDetails</text></g><g class="node type-component" transform="translate(83.09992239318036,173.40698301200996)"><circle r="4"></circle><title>LrtServiceDetails</title><text x="8" y=".31em" class="shadow">LrtServiceDetails</text><text x="8" y=".31em" class="">LrtServiceDetails</text></g><g class="node type-profile" transform="translate(306.7295325648782,-123.7912533027468)"><circle r="4"></circle><title>TITUS_metadata</title><text x="8" y=".31em" class="shadow">TITUS_metadata</text><text x="8" y=".31em" class="">TITUS_metadata</text></g><g class="node type-element" transform="translate(184.94366062140386,-25.13993085649517)"><circle r="4"></circle><title>ResourceAccessLink</title><text x="8" y=".31em" class="shadow">ResourceAccessLink</text><text x="8" y=".31em" class="">ResourceAccessLink</text></g><g class="node type-element" transform="translate(224.351933787911,28.388243426383706)"><circle r="4"></circle><title>ResourceAccessAvailability</title><text x="8" y=".31em" class="shadow">ResourceAccessAvailability</text><text x="8" y=".31em" class="">ResourceAccessAvailability</text></g><g class="node type-element" transform="translate(283.49332651816076,38.528909254817336)"><circle r="4"></circle><title>ResourceAccessDate</title><text x="8" y=".31em" class="shadow">ResourceAccessDate</text><text x="8" y=".31em" class="">ResourceAccessDate</text></g><g class="node type-element" transform="translate(339.3515206366219,-2.07517050944675)"><circle r="4"></circle><title>ResourceAccessOwner</title><text x="8" y=".31em" class="shadow">ResourceAccessOwner</text><text x="8" y=".31em" class="">ResourceAccessOwner</text></g><g class="node type-element" transform="translate(348.26146343913325,-75.97471413608099)"><circle r="4"></circle><title>ResourceAccessPublisher</title><text x="8" y=".31em" class="shadow">ResourceAccessPublisher</text><text x="8" y=".31em" class="">ResourceAccessPublisher</text></g><g class="node type-component" transform="translate(734.7259463012911,617.1653426588175)"><circle r="4"></circle><title>Tool</title><text x="8" y=".31em" class="shadow">Tool</text><text x="8" y=".31em">Tool</text></g><g class="node type-profile" transform="translate(803.3402087589111,692.9985756419834)"><circle r="4"></circle><title>ToolService</title><text x="8" y=".31em" class="shadow">ToolService</text><text x="8" y=".31em">ToolService</text></g><g class="node type-element" transform="translate(657.1828898265843,399.70589395719645)"><circle r="4"></circle><title>Availability</title><text x="8" y=".31em" class="shadow">Availability</text><text x="8" y=".31em" class="">Availability</text></g><g class="node type-element" transform="translate(654.8382827223045,633.9413745249777)"><circle r="4"></circle><title>DistributionMedium</title><text x="8" y=".31em" class="shadow">DistributionMedium</text><text x="8" y=".31em" class="">DistributionMedium</text></g><g class="node type-element" transform="translate(603.7666258068306,622.957550830361)"><circle r="4"></circle><title>CatalogueLink</title><text x="8" y=".31em" class="shadow">CatalogueLink</text><text x="8" y=".31em" class="">CatalogueLink</text></g><g class="node type-element" transform="translate(701.4587756025101,644.3678032761754)"><circle r="4"></circle><title>accessProtocol</title><text x="8" y=".31em" class="shadow">accessProtocol</text><text x="8" y=".31em" class="">accessProtocol</text></g><g class="node type-component" transform="translate(630.7186768432563,673.595346610837)"><circle r="4"></circle><title>DistributionType</title><text x="8" y=".31em" class="shadow">DistributionType</text><text x="8" y=".31em" class="">DistributionType</text></g><g class="node type-datcat" transform="translate(732.4781471689734,739.6573395892545)"><circle r="4"></circle><title>accessProtocol</title><text x="8" y=".31em" class="shadow">accessProtocol</text><text x="8" y=".31em" class="">accessProtocol</text></g><g class="node type-element" transform="translate(626.4546030168218,776.0628568969546)"><circle r="4"></circle><title>distributionType</title><text x="8" y=".31em" class="shadow">distributionType</text><text x="8" y=".31em" class="">distributionType</text></g><g class="node type-element" transform="translate(556.4164565900154,755.2219047528247)"><circle r="4"></circle><title>restriction</title><text x="8" y=".31em" class="shadow">restriction</text><text x="8" y=".31em" class="">restriction</text></g><g class="node type-datcat" transform="translate(563.4310414236819,841.9741063743824)"><circle r="4"></circle><title>distributionType</title><text x="8" y=".31em" class="shadow">distributionType</text><text x="8" y=".31em" class="">distributionType</text></g><g class="node type-datcat" transform="translate(467.7232850521197,798.9035693937366)"><circle r="4"></circle><title>DC-1956</title><text x="8" y=".31em" class="shadow">DC-1956</text><text x="8" y=".31em" class="">DC-1956</text></g></g><style type="text/css">
/*div#infovis-wrapper {border: 1px solid grey; margin: 20px; padding: 5px; height:450px; width:70%;}*/
 #infovis {height: 95%; width: 100%; overflow: auto;}
 
 #index-container, #detail-container, #navigate { overflow: auto;}
 
 #navigate { line-height: 2.5em;}
 #navigate select { margin-right: 0.5em; }
 #navigate label {padding: 0px 2px;}
 a.type-link { padding: 2px 4px;}
 
.block {
    border: 1px solid #999;
    /* background-color: rgba(180,180,240,0.6); */    
}
.detail{
  display: none;
}

.hide { display:none;}

.highlight,
.selected {
    font-weight: bold;
    background: #f66;    
}

.widget-slider {width: 80px;  display:inline-block; font-size: 70%;  margin: 6px 12px 0 2px;}

.detaildivs-wrapper {
float:right;
}

path.link {
  fill: none;
  stroke: #999;
}

path.link.highlight {
    stroke: #f66;
    stroke-width: 1.5px;
}

path.link.fade {
    stroke-opacity: 0.2;
}

circle.highlight {
    stroke: #f66;
    stroke-width: 1.5px;
}

.fade circle, circle.fade {
    opacity: 0.2;
}


.type-element circle {
  fill: #99f;
  stroke: #66a;
  stroke-width: 1px;
}


.type-profile circle {
  fill: #66a;
  stroke: #339;
}

.type-profile text{
  font-size: 12px;
  font-weight: bold;
}

.type-component circle {
  fill: #ddf;
  stroke: #99c;
}

.type-datcat circle {
  fill: #6a6;
  stroke: #393;
}

.type-datcat text{
  font-style: italic;
}


.highlight circle,
.selected circle {
    fill: #f66;    
}



circle.selected {
    fill: #f66;
    stroke-width: 2px;
}
text {
  font: 10px sans-serif;
/* pointer-events: none; */
}
text.shadow {
  stroke: #fff;
  stroke-width: 3px;
  stroke-opacity: .8;
}    
</style></svg>