<svg width="1343.0685910712314127" height="914.7066058280296" title="SMC Browser - export" version="1.1" viewBox="-10 -154 1343.0685910712314127 914.7066058280296" xmlns="http://www.w3.org/2000/svg"><defs><marker id="uses" viewBox="0 -5 10 10" refX="15" refY="-1.5" markerWidth="6" markerHeight="6" orient="auto"><path d="M0,-3L10,0L0,3"></path></marker></defs><g><path class="link uses" marker-end="url(#uses)" d="M149.7538940670959,245.8349903413873L479.0579922301404,273.41164003135"></path><path class="link uses" marker-end="url(#uses)" d="M221.9021447718376,323.8582156319707L479.0579922301404,273.41164003135"></path><path class="link uses" marker-end="url(#uses)" d="M221.62932530401594,291.4580827060314L479.0579922301404,273.41164003135"></path><path class="link uses" marker-end="url(#uses)" d="M623.5043502568623,353.0946677990473L479.0579922301404,273.41164003135"></path><path class="link uses" marker-end="url(#uses)" d="M620.7509016952622,378.4026703982808L479.0579922301404,273.41164003135"></path><path class="link uses" marker-end="url(#uses)" d="M20,331.1184876759478L149.7538940670959,245.8349903413873"></path><path class="link uses" marker-end="url(#uses)" d="M20,317.74731389621485L149.7538940670959,245.8349903413873"></path><path class="link uses" marker-end="url(#uses)" d="M20,344.4346976020683L149.7538940670959,245.8349903413873"></path><path class="link uses" marker-end="url(#uses)" d="M20,160.19590419726228L149.7538940670959,245.8349903413873"></path><path class="link uses" marker-end="url(#uses)" d="M20,229.7272883264822L149.7538940670959,245.8349903413873"></path><path class="link uses" marker-end="url(#uses)" d="M20,290.30475287576814L149.7538940670959,245.8349903413873"></path><path class="link uses" marker-end="url(#uses)" d="M20,373.1074854188375L149.7538940670959,245.8349903413873"></path><path class="link uses" marker-end="url(#uses)" d="M20,304.29349568598195L149.7538940670959,245.8349903413873"></path><path class="link uses" marker-end="url(#uses)" d="M20,275.71461666091596L149.7538940670959,245.8349903413873"></path><path class="link uses" marker-end="url(#uses)" d="M20,173.14807942105656L149.7538940670959,245.8349903413873"></path><path class="link uses" marker-end="url(#uses)" d="M20,245.18889837575534L149.7538940670959,245.8349903413873"></path><path class="link uses" marker-end="url(#uses)" d="M20,133.89002452040492L149.7538940670959,245.8349903413873"></path><path class="link uses" marker-end="url(#uses)" d="M20,186.46477500816368L149.7538940670959,245.8349903413873"></path><path class="link uses" marker-end="url(#uses)" d="M20,214.79912620671385L149.7538940670959,245.8349903413873"></path><path class="link uses" marker-end="url(#uses)" d="M20,119.84545276124238L149.7538940670959,245.8349903413873"></path><path class="link uses" marker-end="url(#uses)" d="M20,358.25238842465126L149.7538940670959,245.8349903413873"></path><path class="link uses" marker-end="url(#uses)" d="M20,104.1674730508565L149.7538940670959,245.8349903413873"></path><path class="link uses" marker-end="url(#uses)" d="M20,260.5383568376794L149.7538940670959,245.8349903413873"></path><path class="link uses" marker-end="url(#uses)" d="M20,200.29823720817677L149.7538940670959,245.8349903413873"></path><path class="link uses" marker-end="url(#uses)" d="M20,147.1140697140162L149.7538940670959,245.8349903413873"></path><path class="link uses" marker-end="url(#uses)" d="M20,425.6764804367062L221.9021447718376,323.8582156319707"></path><path class="link uses" marker-end="url(#uses)" d="M20,396.5292057983717L221.62932530401594,291.4580827060314"></path><path class="link uses" marker-end="url(#uses)" d="M524.6397425266819,463.19036388497426L623.5043502568623,353.0946677990473"></path><path class="link uses" marker-end="url(#uses)" d="M524.6397425266819,463.19036388497426L620.7509016952622,378.4026703982808"></path><path class="link uses" marker-end="url(#uses)" d="M479.0579922301404,273.41164003135L637.9704946011476,311.76682610731837"></path><path class="link uses" marker-end="url(#uses)" d="M479.0579922301404,273.41164003135L589.4608834293083,342.68277548185597"></path><path class="link uses" marker-end="url(#uses)" d="M479.0579922301404,273.41164003135L596.9014178569496,206.70455006700354"></path><path class="link uses" marker-end="url(#uses)" d="M479.0579922301404,273.41164003135L701.9221550720549,247.7346672461084"></path><path class="link uses" marker-end="url(#uses)" d="M479.0579922301404,273.41164003135L557.3623243806188,177.0569259803899"></path><path class="link uses" marker-end="url(#uses)" d="M637.9704946011476,311.76682610731837L883.4654069854126,330.5320982750568"></path><path class="link uses" marker-end="url(#uses)" d="M589.4608834293083,342.68277548185597L671.6049097162338,428.84811762298153"></path><path class="link uses" marker-end="url(#uses)" d="M596.9014178569496,206.70455006700354L677.4084663478799,87.58792333137394"></path><path class="link uses" marker-end="url(#uses)" d="M701.9221550720549,247.7346672461084L824.9345462206948,227.91318917207255"></path><path class="link uses" marker-end="url(#uses)" d="M701.9221550720549,247.7346672461084L832.3699870432596,315.48016972705653"></path><path class="link uses" marker-end="url(#uses)" d="M701.9221550720549,247.7346672461084L827.7580746382077,366.0525244351058"></path><path class="link uses" marker-end="url(#uses)" d="M701.9221550720549,247.7346672461084L819.0451237869825,173.11388244594983"></path><path class="link uses" marker-end="url(#uses)" d="M701.9221550720549,247.7346672461084L810.8301381000434,136.45709581077432"></path><path class="link uses" marker-end="url(#uses)" d="M701.9221550720549,247.7346672461084L804.2727510843267,349.5546455979893"></path><path class="link uses" marker-end="url(#uses)" d="M824.9345462206948,227.91318917207255L938.8852027711428,151.24018582438865"></path><path class="link uses" marker-end="url(#uses)" d="M832.3699870432596,315.48016972705653L1024.8469423283357,362.8005943750102"></path><path class="link uses" marker-end="url(#uses)" d="M827.7580746382077,366.0525244351058L1027.6550579232533,417.2223662659121"></path><path class="link uses" marker-end="url(#uses)" d="M819.0451237869825,173.11388244594983L932.2443828486086,83.36053519927611"></path><path class="link uses" marker-end="url(#uses)" d="M810.8301381000434,136.45709581077432L920.8162016014252,30.982840157178543"></path><path class="link uses" marker-end="url(#uses)" d="M804.2727510843267,349.5546455979893L916.1950853517434,424.47410862835983"></path><path class="link uses" marker-end="url(#uses)" d="M557.3623243806188,177.0569259803899L678.1808041676776,115.8932235576198"></path><path class="link uses" marker-end="url(#uses)" d="M678.1808041676776,115.8932235576198L793.2995413399873,25.088810863020615"></path><path class="link uses" marker-end="url(#uses)" d="M760.5299279193224,196.14566585414002L906.3306544534411,232.44114491728288"></path><path class="link uses" marker-end="url(#uses)" d="M757.8733501786113,246.721192610693L906.3306544534411,232.44114491728288"></path><path class="link uses" marker-end="url(#uses)" d="M854.8576905479556,97.94665973847862L906.3306544534411,232.44114491728288"></path><path class="link uses" marker-end="url(#uses)" d="M632.3271171082899,177.23601741059963L760.5299279193224,196.14566585414002"></path><path class="link uses" marker-end="url(#uses)" d="M632.3271171082899,177.23601741059963L757.8733501786113,246.721192610693"></path><path class="link uses" marker-end="url(#uses)" d="M735.1686841207137,14.01712490641884L854.8576905479556,97.94665973847862"></path><path class="link uses" marker-end="url(#uses)" d="M906.3306544534411,232.44114491728288L1018.1145011512174,284.8193883517513"></path><path class="link uses" marker-end="url(#uses)" d="M906.3306544534411,232.44114491728288L1022.5586458572478,170.28123711429186"></path><path class="link uses" marker-end="url(#uses)" d="M906.3306544534411,232.44114491728288L1016.2613429535564,132.74127605080054"></path><path class="link uses" marker-end="url(#uses)" d="M906.3306544534411,232.44114491728288L1028.1792610586178,217.3758357534986"></path><path class="link uses" marker-end="url(#uses)" d="M906.3306544534411,232.44114491728288L1027.7318930769845,320.00948831380583"></path><path class="link uses" marker-end="url(#uses)" d="M906.3306544534411,232.44114491728288L701.9221550720549,247.7346672461084"></path><path class="link uses" marker-end="url(#uses)" d="M1018.1145011512174,284.8193883517513L883.4654069854126,330.5320982750568"></path><path class="link uses" marker-end="url(#uses)" d="M1022.5586458572478,170.28123711429186L1139.6951104065988,216.64824975540031"></path><path class="link uses" marker-end="url(#uses)" d="M1016.2613429535564,132.74127605080054L1126.9963841668584,63.14068491143187"></path><path class="link uses" marker-end="url(#uses)" d="M1028.1792610586178,217.3758357534986L1141.4329682468892,148.61292513215764"></path><path class="link uses" marker-end="url(#uses)" d="M1027.7318930769845,320.00948831380583L1144.8376591156675,274.93327561564155"></path><path class="link uses" marker-end="url(#uses)" d="M1027.7318930769845,320.00948831380583L1176.077302440081,392.14572129524544"></path><path class="link uses" marker-end="url(#uses)" d="M1144.8376591156675,274.93327561564155L1176.077302440081,392.14572129524544"></path><path class="link uses" marker-end="url(#uses)" d="M643.9472740151109,658.8239748216845L767.0375558281505,613.0874218703416"></path><path class="link uses" marker-end="url(#uses)" d="M641.237046259177,614.6499835386307L767.0375558281505,613.0874218703416"></path><path class="link uses" marker-end="url(#uses)" d="M639.6250500531813,574.7062440498908L767.0375558281505,613.0874218703416"></path><path class="link uses" marker-end="url(#uses)" d="M646.058585500678,692.2587785654117L767.0375558281505,613.0874218703416"></path><path class="link uses" marker-end="url(#uses)" d="M520.0662406429561,642.6299050447534L643.9472740151109,658.8239748216845"></path><path class="link uses" marker-end="url(#uses)" d="M520.0662406429561,642.6299050447534L641.237046259177,614.6499835386307"></path><path class="link uses" marker-end="url(#uses)" d="M520.0662406429561,642.6299050447534L639.6250500531813,574.7062440498908"></path><path class="link uses" marker-end="url(#uses)" d="M520.0662406429561,642.6299050447534L646.058585500678,692.2587785654117"></path><path class="link uses" marker-end="url(#uses)" d="M767.0375558281505,613.0874218703416L868.0244728483315,489.1140201435596"></path><path class="link uses" marker-end="url(#uses)" d="M767.0375558281505,613.0874218703416L871.9774625897777,712.1598602612195"></path><path class="link uses" marker-end="url(#uses)" d="M767.0375558281505,613.0874218703416L879.498048093413,682.0639179701633"></path><path class="link uses" marker-end="url(#uses)" d="M767.0375558281505,613.0874218703416L885.1812250220017,645.6252104249293"></path><path class="link uses" marker-end="url(#uses)" d="M767.0375558281505,613.0874218703416L886.3876022699665,590.006654550462"></path><path class="link uses" marker-end="url(#uses)" d="M767.0375558281505,613.0874218703416L882.6166473975212,536.4770488376955"></path><path class="link uses" marker-end="url(#uses)" d="M868.0244728483315,489.1140201435596L883.4654069854126,330.5320982750568"></path><path class="link uses" marker-end="url(#uses)" d="M886.3876022699665,590.006654550462L1003.2408569153018,540.2501313822012"></path><path class="link uses" marker-end="url(#uses)" d="M886.3876022699665,590.006654550462L996.8726852091851,500.1831960975269"></path><path class="link uses" marker-end="url(#uses)" d="M886.3876022699665,590.006654550462L1007.519687386636,567.1532774499499"></path><path class="link uses" marker-end="url(#uses)" d="M886.3876022699665,590.006654550462L999.8047105761908,660.9682278646878"></path><path class="link uses" marker-end="url(#uses)" d="M1003.2408569153018,540.2501313822012L1120.5617607182396,488.99866757655377"></path><path class="link uses" marker-end="url(#uses)" d="M996.8726852091851,500.1831960975269L1024.8469423283357,362.8005943750102"></path><path class="link uses" marker-end="url(#uses)" d="M1007.519687386636,567.1532774499499L1027.6550579232533,417.2223662659121"></path><path class="link uses" marker-end="url(#uses)" d="M999.8047105761908,660.9682278646878L1113.8689056930289,600.745754048706"></path><path class="link uses" marker-end="url(#uses)" d="M882.6166473975212,536.4770488376955L1010.7351523638849,450.90367594625656"></path><path class="link uses" marker-end="url(#uses)" d="M1010.7351523638849,450.90367594625656L1176.077302440081,392.14572129524544"></path><path class="link uses" marker-end="url(#uses)" d="M155.05824033325848,600.4326651860357L290.0824366029034,624.7596839335438"></path><path class="link uses" marker-end="url(#uses)" d="M20,641.5300010223739L155.05824033325848,600.4326651860357"></path><path class="link uses" marker-end="url(#uses)" d="M157.27183233575664,651.8754910365736L292.4597782706229,676.5547414813276"></path><path class="link uses" marker-end="url(#uses)" d="M20,641.5300010223739L157.27183233575664,651.8754910365736"></path><path class="link uses" marker-end="url(#uses)" d="M154.59453197153533,699.7322011722434L288.7103943009508,731.2739368951146"></path><path class="link uses" marker-end="url(#uses)" d="M20,641.5300010223739L154.59453197153533,699.7322011722434"></path><path class="link uses" marker-end="url(#uses)" d="M20,542.921895377873L163.5180688821477,511.7571803890157"></path><path class="link uses" marker-end="url(#uses)" d="M163.5180688821477,511.7571803890157L293.8407098097494,570.5744892294153"></path><path class="link uses" marker-end="url(#uses)" d="M163.5180688821477,511.7571803890157L297.3845072814542,536.4309538028625"></path><path class="link uses" marker-end="url(#uses)" d="M163.5180688821477,511.7571803890157L298.0052043172836,500.37968310517255"></path><path class="link uses" marker-end="url(#uses)" d="M163.5180688821477,511.7571803890157L295.2456402522367,465.4598681453137"></path><path class="link uses" marker-end="url(#uses)" d="M163.5180688821477,511.7571803890157L290.102059275299,431.88755021420195"></path><path class="link uses" marker-end="url(#uses)" d="M199.2219259939712,144.69218442366864L403.57319698701383,205.73191541541718"></path><path class="link uses" marker-end="url(#uses)" d="M20,54.054348745748136L199.2219259939712,144.69218442366864"></path><path class="link uses" marker-end="url(#uses)" d="M403.57319698701383,205.73191541541718L575.1269782149132,281.1213066750701"></path><path class="link uses" marker-end="url(#uses)" d="M403.57319698701383,205.73191541541718L519.6378077716116,327.34521706834533"></path><path class="link uses" marker-end="url(#uses)" d="M403.57319698701383,205.73191541541718L525.8258947323272,137.69581092427808"></path><path class="link uses" marker-end="url(#uses)" d="M403.57319698701383,205.73191541541718L512.6050083319293,108.84770233834996"></path><path class="link uses" marker-end="url(#uses)" d="M403.57319698701383,205.73191541541718L701.9221550720549,247.7346672461084"></path><path class="link uses" marker-end="url(#uses)" d="M403.57319698701383,205.73191541541718L557.3623243806188,177.0569259803899"></path><path class="link uses" marker-end="url(#uses)" d="M403.57319698701383,205.73191541541718L515.401543417616,69.02846846086982"></path><path class="link uses" marker-end="url(#uses)" d="M575.1269782149132,281.1213066750701L883.4654069854126,330.5320982750568"></path><path class="link uses" marker-end="url(#uses)" d="M519.6378077716116,327.34521706834533L671.6049097162338,428.84811762298153"></path><path class="link uses" marker-end="url(#uses)" d="M525.8258947323272,137.69581092427808L677.4084663478799,87.58792333137394"></path><path class="link uses" marker-end="url(#uses)" d="M512.6050083319293,108.84770233834996L625.4574492070225,31.161847173509237"></path><path class="link uses" marker-end="url(#uses)" d="M515.401543417616,69.02846846086982L624.6906580577883,-48.97549982597068"></path><path class="link uses" marker-end="url(#uses)" d="M515.401543417616,69.02846846086982L629.7146172525803,-15.587157287966056"></path><path class="link uses" marker-end="url(#uses)" d="M624.6906580577883,-48.97549982597068L739.8577362439082,-123.43300893563473"></path><path class="link uses" marker-end="url(#uses)" d="M629.7146172525803,-15.587157287966056L748.4913409112559,-74.47500113738442"></path></g><g><g class="node type-component selected" transform="translate(479.0579922301404,273.41164003135)"><circle r="4"></circle><title>Access</title><text x="8" y=".31em" class="shadow">Access</text><text x="8" y=".31em" class="">Access</text></g><g class="node type-component selected" transform="translate(906.3306544534411,232.44114491728288)"><circle r="4"></circle><title>Access</title><text x="8" y=".31em" class="shadow">Access</text><text x="8" y=".31em" class="">Access</text></g><g class="node type-component selected" transform="translate(767.0375558281505,613.0874218703416)"><circle r="4"></circle><title>Access</title><text x="8" y=".31em" class="shadow">Access</text><text x="8" y=".31em" class="">Access</text></g><g class="node type-element selected" transform="translate(290.0824366029034,624.7596839335438)"><circle r="4"></circle><title>Access</title><text x="8" y=".31em" class="shadow">Access</text><text x="8" y=".31em" class="">Access</text></g><g class="node type-element selected" transform="translate(292.4597782706229,676.5547414813276)"><circle r="4"></circle><title>Access</title><text x="8" y=".31em" class="shadow">Access</text><text x="8" y=".31em" class="">Access</text></g><g class="node type-element selected" transform="translate(288.7103943009508,731.2739368951146)"><circle r="4"></circle><title>Access</title><text x="8" y=".31em" class="shadow">Access</text><text x="8" y=".31em" class="">Access</text></g><g class="node type-component selected" transform="translate(163.5180688821477,511.7571803890157)"><circle r="4"></circle><title>ResourceAccess</title><text x="8" y=".31em" class="shadow">ResourceAccess</text><text x="8" y=".31em" class="">ResourceAccess</text></g><g class="node type-component selected" transform="translate(403.57319698701383,205.73191541541718)"><circle r="4"></circle><title>Access</title><text x="8" y=".31em" class="shadow">Access</text><text x="8" y=".31em" class="">Access</text></g><g class="node type-component" transform="translate(149.7538940670959,245.8349903413873)"><circle r="4"></circle><title>Collection</title><text x="8" y=".31em" class="shadow">Collection</text><text x="8" y=".31em" class="">Collection</text></g><g class="node type-component" transform="translate(221.9021447718376,323.8582156319707)"><circle r="4"></circle><title>LexicalResource</title><text x="8" y=".31em" class="shadow">LexicalResource</text><text x="8" y=".31em" class="">LexicalResource</text></g><g class="node type-component" transform="translate(221.62932530401594,291.4580827060314)"><circle r="4"></circle><title>InterviewGeneral</title><text x="8" y=".31em" class="shadow">InterviewGeneral</text><text x="8" y=".31em" class="">InterviewGeneral</text></g><g class="node type-component" transform="translate(623.5043502568623,353.0946677990473)"><circle r="4"></circle><title>SL-MediaFile</title><text x="8" y=".31em" class="shadow">SL-MediaFile</text><text x="8" y=".31em" class="">SL-MediaFile</text></g><g class="node type-component" transform="translate(620.7509016952622,378.4026703982808)"><circle r="4"></circle><title>SL-AnnotationDocument</title><text x="8" y=".31em" class="shadow">SL-AnnotationDocument</text><text x="8" y=".31em" class="">SL-AnnotationDocument</text></g><g class="node type-profile" transform="translate(20,331.1184876759478)"><circle r="4"></circle><title>Bedevaartbank</title><text x="8" y=".31em" class="shadow">Bedevaartbank</text><text x="8" y=".31em" class="">Bedevaartbank</text></g><g class="node type-profile" transform="translate(20,317.74731389621485)"><circle r="4"></circle><title>Boedelbank</title><text x="8" y=".31em" class="shadow">Boedelbank</text><text x="8" y=".31em" class="">Boedelbank</text></g><g class="node type-profile" transform="translate(20,344.4346976020683)"><circle r="4"></circle><title>DBNL</title><text x="8" y=".31em" class="shadow">DBNL</text><text x="8" y=".31em" class="">DBNL</text></g><g class="node type-profile" transform="translate(20,160.19590419726228)"><circle r="4"></circle><title>DIDDD</title><text x="8" y=".31em" class="shadow">DIDDD</text><text x="8" y=".31em" class="">DIDDD</text></g><g class="node type-profile" transform="translate(20,229.7272883264822)"><circle r="4"></circle><title>DSOL</title><text x="8" y=".31em" class="shadow">DSOL</text><text x="8" y=".31em" class="">DSOL</text></g><g class="node type-profile" transform="translate(20,290.30475287576814)"><circle r="4"></circle><title>DynaSAND</title><text x="8" y=".31em" class="shadow">DynaSAND</text><text x="8" y=".31em" class="">DynaSAND</text></g><g class="node type-profile" transform="translate(20,373.1074854188375)"><circle r="4"></circle><title>Familienamenbank</title><text x="8" y=".31em" class="shadow">Familienamenbank</text><text x="8" y=".31em" class="">Familienamenbank</text></g><g class="node type-profile" transform="translate(20,304.29349568598195)"><circle r="4"></circle><title>GTRP</title><text x="8" y=".31em" class="shadow">GTRP</text><text x="8" y=".31em" class="">GTRP</text></g><g class="node type-profile" transform="translate(20,275.71461666091596)"><circle r="4"></circle><title>HZSKCorpus</title><text x="8" y=".31em" class="shadow">HZSKCorpus</text><text x="8" y=".31em" class="">HZSKCorpus</text></g><g class="node type-profile" transform="translate(20,173.14807942105656)"><circle r="4"></circle><title>Liederenbank</title><text x="8" y=".31em" class="shadow">Liederenbank</text><text x="8" y=".31em" class="">Liederenbank</text></g><g class="node type-profile" transform="translate(20,245.18889837575534)"><circle r="4"></circle><title>media-corpus-profile</title><text x="8" y=".31em" class="shadow">media-corpus-profile</text><text x="8" y=".31em" class="">media-corpus-profile</text></g><g class="node type-profile" transform="translate(20,133.89002452040492)"><circle r="4"></circle><title>PLAND</title><text x="8" y=".31em" class="shadow">PLAND</text><text x="8" y=".31em" class="">PLAND</text></g><g class="node type-profile" transform="translate(20,186.46477500816368)"><circle r="4"></circle><title>Soundbites</title><text x="8" y=".31em" class="shadow">Soundbites</text><text x="8" y=".31em" class="">Soundbites</text></g><g class="node type-profile" transform="translate(20,214.79912620671385)"><circle r="4"></circle><title>SpeechCorpusProfile</title><text x="8" y=".31em" class="shadow">SpeechCorpusProfile</text><text x="8" y=".31em" class="">SpeechCorpusProfile</text></g><g class="node type-profile" transform="translate(20,119.84545276124238)"><circle r="4"></circle><title>SpeechCorpusProfile_Autonomata_speaker</title><text x="8" y=".31em" class="shadow">SpeechCorpusProfile_Autonomata_speaker</text><text x="8" y=".31em" class="">SpeechCorpusProfile_Autonomata_speaker</text></g><g class="node type-profile" transform="translate(20,358.25238842465126)"><circle r="4"></circle><title>TextCorpusProfile</title><text x="8" y=".31em" class="shadow">TextCorpusProfile</text><text x="8" y=".31em" class="">TextCorpusProfile</text></g><g class="node type-profile" transform="translate(20,104.1674730508565)"><circle r="4"></circle><title>TxtCrpsProfile-20110928</title><text x="8" y=".31em" class="shadow">TxtCrpsProfile-20110928</text><text x="8" y=".31em" class="">TxtCrpsProfile-20110928</text></g><g class="node type-profile" transform="translate(20,260.5383568376794)"><circle r="4"></circle><title>Voornamenbank</title><text x="8" y=".31em" class="shadow">Voornamenbank</text><text x="8" y=".31em" class="">Voornamenbank</text></g><g class="node type-profile" transform="translate(20,200.29823720817677)"><circle r="4"></circle><title>VU-DNC-profile-20111101</title><text x="8" y=".31em" class="shadow">VU-DNC-profile-20111101</text><text x="8" y=".31em" class="">VU-DNC-profile-20111101</text></g><g class="node type-profile" transform="translate(20,147.1140697140162)"><circle r="4"></circle><title>VVB</title><text x="8" y=".31em" class="shadow">VVB</text><text x="8" y=".31em" class="">VVB</text></g><g class="node type-profile" transform="translate(20,425.6764804367062)"><circle r="4"></circle><title>LexicalResourceProfile</title><text x="8" y=".31em" class="shadow">LexicalResourceProfile</text><text x="8" y=".31em" class="">LexicalResourceProfile</text></g><g class="node type-profile" transform="translate(20,396.5292057983717)"><circle r="4"></circle><title>OralHistoryInterview</title><text x="8" y=".31em" class="shadow">OralHistoryInterview</text><text x="8" y=".31em" class="">OralHistoryInterview</text></g><g class="node type-component" transform="translate(524.6397425266819,463.19036388497426)"><circle r="4"></circle><title>SL-Resources</title><text x="8" y=".31em" class="shadow">SL-Resources</text><text x="8" y=".31em" class="">SL-Resources</text></g><g class="node type-element" transform="translate(637.9704946011476,311.76682610731837)"><circle r="4"></circle><title>Availability</title><text x="8" y=".31em" class="shadow">Availability</text><text x="8" y=".31em" class="">Availability</text></g><g class="node type-element" transform="translate(589.4608834293083,342.68277548185597)"><circle r="4"></circle><title>DistributionMedium</title><text x="8" y=".31em" class="shadow">DistributionMedium</text><text x="8" y=".31em" class="">DistributionMedium</text></g><g class="node type-element" transform="translate(596.9014178569496,206.70455006700354)"><circle r="4"></circle><title>CatalogueLink</title><text x="8" y=".31em" class="shadow">CatalogueLink</text><text x="8" y=".31em" class="">CatalogueLink</text></g><g class="node type-component" transform="translate(701.9221550720549,247.7346672461084)"><circle r="4"></circle><title>Contact</title><text x="8" y=".31em" class="shadow">Contact</text><text x="8" y=".31em" class="">Contact</text></g><g class="node type-component" transform="translate(557.3623243806188,177.0569259803899)"><circle r="4"></circle><title>Price</title><text x="8" y=".31em" class="shadow">Price</text><text x="8" y=".31em" class="">Price</text></g><g class="node type-datcat" transform="translate(883.4654069854126,330.5320982750568)"><circle r="4"></circle><title>availability</title><text x="8" y=".31em" class="shadow">availability</text><text x="8" y=".31em" class="">availability</text></g><g class="node type-datcat" transform="translate(671.6049097162338,428.84811762298153)"><circle r="4"></circle><title>DC-2967</title><text x="8" y=".31em" class="shadow">DC-2967</text><text x="8" y=".31em" class="">DC-2967</text></g><g class="node type-datcat" transform="translate(677.4084663478799,87.58792333137394)"><circle r="4"></circle><title>DC-2969</title><text x="8" y=".31em" class="shadow">DC-2969</text><text x="8" y=".31em" class="">DC-2969</text></g><g class="node type-element" transform="translate(824.9345462206948,227.91318917207255)"><circle r="4"></circle><title>Person</title><text x="8" y=".31em" class="shadow">Person</text><text x="8" y=".31em" class="">Person</text></g><g class="node type-element" transform="translate(832.3699870432596,315.48016972705653)"><circle r="4"></circle><title>Address</title><text x="8" y=".31em" class="shadow">Address</text><text x="8" y=".31em" class="">Address</text></g><g class="node type-element" transform="translate(827.7580746382077,366.0525244351058)"><circle r="4"></circle><title>Email</title><text x="8" y=".31em" class="shadow">Email</text><text x="8" y=".31em" class="">Email</text></g><g class="node type-element" transform="translate(819.0451237869825,173.11388244594983)"><circle r="4"></circle><title>Organisation</title><text x="8" y=".31em" class="shadow">Organisation</text><text x="8" y=".31em" class="">Organisation</text></g><g class="node type-element" transform="translate(810.8301381000434,136.45709581077432)"><circle r="4"></circle><title>Telephone</title><text x="8" y=".31em" class="shadow">Telephone</text><text x="8" y=".31em" class="">Telephone</text></g><g class="node type-element" transform="translate(804.2727510843267,349.5546455979893)"><circle r="4"></circle><title>Website</title><text x="8" y=".31em" class="shadow">Website</text><text x="8" y=".31em" class="">Website</text></g><g class="node type-datcat" transform="translate(938.8852027711428,151.24018582438865)"><circle r="4"></circle><title>DC-2978</title><text x="8" y=".31em" class="shadow">DC-2978</text><text x="8" y=".31em" class="">DC-2978</text></g><g class="node type-datcat" transform="translate(1024.8469423283357,362.8005943750102)"><circle r="4"></circle><title>address</title><text x="8" y=".31em" class="shadow">address</text><text x="8" y=".31em" class="">address</text></g><g class="node type-datcat" transform="translate(1027.6550579232533,417.2223662659121)"><circle r="4"></circle><title>email</title><text x="8" y=".31em" class="shadow">email</text><text x="8" y=".31em" class="">email</text></g><g class="node type-datcat" transform="translate(932.2443828486086,83.36053519927611)"><circle r="4"></circle><title>DC-2979</title><text x="8" y=".31em" class="shadow">DC-2979</text><text x="8" y=".31em" class="">DC-2979</text></g><g class="node type-datcat" transform="translate(920.8162016014252,30.982840157178543)"><circle r="4"></circle><title>telephoneNumber</title><text x="8" y=".31em" class="shadow">telephoneNumber</text><text x="8" y=".31em" class="">telephoneNumber</text></g><g class="node type-datcat" transform="translate(916.1950853517434,424.47410862835983)"><circle r="4"></circle><title>DC-63</title><text x="8" y=".31em" class="shadow">DC-63</text><text x="8" y=".31em" class="">DC-63</text></g><g class="node type-element" transform="translate(678.1808041676776,115.8932235576198)"><circle r="4"></circle><title>Price</title><text x="8" y=".31em" class="shadow">Price</text><text x="8" y=".31em" class="">Price</text></g><g class="node type-datcat" transform="translate(793.2995413399873,25.088810863020615)"><circle r="4"></circle><title>price</title><text x="8" y=".31em" class="shadow">price</text><text x="8" y=".31em" class="">price</text></g><g class="node type-component" transform="translate(760.5299279193224,196.14566585414002)"><circle r="4"></circle><title>MediaFile</title><text x="8" y=".31em" class="shadow">MediaFile</text><text x="8" y=".31em" class="">MediaFile</text></g><g class="node type-component" transform="translate(757.8733501786113,246.721192610693)"><circle r="4"></circle><title>WrittenResource</title><text x="8" y=".31em" class="shadow">WrittenResource</text><text x="8" y=".31em" class="">WrittenResource</text></g><g class="node type-component" transform="translate(854.8576905479556,97.94665973847862)"><circle r="4"></circle><title>Anonyms</title><text x="8" y=".31em" class="shadow">Anonyms</text><text x="8" y=".31em" class="">Anonyms</text></g><g class="node type-component" transform="translate(632.3271171082899,177.23601741059963)"><circle r="4"></circle><title>Resources</title><text x="8" y=".31em" class="shadow">Resources</text><text x="8" y=".31em" class="">Resources</text></g><g class="node type-component" transform="translate(735.1686841207137,14.01712490641884)"><circle r="4"></circle><title>Session</title><text x="8" y=".31em" class="shadow">Session</text><text x="8" y=".31em" class="">Session</text></g><g class="node type-element" transform="translate(1018.1145011512174,284.8193883517513)"><circle r="4"></circle><title>Availability</title><text x="8" y=".31em" class="shadow">Availability</text><text x="8" y=".31em" class="">Availability</text></g><g class="node type-element" transform="translate(1022.5586458572478,170.28123711429186)"><circle r="4"></circle><title>Date</title><text x="8" y=".31em" class="shadow">Date</text><text x="8" y=".31em" class="">Date</text></g><g class="node type-element" transform="translate(1016.2613429535564,132.74127605080054)"><circle r="4"></circle><title>Owner</title><text x="8" y=".31em" class="shadow">Owner</text><text x="8" y=".31em" class="">Owner</text></g><g class="node type-element" transform="translate(1028.1792610586178,217.3758357534986)"><circle r="4"></circle><title>Publisher</title><text x="8" y=".31em" class="shadow">Publisher</text><text x="8" y=".31em" class="">Publisher</text></g><g class="node type-component" transform="translate(1027.7318930769845,320.00948831380583)"><circle r="4"></circle><title>Description</title><text x="8" y=".31em" class="shadow">Description</text><text x="8" y=".31em" class="">Description</text></g><g class="node type-datcat" transform="translate(1139.6951104065988,216.64824975540031)"><circle r="4"></circle><title>lastUpdate</title><text x="8" y=".31em" class="shadow">lastUpdate</text><text x="8" y=".31em" class="">lastUpdate</text></g><g class="node type-datcat" transform="translate(1126.9963841668584,63.14068491143187)"><circle r="4"></circle><title>DC-5224</title><text x="8" y=".31em" class="shadow">DC-5224</text><text x="8" y=".31em" class="">DC-5224</text></g><g class="node type-datcat" transform="translate(1141.4329682468892,148.61292513215764)"><circle r="4"></circle><title>DC-5225</title><text x="8" y=".31em" class="shadow">DC-5225</text><text x="8" y=".31em" class="">DC-5225</text></g><g class="node type-element" transform="translate(1144.8376591156675,274.93327561564155)"><circle r="4"></circle><title>Description</title><text x="8" y=".31em" class="shadow">Description</text><text x="8" y=".31em" class="">Description</text></g><g class="node type-datcat" transform="translate(1176.077302440081,392.14572129524544)"><circle r="4"></circle><title>description</title><text x="8" y=".31em" class="shadow">description</text><text x="8" y=".31em" class="">description</text></g><g class="node type-component" transform="translate(643.9472740151109,658.8239748216845)"><circle r="4"></circle><title>MediaFile</title><text x="8" y=".31em" class="shadow">MediaFile</text><text x="8" y=".31em" class="">MediaFile</text></g><g class="node type-component" transform="translate(641.237046259177,614.6499835386307)"><circle r="4"></circle><title>WrittenResource</title><text x="8" y=".31em" class="shadow">WrittenResource</text><text x="8" y=".31em" class="">WrittenResource</text></g><g class="node type-component" transform="translate(639.6250500531813,574.7062440498908)"><circle r="4"></circle><title>Source</title><text x="8" y=".31em" class="shadow">Source</text><text x="8" y=".31em" class="">Source</text></g><g class="node type-component" transform="translate(646.058585500678,692.2587785654117)"><circle r="4"></circle><title>Anonyms</title><text x="8" y=".31em" class="shadow">Anonyms</text><text x="8" y=".31em" class="">Anonyms</text></g><g class="node type-component" transform="translate(520.0662406429561,642.6299050447534)"><circle r="4"></circle><title>Resources</title><text x="8" y=".31em" class="shadow">Resources</text><text x="8" y=".31em" class="">Resources</text></g><g class="node type-element" transform="translate(868.0244728483315,489.1140201435596)"><circle r="4"></circle><title>Availability</title><text x="8" y=".31em" class="shadow">Availability</text><text x="8" y=".31em" class="">Availability</text></g><g class="node type-element" transform="translate(871.9774625897777,712.1598602612195)"><circle r="4"></circle><title>Date</title><text x="8" y=".31em" class="shadow">Date</text><text x="8" y=".31em" class="">Date</text></g><g class="node type-element" transform="translate(879.498048093413,682.0639179701633)"><circle r="4"></circle><title>Owner</title><text x="8" y=".31em" class="shadow">Owner</text><text x="8" y=".31em" class="">Owner</text></g><g class="node type-element" transform="translate(885.1812250220017,645.6252104249293)"><circle r="4"></circle><title>Publisher</title><text x="8" y=".31em" class="shadow">Publisher</text><text x="8" y=".31em" class="">Publisher</text></g><g class="node type-component" transform="translate(886.3876022699665,590.006654550462)"><circle r="4"></circle><title>Contact</title><text x="8" y=".31em" class="shadow">Contact</text><text x="8" y=".31em" class="">Contact</text></g><g class="node type-component" transform="translate(882.6166473975212,536.4770488376955)"><circle r="4"></circle><title>descriptions</title><text x="8" y=".31em" class="shadow">descriptions</text><text x="8" y=".31em" class="">descriptions</text></g><g class="node type-element" transform="translate(1003.2408569153018,540.2501313822012)"><circle r="4"></circle><title>Name</title><text x="8" y=".31em" class="shadow">Name</text><text x="8" y=".31em" class="">Name</text></g><g class="node type-element" transform="translate(996.8726852091851,500.1831960975269)"><circle r="4"></circle><title>Address</title><text x="8" y=".31em" class="shadow">Address</text><text x="8" y=".31em" class="">Address</text></g><g class="node type-element" transform="translate(1007.519687386636,567.1532774499499)"><circle r="4"></circle><title>Email</title><text x="8" y=".31em" class="shadow">Email</text><text x="8" y=".31em" class="">Email</text></g><g class="node type-element" transform="translate(999.8047105761908,660.9682278646878)"><circle r="4"></circle><title>Organisation</title><text x="8" y=".31em" class="shadow">Organisation</text><text x="8" y=".31em" class="">Organisation</text></g><g class="node type-datcat" transform="translate(1120.5617607182396,488.99866757655377)"><circle r="4"></circle><title>contactFullName</title><text x="8" y=".31em" class="shadow">contactFullName</text><text x="8" y=".31em" class="">contactFullName</text></g><g class="node type-datcat" transform="translate(1113.8689056930289,600.745754048706)"><circle r="4"></circle><title>organization</title><text x="8" y=".31em" class="shadow">organization</text><text x="8" y=".31em" class="">organization</text></g><g class="node type-element" transform="translate(1010.7351523638849,450.90367594625656)"><circle r="4"></circle><title>Description</title><text x="8" y=".31em" class="shadow">Description</text><text x="8" y=".31em" class="">Description</text></g><g class="node type-component" transform="translate(155.05824033325848,600.4326651860357)"><circle r="4"></circle><title>LrtCollectionDetails</title><text x="8" y=".31em" class="shadow">LrtCollectionDetails</text><text x="8" y=".31em" class="">LrtCollectionDetails</text></g><g class="node type-profile" transform="translate(20,641.5300010223739)"><circle r="4"></circle><title>LrtInventoryResource</title><text x="8" y=".31em" class="shadow">LrtInventoryResource</text><text x="8" y=".31em" class="">LrtInventoryResource</text></g><g class="node type-component" transform="translate(157.27183233575664,651.8754910365736)"><circle r="4"></circle><title>LrtLexiconDetails</title><text x="8" y=".31em" class="shadow">LrtLexiconDetails</text><text x="8" y=".31em" class="">LrtLexiconDetails</text></g><g class="node type-component" transform="translate(154.59453197153533,699.7322011722434)"><circle r="4"></circle><title>LrtServiceDetails</title><text x="8" y=".31em" class="shadow">LrtServiceDetails</text><text x="8" y=".31em" class="">LrtServiceDetails</text></g><g class="node type-profile" transform="translate(20,542.921895377873)"><circle r="4"></circle><title>TITUS_metadata</title><text x="8" y=".31em" class="shadow">TITUS_metadata</text><text x="8" y=".31em" class="">TITUS_metadata</text></g><g class="node type-element" transform="translate(293.8407098097494,570.5744892294153)"><circle r="4"></circle><title>ResourceAccessLink</title><text x="8" y=".31em" class="shadow">ResourceAccessLink</text><text x="8" y=".31em" class="">ResourceAccessLink</text></g><g class="node type-element" transform="translate(297.3845072814542,536.4309538028625)"><circle r="4"></circle><title>ResourceAccessAvailability</title><text x="8" y=".31em" class="shadow">ResourceAccessAvailability</text><text x="8" y=".31em" class="">ResourceAccessAvailability</text></g><g class="node type-element" transform="translate(298.0052043172836,500.37968310517255)"><circle r="4"></circle><title>ResourceAccessDate</title><text x="8" y=".31em" class="shadow">ResourceAccessDate</text><text x="8" y=".31em" class="">ResourceAccessDate</text></g><g class="node type-element" transform="translate(295.2456402522367,465.4598681453137)"><circle r="4"></circle><title>ResourceAccessOwner</title><text x="8" y=".31em" class="shadow">ResourceAccessOwner</text><text x="8" y=".31em" class="">ResourceAccessOwner</text></g><g class="node type-element" transform="translate(290.102059275299,431.88755021420195)"><circle r="4"></circle><title>ResourceAccessPublisher</title><text x="8" y=".31em" class="shadow">ResourceAccessPublisher</text><text x="8" y=".31em" class="">ResourceAccessPublisher</text></g><g class="node type-component" transform="translate(199.2219259939712,144.69218442366864)"><circle r="4"></circle><title>Tool</title><text x="8" y=".31em" class="shadow">Tool</text><text x="8" y=".31em" class="">Tool</text></g><g class="node type-profile" transform="translate(20,54.054348745748136)"><circle r="4"></circle><title>ToolService</title><text x="8" y=".31em" class="shadow">ToolService</text><text x="8" y=".31em" class="">ToolService</text></g><g class="node type-element" transform="translate(575.1269782149132,281.1213066750701)"><circle r="4"></circle><title>Availability</title><text x="8" y=".31em" class="shadow">Availability</text><text x="8" y=".31em" class="">Availability</text></g><g class="node type-element" transform="translate(519.6378077716116,327.34521706834533)"><circle r="4"></circle><title>DistributionMedium</title><text x="8" y=".31em" class="shadow">DistributionMedium</text><text x="8" y=".31em" class="">DistributionMedium</text></g><g class="node type-element" transform="translate(525.8258947323272,137.69581092427808)"><circle r="4"></circle><title>CatalogueLink</title><text x="8" y=".31em" class="shadow">CatalogueLink</text><text x="8" y=".31em" class="">CatalogueLink</text></g><g class="node type-element" transform="translate(512.6050083319293,108.84770233834996)"><circle r="4"></circle><title>accessProtocol</title><text x="8" y=".31em" class="shadow">accessProtocol</text><text x="8" y=".31em" class="">accessProtocol</text></g><g class="node type-component" transform="translate(515.401543417616,69.02846846086982)"><circle r="4"></circle><title>DistributionType</title><text x="8" y=".31em" class="shadow">DistributionType</text><text x="8" y=".31em" class="">DistributionType</text></g><g class="node type-datcat" transform="translate(625.4574492070225,31.161847173509237)"><circle r="4"></circle><title>accessProtocol</title><text x="8" y=".31em" class="shadow">accessProtocol</text><text x="8" y=".31em" class="">accessProtocol</text></g><g class="node type-element" transform="translate(624.6906580577883,-48.97549982597068)"><circle r="4"></circle><title>distributionType</title><text x="8" y=".31em" class="shadow">distributionType</text><text x="8" y=".31em" class="">distributionType</text></g><g class="node type-element" transform="translate(629.7146172525803,-15.587157287966056)"><circle r="4"></circle><title>restriction</title><text x="8" y=".31em" class="shadow">restriction</text><text x="8" y=".31em" class="">restriction</text></g><g class="node type-datcat" transform="translate(739.8577362439082,-123.43300893563473)"><circle r="4"></circle><title>distributionType</title><text x="8" y=".31em" class="shadow">distributionType</text><text x="8" y=".31em" class="">distributionType</text></g><g class="node type-datcat" transform="translate(748.4913409112559,-74.47500113738442)"><circle r="4"></circle><title>DC-1956</title><text x="8" y=".31em" class="shadow">DC-1956</text><text x="8" y=".31em" class="">DC-1956</text></g></g><style type="text/css">
/*div#infovis-wrapper {border: 1px solid grey; margin: 20px; padding: 5px; height:450px; width:70%;}*/
 #infovis {height: 95%; width: 100%; overflow: auto;}
 
 #index-container, #detail-container, #navigate { overflow: auto;}
 
 #navigate { line-height: 2.5em;}
 #navigate select { margin-right: 0.5em; }
 #navigate label {padding: 0px 2px;}
 a.type-link { padding: 2px 4px;}
 
.block {
    border: 1px solid #999;
    /* background-color: rgba(180,180,240,0.6); */    
}
.detail{
  display: none;
}

.hide { display:none;}

.highlight,
.selected {
    font-weight: bold;
    background: #f66;    
}

.widget-slider {width: 80px;  display:inline-block; font-size: 70%;  margin: 6px 12px 0 2px;}

.detaildivs-wrapper {
float:right;
}

path.link {
  fill: none;
  stroke: #999;
}

path.link.highlight {
    stroke: #f66;
    stroke-width: 1.5px;
}

path.link.fade {
    stroke-opacity: 0.2;
}

circle.highlight {
    stroke: #f66;
    stroke-width: 1.5px;
}

.fade circle, circle.fade {
    opacity: 0.2;
}


.type-element circle {
  fill: #99f;
  stroke: #66a;
  stroke-width: 1px;
}


.type-profile circle {
  fill: #66a;
  stroke: #339;
}

.type-profile text{
  font-size: 12px;
  font-weight: bold;
}

.type-component circle {
  fill: #ddf;
  stroke: #99c;
}

.type-datcat circle {
  fill: #6a6;
  stroke: #393;
}

.type-datcat text{
  font-style: italic;
}


.highlight circle,
.selected circle {
    fill: #f66;    
}



circle.selected {
    fill: #f66;
    stroke-width: 2px;
}
text {
  font: 10px sans-serif;
/* pointer-events: none; */
}
text.shadow {
  stroke: #fff;
  stroke-width: 3px;
  stroke-opacity: .8;
}    
</style><style type="text/css">
/*div#infovis-wrapper {border: 1px solid grey; margin: 20px; padding: 5px; height:450px; width:70%;}*/
 #infovis {height: 95%; width: 100%; overflow: auto;}
 
 #index-container, #detail-container, #navigate { overflow: auto;}
 
 #navigate { line-height: 2.5em;}
 #navigate select { margin-right: 0.5em; }
 #navigate label {padding: 0px 2px;}
 a.type-link { padding: 2px 4px;}
 
.block {
    border: 1px solid #999;
    /* background-color: rgba(180,180,240,0.6); */    
}
.detail{
  display: none;
}

.hide { display:none;}

.highlight,
.selected {
    font-weight: bold;
    background: #f66;    
}

.widget-slider {width: 80px;  display:inline-block; font-size: 70%;  margin: 6px 12px 0 2px;}

.detaildivs-wrapper {
float:right;
}

path.link {
  fill: none;
  stroke: #999;
}

path.link.highlight {
    stroke: #f66;
    stroke-width: 1.5px;
}

path.link.fade {
    stroke-opacity: 0.2;
}

circle.highlight {
    stroke: #f66;
    stroke-width: 1.5px;
}

.fade circle, circle.fade {
    opacity: 0.2;
}


.type-element circle {
  fill: #99f;
  stroke: #66a;
  stroke-width: 1px;
}


.type-profile circle {
  fill: #66a;
  stroke: #339;
}

.type-profile text{
  font-size: 12px;
  font-weight: bold;
}

.type-component circle {
  fill: #ddf;
  stroke: #99c;
}

.type-datcat circle {
  fill: #6a6;
  stroke: #393;
}

.type-datcat text{
  font-style: italic;
}


.highlight circle,
.selected circle {
    fill: #f66;    
}



circle.selected {
    fill: #f66;
    stroke-width: 2px;
}
text {
  font: 10px sans-serif;
/* pointer-events: none; */
}
text.shadow {
  stroke: #fff;
  stroke-width: 3px;
  stroke-opacity: .8;
}    
</style></svg>