<svg width="1848.0546290679733" height="880.8827977308665" title="SMC Browser - export" version="1.1" viewBox="-10 -139 1848.0546290679733 880.8827977308665" xmlns="http://www.w3.org/2000/svg"><defs><marker id="uses" viewBox="0 -5 10 10" refX="15" refY="-1.5" markerWidth="6" markerHeight="6" orient="auto"><path d="M0,-3L10,0L0,3"></path></marker></defs><g><path class="link uses" marker-end="url(#uses)" d="M20,381.26846752356454L428.2392202417775,370.64967260010667"></path><path class="link uses" marker-end="url(#uses)" d="M20,381.26846752356454L229.77199341658218,398.23377002762516"></path><path class="link uses" marker-end="url(#uses)" d="M428.2392202417775,370.64967260010667L687.086347060558,366.211103684406"></path><path class="link uses" marker-end="url(#uses)" d="M428.2392202417775,370.64967260010667L1091.0033085235361,357.98558026339305"></path><path class="link uses" marker-end="url(#uses)" d="M687.086347060558,366.211103684406L1091.0033085235361,357.98558026339305"></path><path class="link uses" marker-end="url(#uses)" d="M229.77199341658218,398.23377002762516L405.34615306109794,434.88226968614345"></path><path class="link uses" marker-end="url(#uses)" d="M229.77199341658218,398.23377002762516L545.0814371588539,382.0546961541504"></path><path class="link uses" marker-end="url(#uses)" d="M229.77199341658218,398.23377002762516L403.0708978840814,342.89693603250385"></path><path class="link uses" marker-end="url(#uses)" d="M229.77199341658218,398.23377002762516L402.4534396983335,486.99411052579046"></path><path class="link uses" marker-end="url(#uses)" d="M229.77199341658218,398.23377002762516L394.1634884802581,307.73758548098095"></path><path class="link uses" marker-end="url(#uses)" d="M405.34615306109794,434.88226968614345L574.6614989191089,349.4567432305681"></path><path class="link uses" marker-end="url(#uses)" d="M545.0814371588539,382.0546961541504L1091.0033085235361,357.98558026339305"></path><path class="link uses" marker-end="url(#uses)" d="M403.0708978840814,342.89693603250385L570.3564515396874,244.56326246549042"></path><path class="link uses" marker-end="url(#uses)" d="M402.4534396983335,486.99411052579046L589.8073882794587,463.8813838616056"></path><path class="link uses" marker-end="url(#uses)" d="M589.8073882794587,463.8813838616056L748.3760225670782,364.9561713488573"></path><path class="link uses" marker-end="url(#uses)" d="M589.8073882794587,463.8813838616056L797.3213812784388,399.2541080268154"></path><path class="link uses" marker-end="url(#uses)" d="M589.8073882794587,463.8813838616056L782.3564741838487,507.90673510424165"></path><path class="link uses" marker-end="url(#uses)" d="M589.8073882794587,463.8813838616056L783.857386585634,484.61776634662806"></path><path class="link uses" marker-end="url(#uses)" d="M589.8073882794587,463.8813838616056L742.2945788299529,317.9800235053698"></path><path class="link uses" marker-end="url(#uses)" d="M748.3760225670782,364.9561713488573L901.9355813857802,229.83267571946047"></path><path class="link uses" marker-end="url(#uses)" d="M797.3213812784388,399.2541080268154L1091.0033085235361,357.98558026339305"></path><path class="link uses" marker-end="url(#uses)" d="M782.3564741838487,507.90673510424165L942.4425927924204,569.3772421422843"></path><path class="link uses" marker-end="url(#uses)" d="M782.3564741838487,507.90673510424165L1035.928243461989,522.4321253091441"></path><path class="link uses" marker-end="url(#uses)" d="M782.3564741838487,507.90673510424165L925.6669475887574,323.06203505632726"></path><path class="link uses" marker-end="url(#uses)" d="M942.4425927924204,569.3772421422843L1072.4322776210383,712.2674781824759"></path><path class="link uses" marker-end="url(#uses)" d="M942.4425927924204,569.3772421422843L1091.8779935961645,529.404565505004"></path><path class="link uses" marker-end="url(#uses)" d="M942.4425927924204,569.3772421422843L1089.6843770859211,433.2170561293706"></path><path class="link uses" marker-end="url(#uses)" d="M942.4425927924204,569.3772421422843L1085.9133338497415,647.1186862882053"></path><path class="link uses" marker-end="url(#uses)" d="M942.4425927924204,569.3772421422843L1080.0521428037257,687.4029337596994"></path><path class="link uses" marker-end="url(#uses)" d="M1091.8779935961645,529.404565505004L1091.0033085235361,357.98558026339305"></path><path class="link uses" marker-end="url(#uses)" d="M1089.6843770859211,433.2170561293706L1293.1116575460508,339.6829656749555"></path><path class="link uses" marker-end="url(#uses)" d="M1080.0521428037257,687.4029337596994L1035.928243461989,522.4321253091441"></path><path class="link uses" marker-end="url(#uses)" d="M1035.928243461989,522.4321253091441L1173.9836107388346,393.38264731387926"></path><path class="link uses" marker-end="url(#uses)" d="M1035.928243461989,522.4321253091441L1191.2753841887186,498.06097388920796"></path><path class="link uses" marker-end="url(#uses)" d="M1035.928243461989,522.4321253091441L1172.9362224581153,431.9796980609335"></path><path class="link uses" marker-end="url(#uses)" d="M1035.928243461989,522.4321253091441L1188.6900474435674,453.1334714020795"></path><path class="link uses" marker-end="url(#uses)" d="M1035.928243461989,522.4321253091441L1189.1016518938757,571.2578095805405"></path><path class="link uses" marker-end="url(#uses)" d="M1035.928243461989,522.4321253091441L1185.2899413948792,603.814288013168"></path><path class="link uses" marker-end="url(#uses)" d="M1035.928243461989,522.4321253091441L1180.5410324724348,630.2654971922783"></path><path class="link uses" marker-end="url(#uses)" d="M1035.928243461989,522.4321253091441L1174.2703807675146,673.5185136607895"></path><path class="link uses" marker-end="url(#uses)" d="M1035.928243461989,522.4321253091441L1167.6380997510596,654.1061720704179"></path><path class="link uses" marker-end="url(#uses)" d="M1035.928243461989,522.4321253091441L1210.6337556273345,531.9987670908779"></path><path class="link uses" marker-end="url(#uses)" d="M1191.2753841887186,498.06097388920796L1091.0033085235361,357.98558026339305"></path><path class="link uses" marker-end="url(#uses)" d="M1172.9362224581153,431.9796980609335L1293.1116575460508,339.6829656749555"></path><path class="link uses" marker-end="url(#uses)" d="M1174.2703807675146,673.5185136607895L1315.3227134824674,547.7573679280232"></path><path class="link uses" marker-end="url(#uses)" d="M1167.6380997510596,654.1061720704179L1316.3091904503233,575.8777597258332"></path><path class="link uses" marker-end="url(#uses)" d="M1210.6337556273345,531.9987670908779L1353.8074258707209,451.3932403642177"></path><path class="link uses" marker-end="url(#uses)" d="M1210.6337556273345,531.9987670908779L1488.9973843533623,518.3843157296476"></path><path class="link uses" marker-end="url(#uses)" d="M1316.3091904503233,575.8777597258332L1458.9913135326306,452.03786391843965"></path><path class="link uses" marker-end="url(#uses)" d="M1316.3091904503233,575.8777597258332L1384.0667446238162,393.63489321816246"></path><path class="link uses" marker-end="url(#uses)" d="M1316.3091904503233,575.8777597258332L1467.2433470383671,598.7618151299375"></path><path class="link uses" marker-end="url(#uses)" d="M1458.9913135326306,452.03786391843965L1615.916717709919,329.0996086850324"></path><path class="link uses" marker-end="url(#uses)" d="M1384.0667446238162,393.63489321816246L1091.0033085235361,357.98558026339305"></path><path class="link uses" marker-end="url(#uses)" d="M1353.8074258707209,451.3932403642177L1493.122824123631,337.000527089717"></path><path class="link uses" marker-end="url(#uses)" d="M1353.8074258707209,451.3932403642177L1500.9367533776813,379.2332825269203"></path><path class="link uses" marker-end="url(#uses)" d="M1493.122824123631,337.000527089717L1488.9973843533623,518.3843157296476"></path><path class="link uses" marker-end="url(#uses)" d="M1500.9367533776813,379.2332825269203L1632.0546290679733,254.6271659200297"></path><path class="link uses" marker-end="url(#uses)" d="M783.857386585634,484.61776634662806L942.4425927924204,569.3772421422843"></path><path class="link uses" marker-end="url(#uses)" d="M783.857386585634,484.61776634662806L1035.928243461989,522.4321253091441"></path><path class="link uses" marker-end="url(#uses)" d="M783.857386585634,484.61776634662806L933.6467472169819,348.1345938664167"></path><path class="link uses" marker-end="url(#uses)" d="M20,246.18289962048485L229.74265955022994,253.5551742326883"></path><path class="link uses" marker-end="url(#uses)" d="M229.74265955022994,253.5551742326883L407.46414616714475,253.85885255127016"></path><path class="link uses" marker-end="url(#uses)" d="M229.74265955022994,253.5551742326883L544.4281554740645,314.1596063815888"></path><path class="link uses" marker-end="url(#uses)" d="M229.74265955022994,253.5551742326883L401.21625686348614,193.77505381174893"></path><path class="link uses" marker-end="url(#uses)" d="M229.74265955022994,253.5551742326883L401.53671530425424,155.94913234138107"></path><path class="link uses" marker-end="url(#uses)" d="M229.74265955022994,253.5551742326883L394.1634884802581,307.73758548098095"></path><path class="link uses" marker-end="url(#uses)" d="M407.46414616714475,253.85885255127016L574.6614989191089,349.4567432305681"></path><path class="link uses" marker-end="url(#uses)" d="M544.4281554740645,314.1596063815888L1091.0033085235361,357.98558026339305"></path><path class="link uses" marker-end="url(#uses)" d="M401.21625686348614,193.77505381174893L570.3564515396874,244.56326246549042"></path><path class="link uses" marker-end="url(#uses)" d="M401.53671530425424,155.94913234138107L587.9516222529364,187.99349360268113"></path><path class="link uses" marker-end="url(#uses)" d="M587.9516222529364,187.99349360268113L746.4198456411458,107.81398692521898"></path><path class="link uses" marker-end="url(#uses)" d="M587.9516222529364,187.99349360268113L793.2976342520383,294.84593584169653"></path><path class="link uses" marker-end="url(#uses)" d="M587.9516222529364,187.99349360268113L779.7555422160519,151.7260228650543"></path><path class="link uses" marker-end="url(#uses)" d="M587.9516222529364,187.99349360268113L783.5142124514941,182.94520460974385"></path><path class="link uses" marker-end="url(#uses)" d="M587.9516222529364,187.99349360268113L742.2945788299529,317.9800235053698"></path><path class="link uses" marker-end="url(#uses)" d="M746.4198456411458,107.81398692521898L901.9355813857802,229.83267571946047"></path><path class="link uses" marker-end="url(#uses)" d="M793.2976342520383,294.84593584169653L1091.0033085235361,357.98558026339305"></path><path class="link uses" marker-end="url(#uses)" d="M779.7555422160519,151.7260228650543L943.8188476144328,97.57410454852584"></path><path class="link uses" marker-end="url(#uses)" d="M779.7555422160519,151.7260228650543L1030.493932545613,123.35240273661893"></path><path class="link uses" marker-end="url(#uses)" d="M779.7555422160519,151.7260228650543L925.6669475887574,323.06203505632726"></path><path class="link uses" marker-end="url(#uses)" d="M943.8188476144328,97.57410454852584L1098.7755224122493,162.46495791513507"></path><path class="link uses" marker-end="url(#uses)" d="M943.8188476144328,97.57410454852584L1082.567230511222,190.2425381785995"></path><path class="link uses" marker-end="url(#uses)" d="M943.8188476144328,97.57410454852584L1090.7648342850953,241.88843166260446"></path><path class="link uses" marker-end="url(#uses)" d="M943.8188476144328,97.57410454852584L1079.9047460845438,-54.5458879190716"></path><path class="link uses" marker-end="url(#uses)" d="M943.8188476144328,97.57410454852584L1123.4014509568565,61.36016205607603"></path><path class="link uses" marker-end="url(#uses)" d="M943.8188476144328,97.57410454852584L1087.2220885395245,-25.00037663861739"></path><path class="link uses" marker-end="url(#uses)" d="M943.8188476144328,97.57410454852584L1069.0794195336753,272.99987315013055"></path><path class="link uses" marker-end="url(#uses)" d="M943.8188476144328,97.57410454852584L1082.9227585099682,4.952200988217365"></path><path class="link uses" marker-end="url(#uses)" d="M1098.7755224122493,162.46495791513507L1299.5716405504847,213.82307824966986"></path><path class="link uses" marker-end="url(#uses)" d="M1082.567230511222,190.2425381785995L1091.0033085235361,357.98558026339305"></path><path class="link uses" marker-end="url(#uses)" d="M1090.7648342850953,241.88843166260446L1293.1116575460508,339.6829656749555"></path><path class="link uses" marker-end="url(#uses)" d="M1079.9047460845438,-54.5458879190716L1278.2301273684582,-108.61531954839069"></path><path class="link uses" marker-end="url(#uses)" d="M1123.4014509568565,61.36016205607603L1412.6904667324036,53.34798340841244"></path><path class="link uses" marker-end="url(#uses)" d="M1087.2220885395245,-25.00037663861739L1292.1911867582705,-42.595623189890716"></path><path class="link uses" marker-end="url(#uses)" d="M1069.0794195336753,272.99987315013055L1030.493932545613,123.35240273661893"></path><path class="link uses" marker-end="url(#uses)" d="M1030.493932545613,123.35240273661893L1185.589046759676,104.44198648256179"></path><path class="link uses" marker-end="url(#uses)" d="M1030.493932545613,123.35240273661893L1180.7225216222362,205.75044771957826"></path><path class="link uses" marker-end="url(#uses)" d="M1030.493932545613,123.35240273661893L1159.8474250604286,258.9193088716478"></path><path class="link uses" marker-end="url(#uses)" d="M1030.493932545613,123.35240273661893L1162.3020147017892,-9.883684290553239"></path><path class="link uses" marker-end="url(#uses)" d="M1030.493932545613,123.35240273661893L1186.7594004204498,162.44729994453363"></path><path class="link uses" marker-end="url(#uses)" d="M1030.493932545613,123.35240273661893L1196.5057660047887,44.68151265759904"></path><path class="link uses" marker-end="url(#uses)" d="M1030.493932545613,123.35240273661893L1182.797414318324,76.7624820860346"></path><path class="link uses" marker-end="url(#uses)" d="M1030.493932545613,123.35240273661893L1177.3524902095905,15.62791930057459"></path><path class="link uses" marker-end="url(#uses)" d="M1030.493932545613,123.35240273661893L1175.1226960545134,236.99817409670186"></path><path class="link uses" marker-end="url(#uses)" d="M1185.589046759676,104.44198648256179L1299.5716405504847,213.82307824966986"></path><path class="link uses" marker-end="url(#uses)" d="M1180.7225216222362,205.75044771957826L1091.0033085235361,357.98558026339305"></path><path class="link uses" marker-end="url(#uses)" d="M1159.8474250604286,258.9193088716478L1293.1116575460508,339.6829656749555"></path><path class="link uses" marker-end="url(#uses)" d="M1162.3020147017892,-9.883684290553239L1278.2301273684582,-108.61531954839069"></path><path class="link uses" marker-end="url(#uses)" d="M1186.7594004204498,162.44729994453363L1330.9871977396565,261.8557208636988"></path><path class="link uses" marker-end="url(#uses)" d="M1196.5057660047887,44.68151265759904L1412.6904667324036,53.34798340841244"></path><path class="link uses" marker-end="url(#uses)" d="M1182.797414318324,76.7624820860346L1292.1911867582705,-42.595623189890716"></path><path class="link uses" marker-end="url(#uses)" d="M1177.3524902095905,15.62791930057459L1321.0685462719407,129.3791272962621"></path><path class="link uses" marker-end="url(#uses)" d="M1321.0685462719407,129.3791272962621L1474.9887243634228,185.503906875716"></path><path class="link uses" marker-end="url(#uses)" d="M1321.0685462719407,129.3791272962621L1386.5644875618934,315.7103939834766"></path><path class="link uses" marker-end="url(#uses)" d="M1321.0685462719407,129.3791272962621L1464.9277768349093,218.2310916357111"></path><path class="link uses" marker-end="url(#uses)" d="M1321.0685462719407,129.3791272962621L1457.7870805594985,251.21843484693204"></path><path class="link uses" marker-end="url(#uses)" d="M1474.9887243634228,185.503906875716L1615.916717709919,329.0996086850324"></path><path class="link uses" marker-end="url(#uses)" d="M1386.5644875618934,315.7103939834766L1091.0033085235361,357.98558026339305"></path><path class="link uses" marker-end="url(#uses)" d="M1464.9277768349093,218.2310916357111L1412.6904667324036,53.34798340841244"></path><path class="link uses" marker-end="url(#uses)" d="M783.5142124514941,182.94520460974385L943.8188476144328,97.57410454852584"></path><path class="link uses" marker-end="url(#uses)" d="M783.5142124514941,182.94520460974385L1030.493932545613,123.35240273661893"></path><path class="link uses" marker-end="url(#uses)" d="M783.5142124514941,182.94520460974385L933.6467472169819,348.1345938664167"></path><path class="link uses" marker-end="url(#uses)" d="M206.95451066866713,319.6887936425524L394.1634884802581,307.73758548098095"></path><path class="link uses" marker-end="url(#uses)" d="M20,315.9048770021716L206.95451066866713,319.6887936425524"></path></g><g><g class="node type-profile selected" transform="translate(20,381.26846752356454)"><circle r="4"></circle><title>BASWebService</title><text x="8" y=".31em" class="shadow">BASWebService</text><text x="8" y=".31em">BASWebService</text></g><g class="node type-profile selected" transform="translate(20,246.18289962048485)"><circle r="4"></circle><title>CLARINWebService</title><text x="8" y=".31em" class="shadow">CLARINWebService</text><text x="8" y=".31em" class="">CLARINWebService</text></g><g class="node type-datcat selected" transform="translate(394.1634884802581,307.73758548098095)"><circle r="4"></circle><title>DC-4159</title><text x="8" y=".31em" class="shadow">DC-4159</text><text x="8" y=".31em">DC-4159</text></g><g class="node type-component" transform="translate(428.2392202417775,370.64967260010667)"><circle r="4"></circle><title>Description</title><text x="8" y=".31em" class="shadow">Description</text><text x="8" y=".31em" class="">Description</text></g><g class="node type-component" transform="translate(229.77199341658218,398.23377002762516)"><circle r="4"></circle><title>Service</title><text x="8" y=".31em" class="shadow">Service</text><text x="8" y=".31em">Service</text></g><g class="node type-element" transform="translate(687.086347060558,366.211103684406)"><circle r="4"></circle><title>Description</title><text x="8" y=".31em" class="shadow">Description</text><text x="8" y=".31em" class="">Description</text></g><g class="node type-datcat" transform="translate(1091.0033085235361,357.98558026339305)"><circle r="4"></circle><title>description</title><text x="8" y=".31em" class="shadow">description</text><text x="8" y=".31em">description</text></g><g class="node type-element" transform="translate(405.34615306109794,434.88226968614345)"><circle r="4"></circle><title>Name</title><text x="8" y=".31em" class="shadow">Name</text><text x="8" y=".31em">Name</text></g><g class="node type-element" transform="translate(545.0814371588539,382.0546961541504)"><circle r="4"></circle><title>Description</title><text x="8" y=".31em" class="shadow">Description</text><text x="8" y=".31em">Description</text></g><g class="node type-component" transform="translate(403.0708978840814,342.89693603250385)"><circle r="4"></circle><title>ServiceDescriptionLocation</title><text x="8" y=".31em" class="shadow">ServiceDescriptionLocation</text><text x="8" y=".31em">ServiceDescriptionLocation</text></g><g class="node type-component" transform="translate(402.4534396983335,486.99411052579046)"><circle r="4"></circle><title>Operations</title><text x="8" y=".31em" class="shadow">Operations</text><text x="8" y=".31em">Operations</text></g><g class="node type-datcat" transform="translate(574.6614989191089,349.4567432305681)"><circle r="4"></circle><title>webServiceName</title><text x="8" y=".31em" class="shadow">webServiceName</text><text x="8" y=".31em">webServiceName</text></g><g class="node type-datcat" transform="translate(570.3564515396874,244.56326246549042)"><circle r="4"></circle><title>DC-4161</title><text x="8" y=".31em" class="shadow">DC-4161</text><text x="8" y=".31em">DC-4161</text></g><g class="node type-component" transform="translate(589.8073882794587,463.8813838616056)"><circle r="4"></circle><title>Operation</title><text x="8" y=".31em" class="shadow">Operation</text><text x="8" y=".31em">Operation</text></g><g class="node type-element" transform="translate(748.3760225670782,364.9561713488573)"><circle r="4"></circle><title>Name</title><text x="8" y=".31em" class="shadow">Name</text><text x="8" y=".31em">Name</text></g><g class="node type-element" transform="translate(797.3213812784388,399.2541080268154)"><circle r="4"></circle><title>Description</title><text x="8" y=".31em" class="shadow">Description</text><text x="8" y=".31em">Description</text></g><g class="node type-component" transform="translate(782.3564741838487,507.90673510424165)"><circle r="4"></circle><title>Input</title><text x="8" y=".31em" class="shadow">Input</text><text x="8" y=".31em">Input</text></g><g class="node type-component" transform="translate(783.857386585634,484.61776634662806)"><circle r="4"></circle><title>Output</title><text x="8" y=".31em" class="shadow">Output</text><text x="8" y=".31em">Output</text></g><g class="node type-datcat" transform="translate(742.2945788299529,317.9800235053698)"><circle r="4"></circle><title>DC-4175</title><text x="8" y=".31em" class="shadow">DC-4175</text><text x="8" y=".31em">DC-4175</text></g><g class="node type-datcat" transform="translate(901.9355813857802,229.83267571946047)"><circle r="4"></circle><title>DC-4176</title><text x="8" y=".31em" class="shadow">DC-4176</text><text x="8" y=".31em">DC-4176</text></g><g class="node type-component" transform="translate(942.4425927924204,569.3772421422843)"><circle r="4"></circle><title>ParameterGroup</title><text x="8" y=".31em" class="shadow">ParameterGroup</text><text x="8" y=".31em">ParameterGroup</text></g><g class="node type-component" transform="translate(1035.928243461989,522.4321253091441)"><circle r="4"></circle><title>Parameter</title><text x="8" y=".31em" class="shadow">Parameter</text><text x="8" y=".31em">Parameter</text></g><g class="node type-datcat" transform="translate(925.6669475887574,323.06203505632726)"><circle r="4"></circle><title>DC-4177</title><text x="8" y=".31em" class="shadow">DC-4177</text><text x="8" y=".31em">DC-4177</text></g><g class="node type-element" transform="translate(1072.4322776210383,712.2674781824759)"><circle r="4"></circle><title>Name</title><text x="8" y=".31em" class="shadow">Name</text><text x="8" y=".31em">Name</text></g><g class="node type-element" transform="translate(1091.8779935961645,529.404565505004)"><circle r="4"></circle><title>Description</title><text x="8" y=".31em" class="shadow">Description</text><text x="8" y=".31em">Description</text></g><g class="node type-element" transform="translate(1089.6843770859211,433.2170561293706)"><circle r="4"></circle><title>MIMEType</title><text x="8" y=".31em" class="shadow">MIMEType</text><text x="8" y=".31em">MIMEType</text></g><g class="node type-element" transform="translate(1085.9133338497415,647.1186862882053)"><circle r="4"></circle><title>DataType</title><text x="8" y=".31em" class="shadow">DataType</text><text x="8" y=".31em">DataType</text></g><g class="node type-component" transform="translate(1080.0521428037257,687.4029337596994)"><circle r="4"></circle><title>Parameters</title><text x="8" y=".31em" class="shadow">Parameters</text><text x="8" y=".31em">Parameters</text></g><g class="node type-datcat" transform="translate(1293.1116575460508,339.6829656749555)"><circle r="4"></circle><title>mimeType</title><text x="8" y=".31em" class="shadow">mimeType</text><text x="8" y=".31em">mimeType</text></g><g class="node type-element" transform="translate(1173.9836107388346,393.38264731387926)"><circle r="4"></circle><title>Name</title><text x="8" y=".31em" class="shadow">Name</text><text x="8" y=".31em">Name</text></g><g class="node type-element" transform="translate(1191.2753841887186,498.06097388920796)"><circle r="4"></circle><title>Description</title><text x="8" y=".31em" class="shadow">Description</text><text x="8" y=".31em">Description</text></g><g class="node type-element" transform="translate(1172.9362224581153,431.9796980609335)"><circle r="4"></circle><title>MIMEType</title><text x="8" y=".31em" class="shadow">MIMEType</text><text x="8" y=".31em">MIMEType</text></g><g class="node type-element" transform="translate(1188.6900474435674,453.1334714020795)"><circle r="4"></circle><title>DataType</title><text x="8" y=".31em" class="shadow">DataType</text><text x="8" y=".31em">DataType</text></g><g class="node type-element" transform="translate(1189.1016518938757,571.2578095805405)"><circle r="4"></circle><title>isConfigurationParameter</title><text x="8" y=".31em" class="shadow">isConfigurationParameter</text><text x="8" y=".31em">isConfigurationParameter</text></g><g class="node type-element" transform="translate(1185.2899413948792,603.814288013168)"><circle r="4"></circle><title>DataCategory</title><text x="8" y=".31em" class="shadow">DataCategory</text><text x="8" y=".31em">DataCategory</text></g><g class="node type-element" transform="translate(1180.5410324724348,630.2654971922783)"><circle r="4"></circle><title>SemanticType</title><text x="8" y=".31em" class="shadow">SemanticType</text><text x="8" y=".31em">SemanticType</text></g><g class="node type-element" transform="translate(1174.2703807675146,673.5185136607895)"><circle r="4"></circle><title>Default</title><text x="8" y=".31em" class="shadow">Default</text><text x="8" y=".31em">Default</text></g><g class="node type-component" transform="translate(1167.6380997510596,654.1061720704179)"><circle r="4"></circle><title>Values</title><text x="8" y=".31em" class="shadow">Values</text><text x="8" y=".31em">Values</text></g><g class="node type-component" transform="translate(1210.6337556273345,531.9987670908779)"><circle r="4"></circle><title>MaxFileSize</title><text x="8" y=".31em" class="shadow">MaxFileSize</text><text x="8" y=".31em">MaxFileSize</text></g><g class="node type-datcat" transform="translate(1315.3227134824674,547.7573679280232)"><circle r="4"></circle><title>DC-1655</title><text x="8" y=".31em" class="shadow">DC-1655</text><text x="8" y=".31em">DC-1655</text></g><g class="node type-component" transform="translate(1316.3091904503233,575.8777597258332)"><circle r="4"></circle><title>ParameterValue</title><text x="8" y=".31em" class="shadow">ParameterValue</text><text x="8" y=".31em">ParameterValue</text></g><g class="node type-component" transform="translate(1353.8074258707209,451.3932403642177)"><circle r="4"></circle><title>TotalSize</title><text x="8" y=".31em" class="shadow">TotalSize</text><text x="8" y=".31em">TotalSize</text></g><g class="node type-datcat" transform="translate(1488.9973843533623,518.3843157296476)"><circle r="4"></circle><title>size</title><text x="8" y=".31em" class="shadow">size</text><text x="8" y=".31em">size</text></g><g class="node type-element" transform="translate(1458.9913135326306,452.03786391843965)"><circle r="4"></circle><title>Value</title><text x="8" y=".31em" class="shadow">Value</text><text x="8" y=".31em">Value</text></g><g class="node type-element" transform="translate(1384.0667446238162,393.63489321816246)"><circle r="4"></circle><title>Description</title><text x="8" y=".31em" class="shadow">Description</text><text x="8" y=".31em">Description</text></g><g class="node type-element" transform="translate(1467.2433470383671,598.7618151299375)"><circle r="4"></circle><title>DataCategory</title><text x="8" y=".31em" class="shadow">DataCategory</text><text x="8" y=".31em">DataCategory</text></g><g class="node type-datcat" transform="translate(1615.916717709919,329.0996086850324)"><circle r="4"></circle><title>value</title><text x="8" y=".31em" class="shadow">value</text><text x="8" y=".31em">value</text></g><g class="node type-element" transform="translate(1493.122824123631,337.000527089717)"><circle r="4"></circle><title>Number</title><text x="8" y=".31em" class="shadow">Number</text><text x="8" y=".31em">Number</text></g><g class="node type-element" transform="translate(1500.9367533776813,379.2332825269203)"><circle r="4"></circle><title>SizeUnit</title><text x="8" y=".31em" class="shadow">SizeUnit</text><text x="8" y=".31em">SizeUnit</text></g><g class="node type-datcat" transform="translate(1632.0546290679733,254.6271659200297)"><circle r="4"></circle><title>sizeUnit</title><text x="8" y=".31em" class="shadow">sizeUnit</text><text x="8" y=".31em">sizeUnit</text></g><g class="node type-datcat" transform="translate(933.6467472169819,348.1345938664167)"><circle r="4"></circle><title>DC-4178</title><text x="8" y=".31em" class="shadow">DC-4178</text><text x="8" y=".31em">DC-4178</text></g><g class="node type-component" transform="translate(229.74265955022994,253.5551742326883)"><circle r="4"></circle><title>Service</title><text x="8" y=".31em" class="shadow">Service</text><text x="8" y=".31em" class="">Service</text></g><g class="node type-element" transform="translate(407.46414616714475,253.85885255127016)"><circle r="4"></circle><title>Name</title><text x="8" y=".31em" class="shadow">Name</text><text x="8" y=".31em" class="">Name</text></g><g class="node type-element" transform="translate(544.4281554740645,314.1596063815888)"><circle r="4"></circle><title>Description</title><text x="8" y=".31em" class="shadow">Description</text><text x="8" y=".31em" class="">Description</text></g><g class="node type-component" transform="translate(401.21625686348614,193.77505381174893)"><circle r="4"></circle><title>ServiceDescriptionLocation</title><text x="8" y=".31em" class="shadow">ServiceDescriptionLocation</text><text x="8" y=".31em" class="">ServiceDescriptionLocation</text></g><g class="node type-component" transform="translate(401.53671530425424,155.94913234138107)"><circle r="4"></circle><title>Operations</title><text x="8" y=".31em" class="shadow">Operations</text><text x="8" y=".31em" class="">Operations</text></g><g class="node type-component" transform="translate(587.9516222529364,187.99349360268113)"><circle r="4"></circle><title>Operation</title><text x="8" y=".31em" class="shadow">Operation</text><text x="8" y=".31em" class="">Operation</text></g><g class="node type-element" transform="translate(746.4198456411458,107.81398692521898)"><circle r="4"></circle><title>Name</title><text x="8" y=".31em" class="shadow">Name</text><text x="8" y=".31em" class="">Name</text></g><g class="node type-element" transform="translate(793.2976342520383,294.84593584169653)"><circle r="4"></circle><title>Description</title><text x="8" y=".31em" class="shadow">Description</text><text x="8" y=".31em" class="">Description</text></g><g class="node type-component" transform="translate(779.7555422160519,151.7260228650543)"><circle r="4"></circle><title>Input</title><text x="8" y=".31em" class="shadow">Input</text><text x="8" y=".31em" class="">Input</text></g><g class="node type-component" transform="translate(783.5142124514941,182.94520460974385)"><circle r="4"></circle><title>Output</title><text x="8" y=".31em" class="shadow">Output</text><text x="8" y=".31em" class="">Output</text></g><g class="node type-component" transform="translate(943.8188476144328,97.57410454852584)"><circle r="4"></circle><title>ParameterGroup</title><text x="8" y=".31em" class="shadow">ParameterGroup</text><text x="8" y=".31em" class="">ParameterGroup</text></g><g class="node type-component" transform="translate(1030.493932545613,123.35240273661893)"><circle r="4"></circle><title>Parameter</title><text x="8" y=".31em" class="shadow">Parameter</text><text x="8" y=".31em" class="">Parameter</text></g><g class="node type-element" transform="translate(1098.7755224122493,162.46495791513507)"><circle r="4"></circle><title>Name</title><text x="8" y=".31em" class="shadow">Name</text><text x="8" y=".31em" class="">Name</text></g><g class="node type-element" transform="translate(1082.567230511222,190.2425381785995)"><circle r="4"></circle><title>Description</title><text x="8" y=".31em" class="shadow">Description</text><text x="8" y=".31em" class="">Description</text></g><g class="node type-element" transform="translate(1090.7648342850953,241.88843166260446)"><circle r="4"></circle><title>MIMEType</title><text x="8" y=".31em" class="shadow">MIMEType</text><text x="8" y=".31em" class="">MIMEType</text></g><g class="node type-element" transform="translate(1079.9047460845438,-54.5458879190716)"><circle r="4"></circle><title>DataType</title><text x="8" y=".31em" class="shadow">DataType</text><text x="8" y=".31em" class="">DataType</text></g><g class="node type-element" transform="translate(1123.4014509568565,61.36016205607603)"><circle r="4"></circle><title>DataCategory</title><text x="8" y=".31em" class="shadow">DataCategory</text><text x="8" y=".31em" class="">DataCategory</text></g><g class="node type-element" transform="translate(1087.2220885395245,-25.00037663861739)"><circle r="4"></circle><title>SemanticType</title><text x="8" y=".31em" class="shadow">SemanticType</text><text x="8" y=".31em" class="">SemanticType</text></g><g class="node type-component" transform="translate(1069.0794195336753,272.99987315013055)"><circle r="4"></circle><title>Parameters</title><text x="8" y=".31em" class="shadow">Parameters</text><text x="8" y=".31em" class="">Parameters</text></g><g class="node type-datcat" transform="translate(1082.9227585099682,4.952200988217365)"><circle r="4"></circle><title>DC-4179</title><text x="8" y=".31em" class="shadow">DC-4179</text><text x="8" y=".31em" class="">DC-4179</text></g><g class="node type-datcat" transform="translate(1299.5716405504847,213.82307824966986)"><circle r="4"></circle><title>DC-4180</title><text x="8" y=".31em" class="shadow">DC-4180</text><text x="8" y=".31em" class="">DC-4180</text></g><g class="node type-datcat" transform="translate(1278.2301273684582,-108.61531954839069)"><circle r="4"></circle><title>DC-4181</title><text x="8" y=".31em" class="shadow">DC-4181</text><text x="8" y=".31em" class="">DC-4181</text></g><g class="node type-datcat" transform="translate(1412.6904667324036,53.34798340841244)"><circle r="4"></circle><title>DC-4182</title><text x="8" y=".31em" class="shadow">DC-4182</text><text x="8" y=".31em" class="">DC-4182</text></g><g class="node type-datcat" transform="translate(1292.1911867582705,-42.595623189890716)"><circle r="4"></circle><title>DC-4183</title><text x="8" y=".31em" class="shadow">DC-4183</text><text x="8" y=".31em" class="">DC-4183</text></g><g class="node type-element" transform="translate(1185.589046759676,104.44198648256179)"><circle r="4"></circle><title>Name</title><text x="8" y=".31em" class="shadow">Name</text><text x="8" y=".31em" class="">Name</text></g><g class="node type-element" transform="translate(1180.7225216222362,205.75044771957826)"><circle r="4"></circle><title>Description</title><text x="8" y=".31em" class="shadow">Description</text><text x="8" y=".31em" class="">Description</text></g><g class="node type-element" transform="translate(1159.8474250604286,258.9193088716478)"><circle r="4"></circle><title>MIMEType</title><text x="8" y=".31em" class="shadow">MIMEType</text><text x="8" y=".31em" class="">MIMEType</text></g><g class="node type-element" transform="translate(1162.3020147017892,-9.883684290553239)"><circle r="4"></circle><title>DataType</title><text x="8" y=".31em" class="shadow">DataType</text><text x="8" y=".31em" class="">DataType</text></g><g class="node type-element" transform="translate(1186.7594004204498,162.44729994453363)"><circle r="4"></circle><title>isConfigurationParameter</title><text x="8" y=".31em" class="shadow">isConfigurationParameter</text><text x="8" y=".31em" class="">isConfigurationParameter</text></g><g class="node type-element" transform="translate(1196.5057660047887,44.68151265759904)"><circle r="4"></circle><title>DataCategory</title><text x="8" y=".31em" class="shadow">DataCategory</text><text x="8" y=".31em" class="">DataCategory</text></g><g class="node type-element" transform="translate(1182.797414318324,76.7624820860346)"><circle r="4"></circle><title>SemanticType</title><text x="8" y=".31em" class="shadow">SemanticType</text><text x="8" y=".31em" class="">SemanticType</text></g><g class="node type-component" transform="translate(1177.3524902095905,15.62791930057459)"><circle r="4"></circle><title>Values</title><text x="8" y=".31em" class="shadow">Values</text><text x="8" y=".31em" class="">Values</text></g><g class="node type-datcat" transform="translate(1175.1226960545134,236.99817409670186)"><circle r="4"></circle><title>DC-4184</title><text x="8" y=".31em" class="shadow">DC-4184</text><text x="8" y=".31em" class="">DC-4184</text></g><g class="node type-datcat" transform="translate(1330.9871977396565,261.8557208636988)"><circle r="4"></circle><title>DC-4185</title><text x="8" y=".31em" class="shadow">DC-4185</text><text x="8" y=".31em" class="">DC-4185</text></g><g class="node type-component" transform="translate(1321.0685462719407,129.3791272962621)"><circle r="4"></circle><title>ParameterValue</title><text x="8" y=".31em" class="shadow">ParameterValue</text><text x="8" y=".31em" class="">ParameterValue</text></g><g class="node type-element" transform="translate(1474.9887243634228,185.503906875716)"><circle r="4"></circle><title>Value</title><text x="8" y=".31em" class="shadow">Value</text><text x="8" y=".31em" class="">Value</text></g><g class="node type-element" transform="translate(1386.5644875618934,315.7103939834766)"><circle r="4"></circle><title>Description</title><text x="8" y=".31em" class="shadow">Description</text><text x="8" y=".31em" class="">Description</text></g><g class="node type-element" transform="translate(1464.9277768349093,218.2310916357111)"><circle r="4"></circle><title>DataCategory</title><text x="8" y=".31em" class="shadow">DataCategory</text><text x="8" y=".31em" class="">DataCategory</text></g><g class="node type-datcat" transform="translate(1457.7870805594985,251.21843484693204)"><circle r="4"></circle><title>DC-4186</title><text x="8" y=".31em" class="shadow">DC-4186</text><text x="8" y=".31em" class="">DC-4186</text></g><g class="node type-component" transform="translate(206.95451066866713,319.6887936425524)"><circle r="4"></circle><title>Service</title><text x="8" y=".31em" class="shadow">Service</text><text x="8" y=".31em" class="">Service</text></g><g class="node type-profile" transform="translate(20,315.9048770021716)"><circle r="4"></circle><title>ToolService</title><text x="8" y=".31em" class="shadow">ToolService</text><text x="8" y=".31em" class="">ToolService</text></g></g><style type="text/css">
/*div#infovis-wrapper {border: 1px solid grey; margin: 20px; padding: 5px; height:450px; width:70%;}*/
 #infovis {height: 95%; width: 100%; overflow: auto;}
 
 #index-container, #detail-container, #navigate { overflow: auto;}
 
 #navigate { line-height: 2.5em;}
 #navigate select { margin-right: 0.5em; }
 #navigate label {padding: 0px 2px;}
 a.type-link { padding: 2px 4px;}
 
.block {
    border: 1px solid #999;
    /* background-color: rgba(180,180,240,0.6); */    
}
.detail{
  display: none;
}

.hide { display:none;}

.highlight,
.selected {
    font-weight: bold;
    background: #f66;    
}

.widget-slider {width: 80px;  display:inline-block; font-size: 70%;  margin: 6px 12px 0 2px;}

.detaildivs-wrapper {
float:right;
}

path.link {
  fill: none;
  stroke: #999;
}

path.link.highlight {
    stroke: #f66;
    stroke-width: 1.5px;
}

path.link.fade {
    stroke-opacity: 0.2;
}

circle.highlight {
    stroke: #f66;
    stroke-width: 1.5px;
}

.fade circle, circle.fade {
    opacity: 0.2;
}


.type-element circle {
  fill: #99f;
  stroke: #66a;
  stroke-width: 1px;
}


.type-profile circle {
  fill: #66a;
  stroke: #339;
}

.type-profile text{
  font-size: 12px;
  font-weight: bold;
}

.type-component circle {
  fill: #ddf;
  stroke: #99c;
}

.type-datcat circle {
  fill: #6a6;
  stroke: #393;
}

.type-datcat text{
  font-style: italic;
}


.highlight circle,
.selected circle {
    fill: #f66;    
}



circle.selected {
    fill: #f66;
    stroke-width: 2px;
}
text {
  font: 10px sans-serif;
/* pointer-events: none; */
}
text.shadow {
  stroke: #fff;
  stroke-width: 3px;
  stroke-opacity: .8;
}    
</style></svg>