<?xml version="1.0" encoding="UTF-8" standalone="no"?>
<!DOCTYPE svg PUBLIC "-//W3C//DTD SVG 1.1//EN"
 "http://www.w3.org/Graphics/SVG/1.1/DTD/svg11.dtd">
<!-- Generated by graphviz version 2.22.2 (20090313.1817)
 -->
<!-- Title: build Pages: 1 -->
<svg width="2354pt" height="1120pt"
 viewBox="0.00 0.00 2354.00 1120.44" xmlns="http://www.w3.org/2000/svg" xmlns:xlink="http://www.w3.org/1999/xlink">
<g id="graph1" class="graph" transform="scale(1 1) rotate(0) translate(4 1116.44)">
<title>build</title>
<polygon fill="white" stroke="white" points="-4,5 -4,-1116.44 2351,-1116.44 2351,5 -4,5"/>
<text text-anchor="middle" x="1173" y="-8.4" font-family="Times Roman,serif" font-size="14.00">SMC init &#45; build&#45;info</text>
<g id="graph2" class="cluster"><title>cluster_xsl_dir</title>
<polygon fill="none" stroke="black" points="1140,-329.436 1140,-676.436 1386,-676.436 1386,-329.436 1140,-329.436"/>
<text text-anchor="middle" x="1263" y="-659.836" font-family="Times Roman,serif" font-size="14.00">xsl.dir</text>
</g>
<g id="graph3" class="cluster"><title>cluster_dataset_xsl_dir</title>
<polygon fill="none" stroke="black" points="1898,-839.436 1898,-916.436 2084,-916.436 2084,-839.436 1898,-839.436"/>
<text text-anchor="middle" x="1991" y="-899.836" font-family="Times Roman,serif" font-size="14.00">dataset.xsl.dir</text>
</g>
<g id="graph4" class="cluster"><title>cluster_legend</title>
<polygon fill="none" stroke="black" points="22,-347.436 22,-424.436 325,-424.436 325,-347.436 22,-347.436"/>
<text text-anchor="middle" x="173.5" y="-407.836" font-family="Times Roman,serif" font-size="14.00">legend</text>
</g>
<!-- property -->
<g id="node1" class="node"><title>property</title>
<text text-anchor="middle" x="65" y="-369.336" font-family="Times Roman,serif" font-size="14.00">property</text>
</g>
<!-- target -->
<g id="node20" class="node"><title>target</title>
<polygon fill="none" stroke="black" points="317,-391.436 263,-391.436 263,-355.436 317,-355.436 317,-391.436"/>
<text text-anchor="middle" x="290" y="-369.336" font-family="Times Roman,serif" font-size="14.00">target</text>
</g>
<!-- property&#45;&gt;target -->
<!-- scripts_dir -->
<g id="node2" class="node"><title>scripts_dir</title>
<text text-anchor="middle" x="65" y="-530.336" font-family="Times Roman,serif" font-size="14.00">scripts.dir</text>
</g>
<!-- cache_dir -->
<g id="node3" class="node"><title>cache_dir</title>
<text text-anchor="middle" x="65" y="-626.336" font-family="Times Roman,serif" font-size="14.00">cache.dir</text>
</g>
<!-- out_dir -->
<g id="node4" class="node"><title>out_dir</title>
<text text-anchor="middle" x="65" y="-701.336" font-family="Times Roman,serif" font-size="14.00">out.dir</text>
</g>
<!-- out_data_dir -->
<g id="node5" class="node"><title>out_data_dir</title>
<text text-anchor="middle" x="913" y="-672.336" font-family="Times Roman,serif" font-size="14.00">${out.data.dir}</text>
</g>
<!-- xsl_dirgraph2json_d3_xsl -->
<g id="node17" class="node"><title>xsl_dirgraph2json_d3_xsl</title>
<ellipse fill="none" stroke="black" cx="1263" cy="-571.436" rx="89.139" ry="18"/>
<text text-anchor="middle" x="1263" y="-567.336" font-family="Times Roman,serif" font-size="14.00">graph2json&#45;d3.xsl</text>
</g>
<!-- out_data_dir&#45;&gt;xsl_dirgraph2json_d3_xsl -->
<g id="edge34" class="edge"><title>out_data_dir&#45;&gt;xsl_dirgraph2json_d3_xsl</title>
<path fill="none" stroke="black" d="M964.718,-681.558C1021.15,-685.925 1106.59,-688.562 1130,-667.436 1153,-646.676 1118.89,-621.124 1140,-598.436 1147.58,-590.287 1157.01,-584.311 1167.26,-579.966"/>
<polygon fill="black" stroke="black" points="1168.7,-583.166 1176.87,-576.419 1166.27,-576.599 1168.7,-583.166"/>
<text text-anchor="middle" x="1090" y="-688.836" font-family="Times Roman,serif" font-size="14.00">in</text>
</g>
<!-- docs_dir -->
<g id="node6" class="node"><title>docs_dir</title>
<text text-anchor="middle" x="65" y="-820.336" font-family="Times Roman,serif" font-size="14.00">docs.dir</text>
</g>
<!-- smc_config -->
<g id="node7" class="node"><title>smc_config</title>
<text text-anchor="middle" x="913" y="-298.336" font-family="Times Roman,serif" font-size="14.00">${smc.config}</text>
</g>
<!-- xsl_dirsmc_init_xsl -->
<g id="node12" class="node"><title>xsl_dirsmc_init_xsl</title>
<ellipse fill="none" stroke="black" cx="1263" cy="-463.436" rx="62.0391" ry="18"/>
<text text-anchor="middle" x="1263" y="-459.336" font-family="Times Roman,serif" font-size="14.00">smc_init.xsl</text>
</g>
<!-- smc_config&#45;&gt;xsl_dirsmc_init_xsl -->
<g id="edge72" class="edge"><title>smc_config&#45;&gt;xsl_dirsmc_init_xsl</title>
<path fill="none" stroke="black" d="M964.673,-301.821C988.284,-304.312 1014.77,-311.474 1032,-329.436 1062.66,-361.393 1018.46,-396.346 1050,-427.436 1055.31,-432.674 1136.33,-445.312 1196.88,-454.125"/>
<polygon fill="black" stroke="black" points="1196.39,-457.59 1206.78,-455.559 1197.39,-450.662 1196.39,-457.59"/>
<text text-anchor="middle" x="1090" y="-448.836" font-family="Times Roman,serif" font-size="14.00">in</text>
</g>
<!-- xsl_dir -->
<g id="node8" class="node"><title>xsl_dir</title>
<text text-anchor="middle" x="65" y="-874.336" font-family="Times Roman,serif" font-size="14.00">xsl.dir</text>
</g>
<!-- dataset_xsl_dir -->
<g id="node9" class="node"><title>dataset_xsl_dir</title>
<text text-anchor="middle" x="65" y="-928.336" font-family="Times Roman,serif" font-size="14.00">dataset.xsl.dir</text>
</g>
<!-- build_init_props -->
<g id="node10" class="node"><title>build_init_props</title>
<text text-anchor="middle" x="65" y="-982.336" font-family="Times Roman,serif" font-size="14.00">build_init.props</text>
</g>
<!-- cache_dir_dataset_key_xml -->
<g id="node80" class="node"><title>cache_dir_dataset_key_xml</title>
<text text-anchor="middle" x="1676" y="-567.336" font-family="Times Roman,serif" font-size="14.00">${cache.dir}/${dataset.key}.xml</text>
</g>
<!-- xsl_dirsmc_init_xsl&#45;&gt;cache_dir_dataset_key_xml -->
<g id="edge74" class="edge"><title>xsl_dirsmc_init_xsl&#45;&gt;cache_dir_dataset_key_xml</title>
<path fill="none" stroke="black" d="M1325.46,-464.289C1347.05,-467.638 1369.86,-475.05 1386,-490.436 1398.33,-502.19 1383.41,-515.959 1396,-527.436 1439.91,-567.471 1504.69,-579.527 1560.88,-581.093"/>
<polygon fill="black" stroke="black" points="1560.85,-584.592 1570.91,-581.265 1560.97,-577.593 1560.85,-584.592"/>
<text text-anchor="middle" x="1436" y="-573.836" font-family="Times Roman,serif" font-size="14.00">out</text>
</g>
<!-- xsl_dircomp2view_xsl -->
<g id="node13" class="node"><title>xsl_dircomp2view_xsl</title>
<ellipse fill="none" stroke="black" cx="1263" cy="-517.436" rx="75.2406" ry="18"/>
<text text-anchor="middle" x="1263" y="-513.336" font-family="Times Roman,serif" font-size="14.00">comp2view.xsl</text>
</g>
<!-- out_dir_profiles -->
<g id="node85" class="node"><title>out_dir_profiles</title>
<text text-anchor="middle" x="1676" y="-621.336" font-family="Times Roman,serif" font-size="14.00">${out.dir}/profiles</text>
</g>
<!-- xsl_dircomp2view_xsl&#45;&gt;out_dir_profiles -->
<g id="edge80" class="edge"><title>xsl_dircomp2view_xsl&#45;&gt;out_dir_profiles</title>
<path fill="none" stroke="black" d="M1337.71,-520.092C1355.54,-524.15 1373.1,-531.515 1386,-544.436 1400.78,-559.246 1380.56,-576.321 1396,-590.436 1451.57,-641.236 1541.34,-643.655 1604.21,-637.474"/>
<polygon fill="black" stroke="black" points="1604.89,-640.922 1614.45,-636.369 1604.14,-633.962 1604.89,-640.922"/>
<text text-anchor="middle" x="1436" y="-635.836" font-family="Times Roman,serif" font-size="14.00">out</text>
</g>
<!-- xsl_dirsmc2stats_datasets_xsl -->
<g id="node14" class="node"><title>xsl_dirsmc2stats_datasets_xsl</title>
<ellipse fill="none" stroke="black" cx="1263" cy="-625.436" rx="114.155" ry="18"/>
<text text-anchor="middle" x="1263" y="-621.336" font-family="Times Roman,serif" font-size="14.00">smc2stats_datasets.xsl</text>
</g>
<!-- out_dir_smc_stats_dataset_xml -->
<g id="node90" class="node"><title>out_dir_smc_stats_dataset_xml</title>
<text text-anchor="middle" x="1676" y="-805.336" font-family="Times Roman,serif" font-size="14.00">${out.dir}/smc_stats_dataset.xml</text>
</g>
<!-- xsl_dirsmc2stats_datasets_xsl&#45;&gt;out_dir_smc_stats_dataset_xml -->
<g id="edge86" class="edge"><title>xsl_dirsmc2stats_datasets_xsl&#45;&gt;out_dir_smc_stats_dataset_xml</title>
<path fill="none" stroke="black" d="M1349.97,-637.253C1362.24,-639.996 1374.56,-643.348 1386,-647.436 1392.6,-649.794 1556.32,-741.941 1634.79,-786.186"/>
<polygon fill="black" stroke="black" points="1633.49,-789.472 1643.92,-791.335 1636.93,-783.375 1633.49,-789.472"/>
<text text-anchor="middle" x="1436" y="-701.836" font-family="Times Roman,serif" font-size="14.00">out</text>
</g>
<!-- xsl_dirterms2graph_xsl -->
<g id="node15" class="node"><title>xsl_dirterms2graph_xsl</title>
<ellipse fill="none" stroke="black" cx="1263" cy="-409.436" rx="80.8024" ry="18"/>
<text text-anchor="middle" x="1263" y="-405.336" font-family="Times Roman,serif" font-size="14.00">terms2graph.xsl</text>
</g>
<!-- out_data_dir_mdrepo_stats_graph_xml -->
<g id="node26" class="node"><title>out_data_dir_mdrepo_stats_graph_xml</title>
<text text-anchor="middle" x="1676" y="-513.336" font-family="Times Roman,serif" font-size="14.00">${out.data.dir}/${mdrepo&#45;stats&#45;graph}.xml</text>
</g>
<!-- xsl_dirterms2graph_xsl&#45;&gt;out_data_dir_mdrepo_stats_graph_xml -->
<g id="edge8" class="edge"><title>xsl_dirterms2graph_xsl&#45;&gt;out_data_dir_mdrepo_stats_graph_xml</title>
<path fill="none" stroke="black" d="M1341.22,-414.65C1357.44,-418.829 1373.4,-425.608 1386,-436.436 1395.39,-444.505 1386.87,-454.079 1396,-462.436 1431.83,-495.216 1481.28,-510.957 1528.66,-517.9"/>
<polygon fill="black" stroke="black" points="1528.35,-521.391 1538.73,-519.252 1529.28,-514.453 1528.35,-521.391"/>
<text text-anchor="middle" x="1436" y="-510.836" font-family="Times Roman,serif" font-size="14.00">out</text>
</g>
<!-- out_data_dir_smc_graph_all_xml -->
<g id="node45" class="node"><title>out_data_dir_smc_graph_all_xml</title>
<text text-anchor="middle" x="1676" y="-297.336" font-family="Times Roman,serif" font-size="14.00">${out.data.dir}/smc&#45;graph&#45;all.xml</text>
</g>
<!-- xsl_dirterms2graph_xsl&#45;&gt;out_data_dir_smc_graph_all_xml -->
<g id="edge48" class="edge"><title>xsl_dirterms2graph_xsl&#45;&gt;out_data_dir_smc_graph_all_xml</title>
<path fill="none" stroke="black" d="M1341.12,-404.098C1357.34,-399.926 1373.33,-393.181 1386,-382.436 1395.13,-374.698 1387.15,-365.497 1396,-357.436 1439.03,-318.223 1501.51,-303.202 1556.53,-298.431"/>
<polygon fill="black" stroke="black" points="1557.01,-301.904 1566.72,-297.655 1556.48,-294.925 1557.01,-301.904"/>
<text text-anchor="middle" x="1436" y="-361.836" font-family="Times Roman,serif" font-size="14.00">out</text>
</g>
<!-- out_data_dir_smc_graph_basic_xml -->
<g id="node56" class="node"><title>out_data_dir_smc_graph_basic_xml</title>
<text text-anchor="middle" x="1676" y="-459.336" font-family="Times Roman,serif" font-size="14.00">${out.data.dir}/smc&#45;graph&#45;basic.xml</text>
</g>
<!-- xsl_dirterms2graph_xsl&#45;&gt;out_data_dir_smc_graph_basic_xml -->
<g id="edge42" class="edge"><title>xsl_dirterms2graph_xsl&#45;&gt;out_data_dir_smc_graph_basic_xml</title>
<path fill="none" stroke="black" d="M1328.2,-420.255C1349.76,-423.692 1373.88,-427.389 1396,-430.436 1445.23,-437.222 1499.45,-443.815 1546.96,-449.302"/>
<polygon fill="black" stroke="black" points="1546.66,-452.79 1557,-450.456 1547.46,-445.836 1546.66,-452.79"/>
<text text-anchor="middle" x="1436" y="-445.836" font-family="Times Roman,serif" font-size="14.00">out</text>
</g>
<!-- out_data_dir_smc_graph_profiles_datcats_xml -->
<g id="node63" class="node"><title>out_data_dir_smc_graph_profiles_datcats_xml</title>
<text text-anchor="middle" x="1676" y="-405.336" font-family="Times Roman,serif" font-size="14.00">${out.data.dir}/smc&#45;graph&#45;profiles&#45;datcats.xml</text>
</g>
<!-- xsl_dirterms2graph_xsl&#45;&gt;out_data_dir_smc_graph_profiles_datcats_xml -->
<g id="edge54" class="edge"><title>xsl_dirterms2graph_xsl&#45;&gt;out_data_dir_smc_graph_profiles_datcats_xml</title>
<path fill="none" stroke="black" d="M1344.6,-409.436C1393.15,-409.436 1456.47,-409.436 1514.73,-409.436"/>
<polygon fill="black" stroke="black" points="1514.79,-412.937 1524.79,-409.436 1514.79,-405.937 1514.79,-412.937"/>
<text text-anchor="middle" x="1436" y="-413.836" font-family="Times Roman,serif" font-size="14.00">out</text>
</g>
<!-- out_data_dir_smc_graph_groups_profiles_datcats_rr_xml -->
<g id="node67" class="node"><title>out_data_dir_smc_graph_groups_profiles_datcats_rr_xml</title>
<text text-anchor="middle" x="1676" y="-351.336" font-family="Times Roman,serif" font-size="14.00">${out.data.dir}/smc&#45;graph&#45;groups&#45;profiles&#45;datcats&#45;rr.xml</text>
</g>
<!-- xsl_dirterms2graph_xsl&#45;&gt;out_data_dir_smc_graph_groups_profiles_datcats_rr_xml -->
<g id="edge60" class="edge"><title>xsl_dirterms2graph_xsl&#45;&gt;out_data_dir_smc_graph_groups_profiles_datcats_rr_xml</title>
<path fill="none" stroke="black" d="M1328.2,-398.618C1349.76,-395.181 1373.88,-391.484 1396,-388.436 1430.79,-383.641 1468.08,-378.942 1503.73,-374.661"/>
<polygon fill="black" stroke="black" points="1504.22,-378.127 1513.73,-373.465 1503.39,-371.176 1504.22,-378.127"/>
<text text-anchor="middle" x="1436" y="-392.836" font-family="Times Roman,serif" font-size="14.00">out</text>
</g>
<!-- xsl_dirgraph2dot_xsl -->
<g id="node16" class="node"><title>xsl_dirgraph2dot_xsl</title>
<ellipse fill="none" stroke="black" cx="1263" cy="-355.436" rx="70.878" ry="18"/>
<text text-anchor="middle" x="1263" y="-351.336" font-family="Times Roman,serif" font-size="14.00">graph2dot.xsl</text>
</g>
<!-- out_data_dir_smc_graph_dot -->
<g id="node46" class="node"><title>out_data_dir_smc_graph_dot</title>
<text text-anchor="middle" x="1676" y="-243.336" font-family="Times Roman,serif" font-size="14.00">${out.data.dir}/smc&#45;graph.dot</text>
</g>
<!-- xsl_dirgraph2dot_xsl&#45;&gt;out_data_dir_smc_graph_dot -->
<g id="edge28" class="edge"><title>xsl_dirgraph2dot_xsl&#45;&gt;out_data_dir_smc_graph_dot</title>
<path fill="none" stroke="black" d="M1280.43,-337.802C1304.15,-315.111 1349.08,-276.684 1396,-260.436 1450.22,-241.664 1513.88,-237.426 1566.8,-238.316"/>
<polygon fill="black" stroke="black" points="1566.81,-241.817 1576.89,-238.549 1566.97,-234.819 1566.81,-241.817"/>
<text text-anchor="middle" x="1436" y="-264.836" font-family="Times Roman,serif" font-size="14.00">out</text>
</g>
<!-- xsl_dirgraph2json_d3_xsl&#45;&gt;out_data_dir -->
<g id="edge36" class="edge"><title>xsl_dirgraph2json_d3_xsl&#45;&gt;out_data_dir</title>
<path fill="none" stroke="black" d="M1179.77,-578.18C1165.33,-582.412 1151.34,-588.823 1140,-598.436 1130.87,-606.175 1138.96,-615.502 1130,-623.436 1096.27,-653.313 1075.76,-638.672 1032,-649.436 1013.34,-654.027 992.967,-658.753 974.435,-662.944"/>
<polygon fill="black" stroke="black" points="973.629,-659.537 964.641,-665.147 975.166,-666.367 973.629,-659.537"/>
<text text-anchor="middle" x="1090" y="-650.836" font-family="Times Roman,serif" font-size="14.00">out</text>
</g>
<!-- dataset_xsl_dir_dataset2html_xsl -->
<g id="node19" class="node"><title>dataset_xsl_dir_dataset2html_xsl</title>
<ellipse fill="none" stroke="black" cx="1991" cy="-865.436" rx="84.7756" ry="18"/>
<text text-anchor="middle" x="1991" y="-861.336" font-family="Times Roman,serif" font-size="14.00">/dataset2html.xsl</text>
</g>
<!-- out_dir_smc_stats_detail_html -->
<g id="node94" class="node"><title>out_dir_smc_stats_detail_html</title>
<text text-anchor="middle" x="2239" y="-888.336" font-family="Times Roman,serif" font-size="14.00">${out.dir}/smc_stats_detail.html</text>
</g>
<!-- dataset_xsl_dir_dataset2html_xsl&#45;&gt;out_dir_smc_stats_detail_html -->
<g id="edge92" class="edge"><title>dataset_xsl_dir_dataset2html_xsl&#45;&gt;out_dir_smc_stats_detail_html</title>
<path fill="none" stroke="black" d="M2066.76,-873.684C2084.26,-875.59 2103.29,-877.662 2122.1,-879.71"/>
<polygon fill="black" stroke="black" points="2121.89,-883.207 2132.21,-880.81 2122.65,-876.249 2121.89,-883.207"/>
<text text-anchor="middle" x="2104" y="-882.836" font-family="Times Roman,serif" font-size="14.00">out</text>
</g>
<!-- out_dir_smc_stats_html -->
<g id="node98" class="node"><title>out_dir_smc_stats_html</title>
<text text-anchor="middle" x="2239" y="-834.336" font-family="Times Roman,serif" font-size="14.00">${out.dir}/smc_stats.html</text>
</g>
<!-- dataset_xsl_dir_dataset2html_xsl&#45;&gt;out_dir_smc_stats_html -->
<g id="edge98" class="edge"><title>dataset_xsl_dir_dataset2html_xsl&#45;&gt;out_dir_smc_stats_html</title>
<path fill="none" stroke="black" d="M2066.76,-857.189C2090.9,-854.56 2117.94,-851.617 2143.3,-848.855"/>
<polygon fill="black" stroke="black" points="2143.74,-852.328 2153.31,-847.766 2142.99,-845.369 2143.74,-852.328"/>
<text text-anchor="middle" x="2104" y="-858.836" font-family="Times Roman,serif" font-size="14.00">out</text>
</g>
<!-- check -->
<g id="node21" class="node"><title>check</title>
<polygon fill="none" stroke="black" points="92,-1058.44 38,-1058.44 38,-1022.44 92,-1022.44 92,-1058.44"/>
<text text-anchor="middle" x="65" y="-1036.34" font-family="Times Roman,serif" font-size="14.00">check</text>
</g>
<!-- clean_dataset -->
<g id="node22" class="node"><title>clean_dataset</title>
<polygon fill="none" stroke="black" points="1313,-827.436 1213,-827.436 1213,-791.436 1313,-791.436 1313,-827.436"/>
<text text-anchor="middle" x="1263" y="-805.336" font-family="Times Roman,serif" font-size="14.00">clean&#45;dataset</text>
</g>
<!-- gen_mdrepo_graph_xml -->
<g id="node23" class="node"><title>gen_mdrepo_graph_xml</title>
<polygon fill="none" stroke="black" points="993,-107.436 833,-107.436 833,-71.4365 993,-71.4365 993,-107.436"/>
<text text-anchor="middle" x="913" y="-85.3365" font-family="Times Roman,serif" font-size="14.00">gen&#45;mdrepo&#45;graph&#45;xml</text>
</g>
<!-- gen_mdrepo_graph_xml&#45;&gt;xsl_dirterms2graph_xsl -->
<g id="edge4" class="edge"><title>gen_mdrepo_graph_xml&#45;&gt;xsl_dirterms2graph_xsl</title>
<path fill="none" stroke="black" d="M980.899,-71.4218C1029.32,-63.0691 1092.28,-62.139 1130,-100.436 1152,-122.774 1119.92,-358.357 1140,-382.436 1148.48,-392.605 1159.83,-399.474 1172.22,-404.035"/>
<polygon fill="black" stroke="black" points="1171.28,-407.407 1181.87,-407.089 1173.39,-400.734 1171.28,-407.407"/>
<text text-anchor="middle" x="1090" y="-104.836" font-family="Times Roman,serif" font-size="14.00">1: saxon&#45;xslt</text>
</g>
<!-- mdrepo_stats_path -->
<g id="node25" class="node"><title>mdrepo_stats_path</title>
<text text-anchor="middle" x="913" y="-139.336" font-family="Times Roman,serif" font-size="14.00">${mdrepo&#45;stats.path}</text>
</g>
<!-- mdrepo_stats_path&#45;&gt;xsl_dirterms2graph_xsl -->
<g id="edge6" class="edge"><title>mdrepo_stats_path&#45;&gt;xsl_dirterms2graph_xsl</title>
<path fill="none" stroke="black" d="M987.207,-129.009C1041.89,-120.339 1110.08,-114.298 1130,-133.436 1149.97,-152.619 1122.22,-361.213 1140,-382.436 1148.5,-392.585 1159.87,-399.443 1172.26,-404"/>
<polygon fill="black" stroke="black" points="1171.32,-407.373 1181.91,-407.052 1173.43,-400.699 1171.32,-407.373"/>
<text text-anchor="middle" x="1090" y="-137.836" font-family="Times Roman,serif" font-size="14.00">in</text>
</g>
<!-- gen_out -->
<g id="node29" class="node"><title>gen_out</title>
<polygon fill="none" stroke="black" points="97,-788.436 33,-788.436 33,-752.436 97,-752.436 97,-788.436"/>
<text text-anchor="middle" x="65" y="-766.336" font-family="Times Roman,serif" font-size="14.00">gen&#45;out</text>
</g>
<!-- init_out -->
<g id="node31" class="node"><title>init_out</title>
<polygon fill="none" stroke="black" points="318,-839.436 262,-839.436 262,-803.436 318,-803.436 318,-839.436"/>
<text text-anchor="middle" x="290" y="-817.336" font-family="Times Roman,serif" font-size="14.00">init&#45;out</text>
</g>
<!-- gen_out&#45;&gt;init_out -->
<g id="edge10" class="edge"><title>gen_out&#45;&gt;init_out</title>
<path fill="none" stroke="black" d="M97.3158,-777.861C112.669,-781.381 131.278,-785.638 148,-789.436 183.007,-797.388 222.887,-806.368 251.453,-812.787"/>
<polygon fill="black" stroke="black" points="250.911,-816.252 261.435,-815.029 252.446,-809.423 250.911,-816.252"/>
<text text-anchor="middle" x="182" y="-808.836" font-family="Times Roman,serif" font-size="14.00">1 depends</text>
</g>
<!-- smc_stats -->
<g id="node33" class="node"><title>smc_stats</title>
<polygon fill="none" stroke="black" points="952,-883.436 874,-883.436 874,-847.436 952,-847.436 952,-883.436"/>
<text text-anchor="middle" x="913" y="-861.336" font-family="Times Roman,serif" font-size="14.00">smc&#45;stats</text>
</g>
<!-- gen_out&#45;&gt;smc_stats -->
<g id="edge12" class="edge"><title>gen_out&#45;&gt;smc_stats</title>
<path fill="none" stroke="black" d="M97.0033,-770.028C179.015,-769.388 403.251,-770.195 588,-794.436 687.199,-807.453 800.964,-835.365 864.158,-852.052"/>
<polygon fill="black" stroke="black" points="863.293,-855.444 873.856,-854.63 865.091,-848.679 863.293,-855.444"/>
<text text-anchor="middle" x="398" y="-783.836" font-family="Times Roman,serif" font-size="14.00">2 depends</text>
</g>
<!-- gen_smc_graph -->
<g id="node35" class="node"><title>gen_smc_graph</title>
<polygon fill="none" stroke="black" points="346,-640.436 234,-640.436 234,-604.436 346,-604.436 346,-640.436"/>
<text text-anchor="middle" x="290" y="-618.336" font-family="Times Roman,serif" font-size="14.00">gen&#45;smc&#45;graph</text>
</g>
<!-- gen_out&#45;&gt;gen_smc_graph -->
<g id="edge14" class="edge"><title>gen_out&#45;&gt;gen_smc_graph</title>
<path fill="none" stroke="black" d="M97.1338,-758.348C109.146,-752.299 121.84,-743.796 130,-732.436 153.035,-700.367 119.48,-672.744 148,-645.436 167.914,-626.369 197.06,-619.47 223.772,-617.79"/>
<polygon fill="black" stroke="black" points="224.014,-621.283 233.866,-617.387 223.734,-614.288 224.014,-621.283"/>
<text text-anchor="middle" x="182" y="-649.836" font-family="Times Roman,serif" font-size="14.00">3 depends</text>
</g>
<!-- render_profiles -->
<g id="node37" class="node"><title>render_profiles</title>
<polygon fill="none" stroke="black" points="967,-532.436 859,-532.436 859,-496.436 967,-496.436 967,-532.436"/>
<text text-anchor="middle" x="913" y="-510.336" font-family="Times Roman,serif" font-size="14.00">render&#45;profiles</text>
</g>
<!-- gen_out&#45;&gt;render_profiles -->
<g id="edge16" class="edge"><title>gen_out&#45;&gt;render_profiles</title>
<path fill="none" stroke="black" d="M97.1872,-754.156C130.582,-737.929 184.72,-713.464 234,-699.436 387.204,-655.828 436.222,-691.775 588,-643.436 685.347,-612.433 697.733,-575.645 794,-541.436 811.348,-535.272 830.632,-530.181 848.538,-526.145"/>
<polygon fill="black" stroke="black" points="849.298,-529.562 858.323,-524.012 847.806,-522.723 849.298,-529.562"/>
<text text-anchor="middle" x="398" y="-680.836" font-family="Times Roman,serif" font-size="14.00">4 depends</text>
</g>
<!-- gen_userdocs -->
<g id="node77" class="node"><title>gen_userdocs</title>
<text text-anchor="middle" x="519" y="-817.336" font-family="Times Roman,serif" font-size="14.00">gen_userdocs</text>
</g>
<!-- init_out&#45;&gt;gen_userdocs -->
<g id="edge66" class="edge"><title>init_out&#45;&gt;gen_userdocs</title>
<path fill="none" stroke="black" d="M318.54,-821.436C352.355,-821.436 409.741,-821.436 454.471,-821.436"/>
<polygon fill="black" stroke="black" points="454.676,-824.937 464.676,-821.436 454.676,-817.937 454.676,-824.937"/>
<text text-anchor="middle" x="398" y="-825.836" font-family="Times Roman,serif" font-size="14.00">1 depends</text>
</g>
<!-- smc_stats&#45;&gt;xsl_dirsmc2stats_datasets_xsl -->
<g id="edge82" class="edge"><title>smc_stats&#45;&gt;xsl_dirsmc2stats_datasets_xsl</title>
<path fill="none" stroke="black" d="M952.071,-861.046C1011.33,-854.001 1118.33,-839.623 1130,-826.436 1156.4,-796.6 1113.59,-677.262 1140,-647.436 1142.99,-644.057 1146.31,-641.081 1149.89,-638.466"/>
<polygon fill="black" stroke="black" points="1152.02,-641.261 1158.65,-632.998 1148.31,-635.323 1152.02,-641.261"/>
<text text-anchor="middle" x="1090" y="-851.836" font-family="Times Roman,serif" font-size="14.00">1: saxon&#45;xslt</text>
</g>
<!-- smc_stats&#45;&gt;dataset_xsl_dir_dataset2html_xsl -->
<g id="edge88" class="edge"><title>smc_stats&#45;&gt;dataset_xsl_dir_dataset2html_xsl</title>
<path fill="none" stroke="black" d="M952.21,-876.255C979.413,-883.209 1016.62,-891.629 1050,-895.436 1420.05,-937.643 1519.55,-949.829 1888,-895.436 1904.48,-893.004 1922.02,-888.609 1937.86,-883.921"/>
<polygon fill="black" stroke="black" points="1938.94,-887.25 1947.48,-880.978 1936.89,-880.556 1938.94,-887.25"/>
<text text-anchor="middle" x="1436" y="-936.836" font-family="Times Roman,serif" font-size="14.00">2: saxon&#45;xslt</text>
</g>
<!-- smc_stats&#45;&gt;dataset_xsl_dir_dataset2html_xsl -->
<g id="edge94" class="edge"><title>smc_stats&#45;&gt;dataset_xsl_dir_dataset2html_xsl</title>
<path fill="none" stroke="black" d="M952.269,-866.162C979.658,-866.63 1017.06,-867.196 1050,-867.436 1422.43,-870.155 1515.57,-871.052 1888,-867.436 1890.71,-867.41 1893.47,-867.38 1896.25,-867.346"/>
<polygon fill="black" stroke="black" points="1896.45,-870.844 1906.41,-867.211 1896.36,-863.845 1896.45,-870.844"/>
<text text-anchor="middle" x="1436" y="-874.836" font-family="Times Roman,serif" font-size="14.00">3: saxon&#45;xslt</text>
</g>
<!-- gen_smc_graph_dot -->
<g id="node39" class="node"><title>gen_smc_graph_dot</title>
<polygon fill="none" stroke="black" points="587,-337.436 451,-337.436 451,-301.436 587,-301.436 587,-337.436"/>
<text text-anchor="middle" x="519" y="-315.336" font-family="Times Roman,serif" font-size="14.00">gen&#45;smc&#45;graph&#45;dot</text>
</g>
<!-- gen_smc_graph&#45;&gt;gen_smc_graph_dot -->
<g id="edge18" class="edge"><title>gen_smc_graph&#45;&gt;gen_smc_graph_dot</title>
<path fill="none" stroke="black" d="M303.639,-604.39C342.368,-553.146 453.155,-406.558 498.884,-346.053"/>
<polygon fill="black" stroke="black" points="501.905,-347.86 505.143,-337.772 496.321,-343.639 501.905,-347.86"/>
<text text-anchor="middle" x="398" y="-528.836" font-family="Times Roman,serif" font-size="14.00">1 depends</text>
</g>
<!-- gen_smc_graph_json -->
<g id="node41" class="node"><title>gen_smc_graph_json</title>
<polygon fill="none" stroke="black" points="984,-640.436 842,-640.436 842,-604.436 984,-604.436 984,-640.436"/>
<text text-anchor="middle" x="913" y="-618.336" font-family="Times Roman,serif" font-size="14.00">gen&#45;smc&#45;graph&#45;json</text>
</g>
<!-- gen_smc_graph&#45;&gt;gen_smc_graph_json -->
<g id="edge20" class="edge"><title>gen_smc_graph&#45;&gt;gen_smc_graph_json</title>
<path fill="none" stroke="black" d="M346.11,-622.436C456.479,-622.436 702.219,-622.436 830.873,-622.436"/>
<polygon fill="black" stroke="black" points="831.063,-625.937 841.063,-622.436 831.063,-618.937 831.063,-625.937"/>
<text text-anchor="middle" x="519" y="-626.836" font-family="Times Roman,serif" font-size="14.00">2 depends</text>
</g>
<!-- render_profiles&#45;&gt;xsl_dircomp2view_xsl -->
<g id="edge76" class="edge"><title>render_profiles&#45;&gt;xsl_dircomp2view_xsl</title>
<path fill="none" stroke="black" d="M967.688,-514.905C1023.71,-515.385 1111.63,-516.139 1176.98,-516.699"/>
<polygon fill="black" stroke="black" points="1177.24,-520.201 1187.27,-516.787 1177.3,-513.202 1177.24,-520.201"/>
<text text-anchor="middle" x="1090" y="-520.836" font-family="Times Roman,serif" font-size="14.00">1: xslt</text>
</g>
<!-- gen_smc_graph_dot&#45;&gt;xsl_dirgraph2dot_xsl -->
<g id="edge24" class="edge"><title>gen_smc_graph_dot&#45;&gt;xsl_dirgraph2dot_xsl</title>
<path fill="none" stroke="black" d="M529.776,-301.31C561.94,-249.236 663.192,-99.4794 794,-45.4365 891.763,-5.04612 926.707,-35.3237 1032,-45.4365 1076.16,-49.6782 1095.14,-36.9969 1130,-64.4365 1216.09,-132.192 1248.47,-268.266 1258.8,-327.177"/>
<polygon fill="black" stroke="black" points="1255.38,-327.958 1260.48,-337.245 1262.29,-326.805 1255.38,-327.958"/>
<text text-anchor="middle" x="913" y="-49.8365" font-family="Times Roman,serif" font-size="14.00">1: saxon&#45;xslt</text>
</g>
<!-- gen_smc_graph_xml -->
<g id="node43" class="node"><title>gen_smc_graph_xml</title>
<polygon fill="none" stroke="black" points="982,-266.436 844,-266.436 844,-230.436 982,-230.436 982,-266.436"/>
<text text-anchor="middle" x="913" y="-244.336" font-family="Times Roman,serif" font-size="14.00">gen&#45;smc&#45;graph&#45;xml</text>
</g>
<!-- gen_smc_graph_dot&#45;&gt;gen_smc_graph_xml -->
<g id="edge22" class="edge"><title>gen_smc_graph_dot&#45;&gt;gen_smc_graph_xml</title>
<path fill="none" stroke="black" d="M587.63,-307.069C656.276,-294.699 761.756,-275.691 833.886,-262.693"/>
<polygon fill="black" stroke="black" points="834.614,-266.118 843.835,-260.9 833.373,-259.229 834.614,-266.118"/>
<text text-anchor="middle" x="691" y="-306.836" font-family="Times Roman,serif" font-size="14.00">1 depends</text>
</g>
<!-- dot -->
<g id="node50" class="node"><title>dot</title>
<ellipse fill="none" stroke="black" cx="913" cy="-356.436" rx="27" ry="18"/>
<text text-anchor="middle" x="913" y="-352.336" font-family="Times Roman,serif" font-size="14.00">dot</text>
</g>
<!-- gen_smc_graph_dot&#45;&gt;dot -->
<g id="edge30" class="edge"><title>gen_smc_graph_dot&#45;&gt;dot</title>
<path fill="none" stroke="black" d="M587.63,-325.881C671.378,-333.746 809.95,-346.759 875.901,-352.953"/>
<polygon fill="black" stroke="black" points="875.935,-356.471 886.219,-353.922 876.59,-349.502 875.935,-356.471"/>
<text text-anchor="middle" x="691" y="-347.836" font-family="Times Roman,serif" font-size="14.00">2: exec</text>
</g>
<!-- gen_smc_graph_json&#45;&gt;xsl_dirgraph2json_d3_xsl -->
<g id="edge32" class="edge"><title>gen_smc_graph_json&#45;&gt;xsl_dirgraph2json_d3_xsl</title>
<path fill="none" stroke="black" d="M984.672,-611.993C1041.48,-603.715 1120.93,-592.138 1180.41,-583.471"/>
<polygon fill="black" stroke="black" points="1181.13,-586.903 1190.52,-581.998 1180.12,-579.976 1181.13,-586.903"/>
<text text-anchor="middle" x="1090" y="-606.836" font-family="Times Roman,serif" font-size="14.00">1: saxon&#45;xslt</text>
</g>
<!-- gen_smc_graph_xml&#45;&gt;xsl_dirterms2graph_xsl -->
<g id="edge38" class="edge"><title>gen_smc_graph_xml&#45;&gt;xsl_dirterms2graph_xsl</title>
<path fill="none" stroke="black" d="M941.567,-230.3C987.64,-203.571 1078.4,-161.746 1130,-210.436 1157.85,-236.712 1115.15,-353.311 1140,-382.436 1148.59,-392.509 1160.01,-399.326 1172.42,-403.866"/>
<polygon fill="black" stroke="black" points="1171.49,-407.242 1182.08,-406.909 1173.59,-400.566 1171.49,-407.242"/>
<text text-anchor="middle" x="1090" y="-214.836" font-family="Times Roman,serif" font-size="14.00">1: saxon&#45;xslt</text>
</g>
<!-- gen_smc_graph_xml&#45;&gt;xsl_dirterms2graph_xsl -->
<g id="edge44" class="edge"><title>gen_smc_graph_xml&#45;&gt;xsl_dirterms2graph_xsl</title>
<path fill="none" stroke="black" d="M935.023,-230.288C960.752,-210.371 1005.49,-179.61 1050,-167.436 1084.3,-158.056 1104.28,-142.886 1130,-167.436 1147.3,-183.949 1124.58,-364.155 1140,-382.436 1148.54,-392.558 1159.92,-399.402 1172.32,-403.953"/>
<polygon fill="black" stroke="black" points="1171.38,-407.327 1181.97,-407.001 1173.49,-400.652 1171.38,-407.327"/>
<text text-anchor="middle" x="1090" y="-171.836" font-family="Times Roman,serif" font-size="14.00">2: saxon&#45;xslt</text>
</g>
<!-- gen_smc_graph_xml&#45;&gt;xsl_dirterms2graph_xsl -->
<g id="edge50" class="edge"><title>gen_smc_graph_xml&#45;&gt;xsl_dirterms2graph_xsl</title>
<path fill="none" stroke="black" d="M982.105,-260.204C998.76,-264.102 1016.28,-269.111 1032,-275.436 1079.17,-294.413 1100.58,-292.975 1130,-334.436 1142.61,-352.208 1124.67,-366.946 1140,-382.436 1149.25,-391.787 1160.95,-398.234 1173.43,-402.625"/>
<polygon fill="black" stroke="black" points="1172.51,-406.005 1183.1,-405.597 1174.57,-399.314 1172.51,-406.005"/>
<text text-anchor="middle" x="1090" y="-338.836" font-family="Times Roman,serif" font-size="14.00">3: saxon&#45;xslt</text>
</g>
<!-- gen_smc_graph_xml&#45;&gt;xsl_dirterms2graph_xsl -->
<g id="edge56" class="edge"><title>gen_smc_graph_xml&#45;&gt;xsl_dirterms2graph_xsl</title>
<path fill="none" stroke="black" d="M982.247,-231.39C1030.2,-224.071 1092.02,-224.302 1130,-261.436 1149.29,-280.298 1122.24,-362.127 1140,-382.436 1148.72,-392.403 1160.19,-399.165 1172.64,-403.681"/>
<polygon fill="black" stroke="black" points="1171.72,-407.062 1182.31,-406.713 1173.81,-400.382 1171.72,-407.062"/>
<text text-anchor="middle" x="1090" y="-265.836" font-family="Times Roman,serif" font-size="14.00">4: saxon&#45;xslt</text>
</g>
<!-- out_data_dir_smc_graph_all_xml&#45;&gt;xsl_dirgraph2dot_xsl -->
<g id="edge26" class="edge"><title>out_data_dir_smc_graph_all_xml&#45;&gt;xsl_dirgraph2dot_xsl</title>
<path fill="none" stroke="black" d="M1566.71,-283.853C1514.44,-278.801 1451.34,-277.638 1396,-290.436 1360.39,-298.674 1323.29,-317.822 1297.35,-333.214"/>
<polygon fill="black" stroke="black" points="1295.41,-330.303 1288.67,-338.478 1299.03,-336.29 1295.41,-330.303"/>
<text text-anchor="middle" x="1436" y="-294.836" font-family="Times Roman,serif" font-size="14.00">in</text>
</g>
<!-- cache_dir_cmd_terms_nested_xml -->
<g id="node55" class="node"><title>cache_dir_cmd_terms_nested_xml</title>
<text text-anchor="middle" x="913" y="-406.336" font-family="Times Roman,serif" font-size="14.00">${cache.dir}/cmd&#45;terms&#45;nested.xml</text>
</g>
<!-- cache_dir_cmd_terms_nested_xml&#45;&gt;xsl_dirterms2graph_xsl -->
<g id="edge40" class="edge"><title>cache_dir_cmd_terms_nested_xml&#45;&gt;xsl_dirterms2graph_xsl</title>
<path fill="none" stroke="black" d="M1031.98,-410.097C1077.48,-409.967 1128.63,-409.82 1171.21,-409.699"/>
<polygon fill="black" stroke="black" points="1171.29,-413.199 1181.28,-409.67 1171.27,-406.199 1171.29,-413.199"/>
<text text-anchor="middle" x="1090" y="-414.836" font-family="Times Roman,serif" font-size="14.00">in</text>
</g>
<!-- cache_dir_cmd_terms_nested_xml&#45;&gt;xsl_dirterms2graph_xsl -->
<g id="edge46" class="edge"><title>cache_dir_cmd_terms_nested_xml&#45;&gt;xsl_dirterms2graph_xsl</title>
<path fill="none" stroke="black" d="M1020.14,-392.421C1030.21,-391.209 1040.28,-390.177 1050,-389.436 1085.45,-386.735 1094.54,-386.785 1130,-389.436 1149.53,-390.897 1170.54,-393.547 1189.97,-396.451"/>
<polygon fill="black" stroke="black" points="1189.55,-399.928 1199.96,-397.988 1190.61,-393.009 1189.55,-399.928"/>
<text text-anchor="middle" x="1090" y="-393.836" font-family="Times Roman,serif" font-size="14.00">in</text>
</g>
<!-- cache_dir_cmd_terms_nested_xml&#45;&gt;xsl_dirterms2graph_xsl -->
<g id="edge52" class="edge"><title>cache_dir_cmd_terms_nested_xml&#45;&gt;xsl_dirterms2graph_xsl</title>
<path fill="none" stroke="black" d="M1011.92,-392.386C1018.88,-389.792 1025.64,-386.826 1032,-383.436 1041.71,-378.258 1039.77,-370.502 1050,-366.436 1083.04,-353.3 1098.9,-349.2 1130,-366.436 1137.33,-370.502 1133.15,-377.604 1140,-382.436 1151.14,-390.293 1164.16,-395.924 1177.47,-399.948"/>
<polygon fill="black" stroke="black" points="1176.62,-403.345 1187.19,-402.603 1178.46,-396.592 1176.62,-403.345"/>
<text text-anchor="middle" x="1090" y="-370.836" font-family="Times Roman,serif" font-size="14.00">in</text>
</g>
<!-- cache_dir_cmd_terms_nested_xml&#45;&gt;xsl_dirterms2graph_xsl -->
<g id="edge58" class="edge"><title>cache_dir_cmd_terms_nested_xml&#45;&gt;xsl_dirterms2graph_xsl</title>
<path fill="none" stroke="black" d="M945.888,-428.464C972.934,-442.205 1012.74,-459.994 1050,-467.436 1084.87,-474.4 1101.26,-488.366 1130,-467.436 1141.7,-458.915 1129.28,-446.17 1140,-436.436 1149.8,-427.534 1161.85,-421.332 1174.53,-417.052"/>
<polygon fill="black" stroke="black" points="1175.74,-420.345 1184.33,-414.141 1173.74,-413.635 1175.74,-420.345"/>
<text text-anchor="middle" x="1090" y="-483.836" font-family="Times Roman,serif" font-size="14.00">in</text>
</g>
<!-- get_mdrepo_struct -->
<g id="node70" class="node"><title>get_mdrepo_struct</title>
<polygon fill="none" stroke="black" points="129,-1112.44 1,-1112.44 1,-1076.44 129,-1076.44 129,-1112.44"/>
<text text-anchor="middle" x="65" y="-1090.34" font-family="Times Roman,serif" font-size="14.00">get&#45;mdrepo&#45;struct</text>
</g>
<!-- init_data -->
<g id="node71" class="node"><title>init_data</title>
<polygon fill="none" stroke="black" points="551,-744.436 487,-744.436 487,-708.436 551,-708.436 551,-744.436"/>
<text text-anchor="middle" x="519" y="-722.336" font-family="Times Roman,serif" font-size="14.00">init&#45;data</text>
</g>
<!-- init_step -->
<g id="node75" class="node"><title>init_step</title>
<polygon fill="none" stroke="black" points="946,-748.436 880,-748.436 880,-712.436 946,-712.436 946,-748.436"/>
<text text-anchor="middle" x="913" y="-726.336" font-family="Times Roman,serif" font-size="14.00">init&#45;step</text>
</g>
<!-- init_data&#45;&gt;init_step -->
<g id="edge64" class="edge"><title>init_data&#45;&gt;init_step</title>
<path fill="none" stroke="black" d="M551.863,-726.375C600.736,-726.327 695.47,-726.398 776,-727.436 807.291,-727.84 842.596,-728.621 869.529,-729.285"/>
<polygon fill="black" stroke="black" points="869.698,-732.79 879.783,-729.542 869.873,-725.792 869.698,-732.79"/>
<text text-anchor="middle" x="691" y="-748.836" font-family="Times Roman,serif" font-size="14.00">3: foreach (init_sequence) </text>
<text text-anchor="middle" x="691" y="-731.836" font-family="Times Roman,serif" font-size="14.00"> as dataset_key</text>
</g>
<!-- init_sequence -->
<g id="node72" class="node"><title>init_sequence</title>
<text text-anchor="middle" x="290" y="-722.336" font-family="Times Roman,serif" font-size="14.00">init_sequence</text>
</g>
<!-- init_sequence&#45;&gt;init_data -->
<g id="edge62" class="edge"><title>init_sequence&#45;&gt;init_data</title>
<path fill="none" stroke="black" d="M342.537,-726.436C382.972,-726.436 438.159,-726.436 475.99,-726.436"/>
<polygon fill="black" stroke="black" points="476.174,-729.937 486.174,-726.436 476.174,-722.937 476.174,-729.937"/>
<text text-anchor="middle" x="398" y="-730.836" font-family="Times Roman,serif" font-size="14.00">2: property</text>
</g>
<!-- init_step&#45;&gt;xsl_dirsmc_init_xsl -->
<g id="edge70" class="edge"><title>init_step&#45;&gt;xsl_dirsmc_init_xsl</title>
<path fill="none" stroke="black" d="M946.381,-728.933C1004.13,-725.995 1117.7,-718.601 1130,-705.436 1146.32,-687.959 1124.58,-508.718 1140,-490.436 1152.6,-475.493 1171.41,-467.694 1190.54,-463.872"/>
<polygon fill="black" stroke="black" points="1191.25,-467.303 1200.55,-462.22 1190.11,-460.396 1191.25,-467.303"/>
<text text-anchor="middle" x="1090" y="-725.836" font-family="Times Roman,serif" font-size="14.00">4: xslt</text>
</g>
<!-- init_step&#45;&gt;clean_dataset -->
<g id="edge68" class="edge"><title>init_step&#45;&gt;clean_dataset</title>
<path fill="none" stroke="black" d="M946.156,-731.06C971.766,-733.065 1006.95,-739.296 1032,-757.436 1044.59,-766.556 1036.88,-779.09 1050,-787.436 1074.46,-802.997 1148.16,-807.764 1202.03,-809.113"/>
<polygon fill="black" stroke="black" points="1202.11,-812.615 1212.19,-809.333 1202.26,-805.617 1202.11,-812.615"/>
<text text-anchor="middle" x="1090" y="-809.836" font-family="Times Roman,serif" font-size="14.00">3: antcall</text>
</g>
<!-- cache_dir_profiles -->
<g id="node84" class="node"><title>cache_dir_profiles</title>
<text text-anchor="middle" x="913" y="-564.336" font-family="Times Roman,serif" font-size="14.00">${cache.dir}/profiles</text>
</g>
<!-- cache_dir_profiles&#45;&gt;xsl_dircomp2view_xsl -->
<g id="edge78" class="edge"><title>cache_dir_profiles&#45;&gt;xsl_dircomp2view_xsl</title>
<path fill="none" stroke="black" d="M984.366,-558.376C1026.71,-552.374 1081.43,-544.558 1130,-537.436 1149.18,-534.624 1169.91,-531.532 1189.17,-528.638"/>
<polygon fill="black" stroke="black" points="1189.72,-532.095 1199.09,-527.145 1188.68,-525.173 1189.72,-532.095"/>
<text text-anchor="middle" x="1090" y="-553.836" font-family="Times Roman,serif" font-size="14.00">in</text>
</g>
<!-- cache_dir_dcr_cmd_map_xml -->
<g id="node89" class="node"><title>cache_dir_dcr_cmd_map_xml</title>
<text text-anchor="middle" x="913" y="-780.336" font-family="Times Roman,serif" font-size="14.00">${cache.dir}/dcr&#45;cmd&#45;map.xml</text>
</g>
<!-- cache_dir_dcr_cmd_map_xml&#45;&gt;xsl_dirsmc2stats_datasets_xsl -->
<g id="edge84" class="edge"><title>cache_dir_dcr_cmd_map_xml&#45;&gt;xsl_dirsmc2stats_datasets_xsl</title>
<path fill="none" stroke="black" d="M1015.57,-769.717C1069.66,-761.484 1125.76,-751.986 1130,-747.436 1145.24,-731.108 1124.83,-663.827 1140,-647.436 1143.19,-643.985 1146.73,-640.96 1150.53,-638.315"/>
<polygon fill="black" stroke="black" points="1152.44,-641.25 1159.22,-633.111 1148.84,-635.243 1152.44,-641.25"/>
<text text-anchor="middle" x="1090" y="-768.836" font-family="Times Roman,serif" font-size="14.00">in</text>
</g>
<!-- out_dir_smc_stats_dataset_xml&#45;&gt;dataset_xsl_dir_dataset2html_xsl -->
<g id="edge90" class="edge"><title>out_dir_smc_stats_dataset_xml&#45;&gt;dataset_xsl_dir_dataset2html_xsl</title>
<path fill="none" stroke="black" d="M1777.4,-827.464C1822.26,-835.439 1874.11,-844.656 1915.49,-852.012"/>
<polygon fill="black" stroke="black" points="1915.04,-855.487 1925.5,-853.792 1916.27,-848.595 1915.04,-855.487"/>
<text text-anchor="middle" x="1882" y="-850.836" font-family="Times Roman,serif" font-size="14.00">in</text>
</g>
<!-- out_dir_smc_stats_dataset_xml&#45;&gt;dataset_xsl_dir_dataset2html_xsl -->
<g id="edge96" class="edge"><title>out_dir_smc_stats_dataset_xml&#45;&gt;dataset_xsl_dir_dataset2html_xsl</title>
<path fill="none" stroke="black" d="M1787.22,-811.652C1819.98,-813.96 1855.69,-818.114 1888,-825.436 1907.73,-829.909 1928.69,-837.485 1946.51,-844.849"/>
<polygon fill="black" stroke="black" points="1945.49,-848.217 1956.06,-848.897 1948.22,-841.772 1945.49,-848.217"/>
<text text-anchor="middle" x="1882" y="-829.836" font-family="Times Roman,serif" font-size="14.00">in</text>
</g>
</g>
</svg>
