<?xml version="1.0" encoding="UTF-8" standalone="no"?>
<!DOCTYPE svg PUBLIC "-//W3C//DTD SVG 1.1//EN"
 "http://www.w3.org/Graphics/SVG/1.1/DTD/svg11.dtd">
<!-- Generated by graphviz version 2.22.2 (20090313.1817)
 -->
<!-- Title: build Pages: 1 -->
<svg width="2546pt" height="1325pt"
 viewBox="0.00 0.00 2546.00 1325.00" xmlns="http://www.w3.org/2000/svg" xmlns:xlink="http://www.w3.org/1999/xlink">
<g id="graph1" class="graph" transform="scale(1 1) rotate(0) translate(4 1321)">
<title>build</title>
<polygon fill="white" stroke="white" points="-4,5 -4,-1321 2543,-1321 2543,5 -4,5"/>
<text text-anchor="middle" x="1269" y="-8.4" font-family="Times Roman,serif" font-size="14.00">SMC init &#45; build&#45;info</text>
<g id="graph2" class="cluster"><title>cluster_xsl_dir</title>
<polygon fill="none" stroke="black" points="1466,-448 1466,-849 1712,-849 1712,-448 1466,-448"/>
<text text-anchor="middle" x="1589" y="-832.4" font-family="Times Roman,serif" font-size="14.00">xsl.dir</text>
</g>
<g id="graph3" class="cluster"><title>cluster_amc_xsl_dir</title>
<polygon fill="none" stroke="black" points="2090,-462 2090,-539 2276,-539 2276,-462 2090,-462"/>
<text text-anchor="middle" x="2183" y="-522.4" font-family="Times Roman,serif" font-size="14.00">amc.xsl.dir</text>
</g>
<g id="graph4" class="cluster"><title>cluster_legend</title>
<polygon fill="none" stroke="black" points="13,-33 13,-110 322,-110 322,-33 13,-33"/>
<text text-anchor="middle" x="167.5" y="-93.4" font-family="Times Roman,serif" font-size="14.00">legend</text>
</g>
<!-- property -->
<g id="node1" class="node"><title>property</title>
<text text-anchor="middle" x="56" y="-54.9" font-family="Times Roman,serif" font-size="14.00">property</text>
</g>
<!-- target -->
<g id="node18" class="node"><title>target</title>
<polygon fill="none" stroke="black" points="314,-77 260,-77 260,-41 314,-41 314,-77"/>
<text text-anchor="middle" x="287" y="-54.9" font-family="Times Roman,serif" font-size="14.00">target</text>
</g>
<!-- property&#45;&gt;target -->
<!-- cache_dir -->
<g id="node2" class="node"><title>cache_dir</title>
<text text-anchor="middle" x="56" y="-131.9" font-family="Times Roman,serif" font-size="14.00">cache.dir</text>
</g>
<!-- out_dir -->
<g id="node3" class="node"><title>out_dir</title>
<text text-anchor="middle" x="56" y="-185.9" font-family="Times Roman,serif" font-size="14.00">out.dir</text>
</g>
<!-- docs_dir -->
<g id="node4" class="node"><title>docs_dir</title>
<text text-anchor="middle" x="56" y="-239.9" font-family="Times Roman,serif" font-size="14.00">docs.dir</text>
</g>
<!-- smc_config -->
<g id="node5" class="node"><title>smc_config</title>
<text text-anchor="middle" x="1100" y="-1047.9" font-family="Times Roman,serif" font-size="14.00">${smc.config}</text>
</g>
<!-- xsl_dirsmc_init_xsl -->
<g id="node9" class="node"><title>xsl_dirsmc_init_xsl</title>
<ellipse fill="none" stroke="black" cx="1589" cy="-798" rx="62.0391" ry="18"/>
<text text-anchor="middle" x="1589" y="-793.9" font-family="Times Roman,serif" font-size="14.00">smc_init.xsl</text>
</g>
<!-- smc_config&#45;&gt;xsl_dirsmc_init_xsl -->
<g id="edge76" class="edge"><title>smc_config&#45;&gt;xsl_dirsmc_init_xsl</title>
<path fill="none" stroke="black" d="M1151.72,-1059.34C1225.68,-1067.04 1362.97,-1070.63 1456,-1009 1523.62,-964.199 1563.5,-871.979 1580.02,-825.73"/>
<polygon fill="black" stroke="black" points="1583.4,-826.66 1583.37,-816.065 1576.79,-824.367 1583.4,-826.66"/>
<text text-anchor="middle" x="1416" y="-1049.4" font-family="Times Roman,serif" font-size="14.00">in</text>
</g>
<!-- xsl_dir -->
<g id="node6" class="node"><title>xsl_dir</title>
<text text-anchor="middle" x="56" y="-512.9" font-family="Times Roman,serif" font-size="14.00">xsl.dir</text>
</g>
<!-- build_init_props -->
<g id="node7" class="node"><title>build_init_props</title>
<text text-anchor="middle" x="56" y="-889.9" font-family="Times Roman,serif" font-size="14.00">build_init.props</text>
</g>
<!-- cache_dir_dataset_key_xml -->
<g id="node84" class="node"><title>cache_dir_dataset_key_xml</title>
<text text-anchor="middle" x="1931" y="-793.9" font-family="Times Roman,serif" font-size="14.00">${cache.dir}/${dataset.key}.xml</text>
</g>
<!-- xsl_dirsmc_init_xsl&#45;&gt;cache_dir_dataset_key_xml -->
<g id="edge78" class="edge"><title>xsl_dirsmc_init_xsl&#45;&gt;cache_dir_dataset_key_xml</title>
<path fill="none" stroke="black" d="M1651.73,-798C1697.48,-798 1760.79,-798 1815.56,-798"/>
<polygon fill="black" stroke="black" points="1815.69,-801.5 1825.69,-798 1815.69,-794.5 1815.69,-801.5"/>
<text text-anchor="middle" x="1762" y="-802.4" font-family="Times Roman,serif" font-size="14.00">out</text>
</g>
<!-- xsl_dircomp2view_xsl -->
<g id="node10" class="node"><title>xsl_dircomp2view_xsl</title>
<ellipse fill="none" stroke="black" cx="1589" cy="-474" rx="75.2406" ry="18"/>
<text text-anchor="middle" x="1589" y="-469.9" font-family="Times Roman,serif" font-size="14.00">comp2view.xsl</text>
</g>
<!-- out_dir_profiles -->
<g id="node90" class="node"><title>out_dir_profiles</title>
<text text-anchor="middle" x="1931" y="-469.9" font-family="Times Roman,serif" font-size="14.00">${out.dir}/profiles</text>
</g>
<!-- xsl_dircomp2view_xsl&#45;&gt;out_dir_profiles -->
<g id="edge84" class="edge"><title>xsl_dircomp2view_xsl&#45;&gt;out_dir_profiles</title>
<path fill="none" stroke="black" d="M1664.9,-474C1722.91,-474 1802.34,-474 1859.29,-474"/>
<polygon fill="black" stroke="black" points="1859.29,-477.5 1869.29,-474 1859.29,-470.5 1859.29,-477.5"/>
<text text-anchor="middle" x="1762" y="-478.4" font-family="Times Roman,serif" font-size="14.00">out</text>
</g>
<!-- xsl_dirsmc_stats_xsl -->
<g id="node11" class="node"><title>xsl_dirsmc_stats_xsl</title>
<ellipse fill="none" stroke="black" cx="1589" cy="-582" rx="70.878" ry="18"/>
<text text-anchor="middle" x="1589" y="-577.9" font-family="Times Roman,serif" font-size="14.00">smc_stats.xsl</text>
</g>
<!-- out_dir_smc_stats_html -->
<g id="node96" class="node"><title>out_dir_smc_stats_html</title>
<text text-anchor="middle" x="2431" y="-537.9" font-family="Times Roman,serif" font-size="14.00">${out.dir}/smc_stats.html</text>
</g>
<!-- xsl_dirsmc_stats_xsl&#45;&gt;out_dir_smc_stats_html -->
<g id="edge90" class="edge"><title>xsl_dirsmc_stats_xsl&#45;&gt;out_dir_smc_stats_html</title>
<path fill="none" stroke="black" d="M1658.98,-578.676C1809.49,-571.525 2164.17,-554.676 2335.31,-546.546"/>
<polygon fill="black" stroke="black" points="2335.5,-550.041 2345.32,-546.07 2335.17,-543.049 2335.5,-550.041"/>
<text text-anchor="middle" x="2070" y="-564.4" font-family="Times Roman,serif" font-size="14.00">out</text>
</g>
<!-- xsl_dirsmc2stats_datasets_xsl -->
<g id="node12" class="node"><title>xsl_dirsmc2stats_datasets_xsl</title>
<ellipse fill="none" stroke="black" cx="1589" cy="-528" rx="114.155" ry="18"/>
<text text-anchor="middle" x="1589" y="-523.9" font-family="Times Roman,serif" font-size="14.00">smc2stats_datasets.xsl</text>
</g>
<!-- out_dir_smc_stats_dataset_xml -->
<g id="node100" class="node"><title>out_dir_smc_stats_dataset_xml</title>
<text text-anchor="middle" x="1931" y="-523.9" font-family="Times Roman,serif" font-size="14.00">${out.dir}/smc_stats_dataset.xml</text>
</g>
<!-- xsl_dirsmc2stats_datasets_xsl&#45;&gt;out_dir_smc_stats_dataset_xml -->
<g id="edge96" class="edge"><title>xsl_dirsmc2stats_datasets_xsl&#45;&gt;out_dir_smc_stats_dataset_xml</title>
<path fill="none" stroke="black" d="M1703.83,-528C1737.92,-528 1775.36,-528 1809.83,-528"/>
<polygon fill="black" stroke="black" points="1809.95,-531.5 1819.95,-528 1809.95,-524.5 1809.95,-531.5"/>
<text text-anchor="middle" x="1762" y="-532.4" font-family="Times Roman,serif" font-size="14.00">out</text>
</g>
<!-- xsl_dirterms2graph_xsl -->
<g id="node13" class="node"><title>xsl_dirterms2graph_xsl</title>
<ellipse fill="none" stroke="black" cx="1589" cy="-636" rx="80.8024" ry="18"/>
<text text-anchor="middle" x="1589" y="-631.9" font-family="Times Roman,serif" font-size="14.00">terms2graph.xsl</text>
</g>
<!-- out_dir_cmd_dep_graph_xml -->
<g id="node29" class="node"><title>out_dir_cmd_dep_graph_xml</title>
<text text-anchor="middle" x="1100" y="-886.9" font-family="Times Roman,serif" font-size="14.00">${out.dir}/cmd&#45;dep&#45;graph.xml</text>
</g>
<!-- xsl_dirterms2graph_xsl&#45;&gt;out_dir_cmd_dep_graph_xml -->
<g id="edge32" class="edge"><title>xsl_dirterms2graph_xsl&#45;&gt;out_dir_cmd_dep_graph_xml</title>
<path fill="none" stroke="black" d="M1508.52,-639.283C1492.52,-643.578 1477.22,-650.892 1466,-663 1444.34,-686.375 1473.72,-707.516 1456,-734 1433.06,-768.271 1400.18,-747.596 1376,-781 1353.87,-811.576 1386.11,-838.807 1358,-864 1318.46,-899.436 1260.63,-907.961 1209.73,-906.845"/>
<polygon fill="black" stroke="black" points="1209.76,-903.344 1199.65,-906.499 1209.52,-910.34 1209.76,-903.344"/>
<text text-anchor="middle" x="1416" y="-785.4" font-family="Times Roman,serif" font-size="14.00">out</text>
</g>
<!-- out_dir_mdrepo_graph_xml -->
<g id="node55" class="node"><title>out_dir_mdrepo_graph_xml</title>
<text text-anchor="middle" x="1931" y="-631.9" font-family="Times Roman,serif" font-size="14.00">${out.dir}/mdrepo&#45;graph.xml</text>
</g>
<!-- xsl_dirterms2graph_xsl&#45;&gt;out_dir_mdrepo_graph_xml -->
<g id="edge46" class="edge"><title>xsl_dirterms2graph_xsl&#45;&gt;out_dir_mdrepo_graph_xml</title>
<path fill="none" stroke="black" d="M1670.92,-636C1717.04,-636 1775.17,-636 1824.76,-636"/>
<polygon fill="black" stroke="black" points="1824.89,-639.5 1834.89,-636 1824.89,-632.5 1824.89,-639.5"/>
<text text-anchor="middle" x="1762" y="-640.4" font-family="Times Roman,serif" font-size="14.00">out</text>
</g>
<!-- xsl_dirgraph2dot_xsl -->
<g id="node14" class="node"><title>xsl_dirgraph2dot_xsl</title>
<ellipse fill="none" stroke="black" cx="1589" cy="-690" rx="70.878" ry="18"/>
<text text-anchor="middle" x="1589" y="-685.9" font-family="Times Roman,serif" font-size="14.00">graph2dot.xsl</text>
</g>
<!-- out_dir_cmd_dep_graph_dot -->
<g id="node30" class="node"><title>out_dir_cmd_dep_graph_dot</title>
<text text-anchor="middle" x="1931" y="-685.9" font-family="Times Roman,serif" font-size="14.00">${out.dir}/cmd&#45;dep&#45;graph.dot</text>
</g>
<!-- xsl_dirgraph2dot_xsl&#45;&gt;out_dir_cmd_dep_graph_dot -->
<g id="edge16" class="edge"><title>xsl_dirgraph2dot_xsl&#45;&gt;out_dir_cmd_dep_graph_dot</title>
<path fill="none" stroke="black" d="M1660.28,-690C1706.99,-690 1768.97,-690 1821.83,-690"/>
<polygon fill="black" stroke="black" points="1821.93,-693.5 1831.93,-690 1821.93,-686.5 1821.93,-693.5"/>
<text text-anchor="middle" x="1762" y="-694.4" font-family="Times Roman,serif" font-size="14.00">out</text>
</g>
<!-- xsl_dirgraph2json_d3_xsl -->
<g id="node15" class="node"><title>xsl_dirgraph2json_d3_xsl</title>
<ellipse fill="none" stroke="black" cx="1589" cy="-744" rx="89.139" ry="18"/>
<text text-anchor="middle" x="1589" y="-739.9" font-family="Times Roman,serif" font-size="14.00">graph2json&#45;d3.xsl</text>
</g>
<!-- out_dir_cmd_dep_graph_d3_js -->
<g id="node37" class="node"><title>out_dir_cmd_dep_graph_d3_js</title>
<text text-anchor="middle" x="1931" y="-739.9" font-family="Times Roman,serif" font-size="14.00">${out.dir}/cmd&#45;dep&#45;graph.d3.js</text>
</g>
<!-- xsl_dirgraph2json_d3_xsl&#45;&gt;out_dir_cmd_dep_graph_d3_js -->
<g id="edge26" class="edge"><title>xsl_dirgraph2json_d3_xsl&#45;&gt;out_dir_cmd_dep_graph_d3_js</title>
<path fill="none" stroke="black" d="M1678.86,-744C1721.08,-744 1771.9,-744 1816.82,-744"/>
<polygon fill="black" stroke="black" points="1816.9,-747.5 1826.9,-744 1816.9,-740.5 1816.9,-747.5"/>
<text text-anchor="middle" x="1762" y="-748.4" font-family="Times Roman,serif" font-size="14.00">out</text>
</g>
<!-- amc_xsl_dir_dataset2html_xsl -->
<g id="node17" class="node"><title>amc_xsl_dir_dataset2html_xsl</title>
<ellipse fill="none" stroke="black" cx="2183" cy="-488" rx="84.7756" ry="18"/>
<text text-anchor="middle" x="2183" y="-483.9" font-family="Times Roman,serif" font-size="14.00">/dataset2html.xsl</text>
</g>
<!-- amc_xsl_dir_dataset2html_xsl&#45;&gt;out_dir_smc_stats_html -->
<g id="edge110" class="edge"><title>amc_xsl_dir_dataset2html_xsl&#45;&gt;out_dir_smc_stats_html</title>
<path fill="none" stroke="black" d="M2242.4,-500.934C2271.1,-507.184 2306.21,-514.827 2338.32,-521.819"/>
<polygon fill="black" stroke="black" points="2337.66,-525.257 2348.17,-523.965 2339.15,-518.418 2337.66,-525.257"/>
<text text-anchor="middle" x="2296" y="-518.4" font-family="Times Roman,serif" font-size="14.00">out</text>
</g>
<!-- out_dir_smc_stats_detail_html -->
<g id="node106" class="node"><title>out_dir_smc_stats_detail_html</title>
<text text-anchor="middle" x="2431" y="-483.9" font-family="Times Roman,serif" font-size="14.00">${out.dir}/smc_stats_detail.html</text>
</g>
<!-- amc_xsl_dir_dataset2html_xsl&#45;&gt;out_dir_smc_stats_detail_html -->
<g id="edge104" class="edge"><title>amc_xsl_dir_dataset2html_xsl&#45;&gt;out_dir_smc_stats_detail_html</title>
<path fill="none" stroke="black" d="M2268,-488C2282.84,-488 2298.51,-488 2314.03,-488"/>
<polygon fill="black" stroke="black" points="2314.19,-491.5 2324.19,-488 2314.19,-484.5 2314.19,-491.5"/>
<text text-anchor="middle" x="2296" y="-492.4" font-family="Times Roman,serif" font-size="14.00">out</text>
</g>
<!-- gen_build_info -->
<g id="node19" class="node"><title>gen_build_info</title>
<polygon fill="none" stroke="black" points="338,-1282 236,-1282 236,-1246 338,-1246 338,-1282"/>
<text text-anchor="middle" x="287" y="-1259.9" font-family="Times Roman,serif" font-size="14.00">gen&#45;build&#45;info</text>
</g>
<!-- gen_build_info&#45;&gt;gen_build_info -->
<g id="edge4" class="edge"><title>gen_build_info&#45;&gt;gen_build_info</title>
<path fill="none" stroke="black" d="M264.929,-1282.15C261.534,-1291.54 268.891,-1300 287,-1300 298.035,-1300 305.078,-1296.86 308.128,-1292.28"/>
<polygon fill="black" stroke="black" points="311.628,-1292.43 309.071,-1282.15 304.659,-1291.79 311.628,-1292.43"/>
<text text-anchor="middle" x="287" y="-1304.4" font-family="Times Roman,serif" font-size="14.00">1: ant</text>
</g>
<!-- gen_cmd_dep_graph -->
<g id="node21" class="node"><title>gen_cmd_dep_graph</title>
<polygon fill="none" stroke="black" points="358,-802 216,-802 216,-766 358,-766 358,-802"/>
<text text-anchor="middle" x="287" y="-779.9" font-family="Times Roman,serif" font-size="14.00">gen&#45;cmd&#45;dep&#45;graph</text>
</g>
<!-- gen_cmd_dep_graph_dot -->
<g id="node23" class="node"><title>gen_cmd_dep_graph_dot</title>
<polygon fill="none" stroke="black" points="632,-802 466,-802 466,-766 632,-766 632,-802"/>
<text text-anchor="middle" x="549" y="-779.9" font-family="Times Roman,serif" font-size="14.00">gen&#45;cmd&#45;dep&#45;graph&#45;dot</text>
</g>
<!-- gen_cmd_dep_graph&#45;&gt;gen_cmd_dep_graph_dot -->
<g id="edge6" class="edge"><title>gen_cmd_dep_graph&#45;&gt;gen_cmd_dep_graph_dot</title>
<path fill="none" stroke="black" d="M358.247,-784C388.054,-784 423.115,-784 454.992,-784"/>
<polygon fill="black" stroke="black" points="455.219,-787.5 465.219,-784 455.219,-780.5 455.219,-787.5"/>
<text text-anchor="middle" x="410" y="-788.4" font-family="Times Roman,serif" font-size="14.00">1 depends</text>
</g>
<!-- gen_cmd_dep_graph_json -->
<g id="node25" class="node"><title>gen_cmd_dep_graph_json</title>
<polygon fill="none" stroke="black" points="635,-875 463,-875 463,-839 635,-839 635,-875"/>
<text text-anchor="middle" x="549" y="-852.9" font-family="Times Roman,serif" font-size="14.00">gen&#45;cmd&#45;dep&#45;graph&#45;json</text>
</g>
<!-- gen_cmd_dep_graph&#45;&gt;gen_cmd_dep_graph_json -->
<g id="edge8" class="edge"><title>gen_cmd_dep_graph&#45;&gt;gen_cmd_dep_graph_json</title>
<path fill="none" stroke="black" d="M351.764,-802.045C388.923,-812.398 435.731,-825.44 474.422,-836.221"/>
<polygon fill="black" stroke="black" points="473.5,-839.597 484.073,-838.91 475.379,-832.854 473.5,-839.597"/>
<text text-anchor="middle" x="410" y="-832.4" font-family="Times Roman,serif" font-size="14.00">2 depends</text>
</g>
<!-- gen_cmd_dep_graph_dot&#45;&gt;xsl_dirgraph2dot_xsl -->
<g id="edge12" class="edge"><title>gen_cmd_dep_graph_dot&#45;&gt;xsl_dirgraph2dot_xsl</title>
<path fill="none" stroke="black" d="M632.553,-785.94C851.093,-790.635 1424.94,-800.376 1456,-774 1475.6,-757.351 1448.2,-735.569 1466,-717 1477.28,-705.236 1492.41,-698.034 1508.2,-693.734"/>
<polygon fill="black" stroke="black" points="1509.15,-697.106 1518.09,-691.417 1507.56,-690.29 1509.15,-697.106"/>
<text text-anchor="middle" x="1100" y="-796.4" font-family="Times Roman,serif" font-size="14.00">1: saxon&#45;xslt</text>
</g>
<!-- gen_cmd_dep_graph_xml -->
<g id="node27" class="node"><title>gen_cmd_dep_graph_xml</title>
<polygon fill="none" stroke="black" points="1184,-855 1016,-855 1016,-819 1184,-819 1184,-855"/>
<text text-anchor="middle" x="1100" y="-832.9" font-family="Times Roman,serif" font-size="14.00">gen&#45;cmd&#45;dep&#45;graph&#45;xml</text>
</g>
<!-- gen_cmd_dep_graph_dot&#45;&gt;gen_cmd_dep_graph_xml -->
<g id="edge10" class="edge"><title>gen_cmd_dep_graph_dot&#45;&gt;gen_cmd_dep_graph_xml</title>
<path fill="none" stroke="black" d="M632.668,-792.845C639.882,-793.584 647.069,-794.311 654,-795 775.28,-807.063 915.206,-820.096 1005.5,-828.391"/>
<polygon fill="black" stroke="black" points="1005.44,-831.9 1015.72,-829.328 1006.08,-824.929 1005.44,-831.9"/>
<text text-anchor="middle" x="739" y="-815.4" font-family="Times Roman,serif" font-size="14.00">1 depends</text>
</g>
<!-- dot -->
<g id="node34" class="node"><title>dot</title>
<ellipse fill="none" stroke="black" cx="1100" cy="-622" rx="27" ry="18"/>
<text text-anchor="middle" x="1100" y="-617.9" font-family="Times Roman,serif" font-size="14.00">dot</text>
</g>
<!-- gen_cmd_dep_graph_dot&#45;&gt;dot -->
<g id="edge18" class="edge"><title>gen_cmd_dep_graph_dot&#45;&gt;dot</title>
<path fill="none" stroke="black" d="M579.371,-765.909C631.217,-735.985 741.005,-676.736 842,-649 918.426,-628.012 1011.7,-623.12 1062.54,-622.113"/>
<polygon fill="black" stroke="black" points="1062.78,-625.61 1072.72,-621.953 1062.67,-618.611 1062.78,-625.61"/>
<text text-anchor="middle" x="739" y="-728.4" font-family="Times Roman,serif" font-size="14.00">2: exec</text>
</g>
<!-- gen_cmd_dep_graph_json&#45;&gt;xsl_dirgraph2json_d3_xsl -->
<g id="edge22" class="edge"><title>gen_cmd_dep_graph_json&#45;&gt;xsl_dirgraph2json_d3_xsl</title>
<path fill="none" stroke="black" d="M615.882,-875.016C674.875,-889.921 763.438,-909.909 842,-918 909.863,-924.989 1406.38,-963.817 1456,-917 1479.65,-894.683 1444.76,-795.629 1466,-771 1473.21,-762.633 1482.37,-756.517 1492.43,-752.09"/>
<polygon fill="black" stroke="black" points="1493.79,-755.317 1501.88,-748.483 1491.29,-748.777 1493.79,-755.317"/>
<text text-anchor="middle" x="1100" y="-944.4" font-family="Times Roman,serif" font-size="14.00">1: saxon&#45;xslt</text>
</g>
<!-- gen_cmd_dep_graph_json&#45;&gt;gen_cmd_dep_graph_xml -->
<g id="edge20" class="edge"><title>gen_cmd_dep_graph_json&#45;&gt;gen_cmd_dep_graph_xml</title>
<path fill="none" stroke="black" d="M635.7,-853.853C736.301,-850.201 901.618,-844.201 1005.45,-840.432"/>
<polygon fill="black" stroke="black" points="1005.75,-843.924 1015.61,-840.063 1005.49,-836.928 1005.75,-843.924"/>
<text text-anchor="middle" x="739" y="-858.4" font-family="Times Roman,serif" font-size="14.00">1 depends</text>
</g>
<!-- gen_cmd_dep_graph_xml&#45;&gt;xsl_dirterms2graph_xsl -->
<g id="edge28" class="edge"><title>gen_cmd_dep_graph_xml&#45;&gt;xsl_dirterms2graph_xsl</title>
<path fill="none" stroke="black" d="M1184.15,-849.785C1240.35,-853.322 1312.1,-847.437 1358,-805 1387.31,-777.899 1348.9,-746.31 1376,-717 1401.12,-689.838 1429.42,-719.737 1456,-694 1466.4,-683.929 1455.28,-672.734 1466,-663 1475.8,-654.097 1487.85,-647.896 1500.53,-643.616"/>
<polygon fill="black" stroke="black" points="1501.74,-646.908 1510.33,-640.704 1499.74,-640.198 1501.74,-646.908"/>
<text text-anchor="middle" x="1416" y="-721.4" font-family="Times Roman,serif" font-size="14.00">1: saxon&#45;xslt</text>
</g>
<!-- out_dir_cmd_dep_graph_xml&#45;&gt;xsl_dirgraph2dot_xsl -->
<g id="edge14" class="edge"><title>out_dir_cmd_dep_graph_xml&#45;&gt;xsl_dirgraph2dot_xsl</title>
<path fill="none" stroke="black" d="M1199.64,-902.633C1251.22,-903.535 1312.71,-896.086 1358,-864 1373.25,-853.197 1361.83,-838.18 1376,-826 1404.15,-801.805 1432.14,-830.434 1456,-802 1480.45,-772.863 1440.47,-745.195 1466,-717 1477,-704.855 1492.1,-697.507 1507.96,-693.188"/>
<polygon fill="black" stroke="black" points="1508.95,-696.55 1517.9,-690.875 1507.37,-689.732 1508.95,-696.55"/>
<text text-anchor="middle" x="1416" y="-830.4" font-family="Times Roman,serif" font-size="14.00">in</text>
</g>
<!-- out_dir_cmd_dep_graph_xml&#45;&gt;xsl_dirgraph2json_d3_xsl -->
<g id="edge24" class="edge"><title>out_dir_cmd_dep_graph_xml&#45;&gt;xsl_dirgraph2json_d3_xsl</title>
<path fill="none" stroke="black" d="M1196.87,-909.016C1277.98,-917.979 1390.67,-915.065 1456,-847 1479.59,-822.422 1442.96,-796.095 1466,-771 1473.53,-762.801 1482.93,-756.795 1493.16,-752.434"/>
<polygon fill="black" stroke="black" points="1494.59,-755.635 1502.75,-748.877 1492.16,-749.071 1494.59,-755.635"/>
<text text-anchor="middle" x="1416" y="-900.4" font-family="Times Roman,serif" font-size="14.00">in</text>
</g>
<!-- cache_dir_cmd_terms_nested_xml -->
<g id="node41" class="node"><title>cache_dir_cmd_terms_nested_xml</title>
<text text-anchor="middle" x="1100" y="-725.9" font-family="Times Roman,serif" font-size="14.00">${cache.dir}/cmd&#45;terms&#45;nested.xml</text>
</g>
<!-- cache_dir_cmd_terms_nested_xml&#45;&gt;xsl_dirterms2graph_xsl -->
<g id="edge30" class="edge"><title>cache_dir_cmd_terms_nested_xml&#45;&gt;xsl_dirterms2graph_xsl</title>
<path fill="none" stroke="black" d="M1218.65,-738.153C1264.91,-736.264 1316.64,-727.501 1358,-703 1370.09,-695.837 1364.23,-684.675 1376,-677 1387.57,-669.458 1455.82,-657.097 1511.99,-647.916"/>
<polygon fill="black" stroke="black" points="1512.65,-651.355 1521.96,-646.299 1511.53,-644.445 1512.65,-651.355"/>
<text text-anchor="middle" x="1416" y="-681.4" font-family="Times Roman,serif" font-size="14.00">in</text>
</g>
<!-- gen_docs -->
<g id="node44" class="node"><title>gen_docs</title>
<polygon fill="none" stroke="black" points="94,-1228 18,-1228 18,-1192 94,-1192 94,-1228"/>
<text text-anchor="middle" x="56" y="-1205.9" font-family="Times Roman,serif" font-size="14.00">gen&#45;docs</text>
</g>
<!-- gen_docs&#45;&gt;gen_build_info -->
<g id="edge34" class="edge"><title>gen_docs&#45;&gt;gen_build_info</title>
<path fill="none" stroke="black" d="M94.2727,-1221.41C105.72,-1224.67 118.331,-1228.12 130,-1231 161.447,-1238.76 196.72,-1246.28 225.855,-1252.17"/>
<polygon fill="black" stroke="black" points="225.395,-1255.65 235.888,-1254.19 226.774,-1248.79 225.395,-1255.65"/>
<text text-anchor="middle" x="164" y="-1249.4" font-family="Times Roman,serif" font-size="14.00">1 depends</text>
</g>
<!-- gen_jsdocs -->
<g id="node47" class="node"><title>gen_jsdocs</title>
<polygon fill="none" stroke="black" points="330,-1228 244,-1228 244,-1192 330,-1192 330,-1228"/>
<text text-anchor="middle" x="287" y="-1205.9" font-family="Times Roman,serif" font-size="14.00">gen&#45;jsdocs</text>
</g>
<!-- gen_docs&#45;&gt;gen_jsdocs -->
<g id="edge36" class="edge"><title>gen_docs&#45;&gt;gen_jsdocs</title>
<path fill="none" stroke="black" d="M94.145,-1210C132.028,-1210 190.459,-1210 233.079,-1210"/>
<polygon fill="black" stroke="black" points="233.279,-1213.5 243.279,-1210 233.279,-1206.5 233.279,-1213.5"/>
<text text-anchor="middle" x="164" y="-1214.4" font-family="Times Roman,serif" font-size="14.00">2 depends</text>
</g>
<!-- gen_xsldocs -->
<g id="node49" class="node"><title>gen_xsldocs</title>
<polygon fill="none" stroke="black" points="333,-1127 241,-1127 241,-1091 333,-1091 333,-1127"/>
<text text-anchor="middle" x="287" y="-1104.9" font-family="Times Roman,serif" font-size="14.00">gen&#45;xsldocs</text>
</g>
<!-- gen_docs&#45;&gt;gen_xsldocs -->
<g id="edge38" class="edge"><title>gen_docs&#45;&gt;gen_xsldocs</title>
<path fill="none" stroke="black" d="M94.145,-1193.32C132.983,-1176.34 193.418,-1149.92 236.272,-1131.18"/>
<polygon fill="black" stroke="black" points="237.917,-1134.28 245.677,-1127.07 235.112,-1127.87 237.917,-1134.28"/>
<text text-anchor="middle" x="164" y="-1181.4" font-family="Times Roman,serif" font-size="14.00">3 depends</text>
</g>
<!-- gen_jsdoc -->
<g id="node51" class="node"><title>gen_jsdoc</title>
<polygon fill="none" stroke="black" stroke-dasharray="1,5" points="590,-1232 508,-1232 508,-1196 590,-1196 590,-1232"/>
<text text-anchor="middle" x="549" y="-1209.9" font-family="Times Roman,serif" font-size="14.00">gen_jsdoc</text>
</g>
<!-- gen_jsdocs&#45;&gt;gen_jsdoc -->
<g id="edge40" class="edge"><title>gen_jsdocs&#45;&gt;gen_jsdoc</title>
<path fill="none" stroke="black" stroke-dasharray="1,5" d="M330.558,-1210.67C376.338,-1211.36 448.34,-1212.46 497.05,-1213.21"/>
<polygon fill="black" stroke="black" points="497.02,-1216.71 507.073,-1213.36 497.127,-1209.71 497.02,-1216.71"/>
<text text-anchor="middle" x="410" y="-1216.4" font-family="Times Roman,serif" font-size="14.00">1: ant</text>
</g>
<!-- ay_xsl -->
<g id="node72" class="node"><title>ay_xsl</title>
<polygon fill="none" stroke="black" stroke-dasharray="1,5" points="577,-1178 521,-1178 521,-1142 577,-1142 577,-1178"/>
<text text-anchor="middle" x="549" y="-1155.9" font-family="Times Roman,serif" font-size="14.00">ay_xsl</text>
</g>
<!-- gen_xsldocs&#45;&gt;ay_xsl -->
<g id="edge62" class="edge"><title>gen_xsldocs&#45;&gt;ay_xsl</title>
<path fill="none" stroke="black" stroke-dasharray="1,5" d="M333.603,-1119.2C347.25,-1122.12 362.209,-1125.25 376,-1128 422.151,-1137.19 475.409,-1146.91 510.506,-1153.19"/>
<polygon fill="black" stroke="black" points="510.328,-1156.72 520.787,-1155.03 511.558,-1149.82 510.328,-1156.72"/>
<text text-anchor="middle" x="410" y="-1144.4" font-family="Times Roman,serif" font-size="14.00">2: ant</text>
</g>
<!-- gen_dep_graph -->
<g id="node74" class="node"><title>gen_dep_graph</title>
<polygon fill="none" stroke="black" stroke-dasharray="1,5" points="607,-1124 491,-1124 491,-1088 607,-1088 607,-1124"/>
<text text-anchor="middle" x="549" y="-1101.9" font-family="Times Roman,serif" font-size="14.00">gen_dep_graph</text>
</g>
<!-- gen_xsldocs&#45;&gt;gen_dep_graph -->
<g id="edge64" class="edge"><title>gen_xsldocs&#45;&gt;gen_dep_graph</title>
<path fill="none" stroke="black" stroke-dasharray="1,5" d="M333.538,-1108.47C374.141,-1108 433.614,-1107.32 479.796,-1106.79"/>
<polygon fill="black" stroke="black" points="480.073,-1110.29 490.032,-1106.68 479.992,-1103.29 480.073,-1110.29"/>
<text text-anchor="middle" x="410" y="-1111.4" font-family="Times Roman,serif" font-size="14.00">3: ant</text>
</g>
<!-- gen_dep_graph_each -->
<g id="node76" class="node"><title>gen_dep_graph_each</title>
<polygon fill="none" stroke="black" stroke-dasharray="1,5" points="627,-1070 471,-1070 471,-1034 627,-1034 627,-1070"/>
<text text-anchor="middle" x="549" y="-1047.9" font-family="Times Roman,serif" font-size="14.00">gen_dep_graph_each</text>
</g>
<!-- gen_xsldocs&#45;&gt;gen_dep_graph_each -->
<g id="edge66" class="edge"><title>gen_xsldocs&#45;&gt;gen_dep_graph_each</title>
<path fill="none" stroke="black" stroke-dasharray="1,5" d="M333.526,-1096.43C347.173,-1092.89 362.15,-1089.15 376,-1086 403.514,-1079.75 433.644,-1073.59 460.939,-1068.27"/>
<polygon fill="black" stroke="black" points="461.704,-1071.68 470.856,-1066.35 460.373,-1064.81 461.704,-1071.68"/>
<text text-anchor="middle" x="410" y="-1090.4" font-family="Times Roman,serif" font-size="14.00">4: ant</text>
</g>
<!-- gen_mdrepo_graph_xml -->
<g id="node52" class="node"><title>gen_mdrepo_graph_xml</title>
<polygon fill="none" stroke="black" points="1180,-532 1020,-532 1020,-496 1180,-496 1180,-532"/>
<text text-anchor="middle" x="1100" y="-509.9" font-family="Times Roman,serif" font-size="14.00">gen&#45;mdrepo&#45;graph&#45;xml</text>
</g>
<!-- gen_mdrepo_graph_xml&#45;&gt;xsl_dirterms2graph_xsl -->
<g id="edge42" class="edge"><title>gen_mdrepo_graph_xml&#45;&gt;xsl_dirterms2graph_xsl</title>
<path fill="none" stroke="black" d="M1180.65,-503.966C1235.09,-501.361 1306.19,-506.47 1358,-541 1371.9,-550.265 1362.72,-563.859 1376,-574 1405.04,-596.184 1426.31,-571.686 1456,-593 1462.81,-597.891 1459.15,-604.168 1466,-609 1477.14,-616.857 1490.16,-622.488 1503.47,-626.512"/>
<polygon fill="black" stroke="black" points="1502.62,-629.909 1513.19,-629.166 1504.46,-623.156 1502.62,-629.909"/>
<text text-anchor="middle" x="1416" y="-597.4" font-family="Times Roman,serif" font-size="14.00">1: saxon&#45;xslt</text>
</g>
<!-- cache_dir_mdrepo_structure_University_of_T_bingen_TextCorpusProfile_8_xml -->
<g id="node54" class="node"><title>cache_dir_mdrepo_structure_University_of_T_bingen_TextCorpusProfile_8_xml</title>
<text text-anchor="middle" x="1100" y="-563.9" font-family="Times Roman,serif" font-size="14.00">${cache.dir}/mdrepo/structure&#45;University_of_T_bingen&#45;TextCorpusProfile&#45;8.xml</text>
</g>
<!-- cache_dir_mdrepo_structure_University_of_T_bingen_TextCorpusProfile_8_xml&#45;&gt;xsl_dirterms2graph_xsl -->
<g id="edge44" class="edge"><title>cache_dir_mdrepo_structure_University_of_T_bingen_TextCorpusProfile_8_xml&#45;&gt;xsl_dirterms2graph_xsl</title>
<path fill="none" stroke="black" d="M1337.42,-586.045C1344.46,-588.736 1351.34,-591.712 1358,-595 1368.43,-600.147 1365.56,-608.86 1376,-614 1413.97,-632.7 1460.29,-639.119 1500.02,-640.482"/>
<polygon fill="black" stroke="black" points="1500.16,-643.986 1510.24,-640.727 1500.33,-636.988 1500.16,-643.986"/>
<text text-anchor="middle" x="1416" y="-641.4" font-family="Times Roman,serif" font-size="14.00">in</text>
</g>
<!-- gen_out -->
<g id="node58" class="node"><title>gen_out</title>
<polygon fill="none" stroke="black" points="88,-316 24,-316 24,-280 88,-280 88,-316"/>
<text text-anchor="middle" x="56" y="-293.9" font-family="Times Roman,serif" font-size="14.00">gen&#45;out</text>
</g>
<!-- gen_out&#45;&gt;gen_cmd_dep_graph -->
<g id="edge52" class="edge"><title>gen_out&#45;&gt;gen_cmd_dep_graph</title>
<path fill="none" stroke="black" d="M64.6339,-316.165C99.7256,-389.994 231.795,-667.854 273.969,-756.583"/>
<polygon fill="black" stroke="black" points="270.869,-758.215 278.323,-765.744 277.191,-755.21 270.869,-758.215"/>
<text text-anchor="middle" x="164" y="-589.4" font-family="Times Roman,serif" font-size="14.00">3 depends</text>
</g>
<!-- init_out -->
<g id="node60" class="node"><title>init_out</title>
<polygon fill="none" stroke="black" points="315,-257 259,-257 259,-221 315,-221 315,-257"/>
<text text-anchor="middle" x="287" y="-234.9" font-family="Times Roman,serif" font-size="14.00">init&#45;out</text>
</g>
<!-- gen_out&#45;&gt;init_out -->
<g id="edge48" class="edge"><title>gen_out&#45;&gt;init_out</title>
<path fill="none" stroke="black" d="M88.2227,-282.683C101.001,-277.092 115.971,-271.134 130,-267 169.489,-255.362 216.071,-247.797 248.184,-243.5"/>
<polygon fill="black" stroke="black" points="249.021,-246.921 258.489,-242.167 248.123,-239.979 249.021,-246.921"/>
<text text-anchor="middle" x="164" y="-271.4" font-family="Times Roman,serif" font-size="14.00">1 depends</text>
</g>
<!-- smc_stats2 -->
<g id="node62" class="node"><title>smc_stats2</title>
<polygon fill="none" stroke="black" points="1143,-316 1057,-316 1057,-280 1143,-280 1143,-316"/>
<text text-anchor="middle" x="1100" y="-293.9" font-family="Times Roman,serif" font-size="14.00">smc&#45;stats2</text>
</g>
<!-- gen_out&#45;&gt;smc_stats2 -->
<g id="edge50" class="edge"><title>gen_out&#45;&gt;smc_stats2</title>
<path fill="none" stroke="black" d="M88.1017,-298C236.874,-298 859.944,-298 1046.8,-298"/>
<polygon fill="black" stroke="black" points="1046.93,-301.5 1056.93,-298 1046.93,-294.5 1046.93,-301.5"/>
<text text-anchor="middle" x="410" y="-302.4" font-family="Times Roman,serif" font-size="14.00">2 depends</text>
</g>
<!-- gen_userdocs -->
<g id="node64" class="node"><title>gen_userdocs</title>
<polygon fill="none" stroke="black" points="601,-247 497,-247 497,-211 601,-211 601,-247"/>
<text text-anchor="middle" x="549" y="-224.9" font-family="Times Roman,serif" font-size="14.00">gen&#45;userdocs</text>
</g>
<!-- init_out&#45;&gt;gen_userdocs -->
<g id="edge72" class="edge"><title>init_out&#45;&gt;gen_userdocs</title>
<path fill="none" stroke="black" d="M315.537,-237.911C356.343,-236.353 432.411,-233.45 486.627,-231.381"/>
<polygon fill="black" stroke="black" points="486.962,-234.87 496.822,-230.992 486.695,-227.876 486.962,-234.87"/>
<text text-anchor="middle" x="410" y="-240.4" font-family="Times Roman,serif" font-size="14.00">1 depends</text>
</g>
<!-- smc_stats2&#45;&gt;xsl_dirsmc2stats_datasets_xsl -->
<g id="edge92" class="edge"><title>smc_stats2&#45;&gt;xsl_dirsmc2stats_datasets_xsl</title>
<path fill="none" stroke="black" d="M1143.14,-288.56C1199.96,-278.876 1299.51,-271.836 1358,-325 1387.86,-352.145 1348.63,-384.34 1376,-414 1401.09,-441.19 1431.52,-409.258 1456,-437 1475.05,-458.589 1446.27,-480.03 1466,-501 1470.78,-506.082 1476.28,-510.317 1482.25,-513.836"/>
<polygon fill="black" stroke="black" points="1480.8,-517.027 1491.29,-518.496 1484.01,-510.805 1480.8,-517.027"/>
<text text-anchor="middle" x="1416" y="-441.4" font-family="Times Roman,serif" font-size="14.00">1: saxon&#45;xslt</text>
</g>
<!-- smc_stats2&#45;&gt;amc_xsl_dir_dataset2html_xsl -->
<g id="edge100" class="edge"><title>smc_stats2&#45;&gt;amc_xsl_dir_dataset2html_xsl</title>
<path fill="none" stroke="black" d="M1143.42,-302.041C1194.74,-306.934 1282.69,-315.683 1358,-325 1664.46,-362.912 1741.52,-375.815 2042,-447 2069.81,-453.589 2100.31,-462.271 2125.8,-469.948"/>
<polygon fill="black" stroke="black" points="2125.09,-473.389 2135.67,-472.945 2127.12,-466.691 2125.09,-473.389"/>
<text text-anchor="middle" x="1762" y="-397.4" font-family="Times Roman,serif" font-size="14.00">3: saxon&#45;xslt</text>
</g>
<!-- smc_stats2&#45;&gt;amc_xsl_dir_dataset2html_xsl -->
<g id="edge106" class="edge"><title>smc_stats2&#45;&gt;amc_xsl_dir_dataset2html_xsl</title>
<path fill="none" stroke="black" d="M1143.31,-294.155C1280.75,-283.642 1717.15,-263.323 2042,-394 2084.55,-411.115 2127.56,-442.237 2154.69,-463.964"/>
<polygon fill="black" stroke="black" points="2152.62,-466.789 2162.58,-470.38 2157.03,-461.357 2152.62,-466.789"/>
<text text-anchor="middle" x="1762" y="-328.4" font-family="Times Roman,serif" font-size="14.00">4: saxon&#45;xslt</text>
</g>
<!-- rst2html -->
<g id="node66" class="node"><title>rst2html</title>
<polygon fill="none" stroke="black" stroke-dasharray="1,5" points="1133,-244 1067,-244 1067,-208 1133,-208 1133,-244"/>
<text text-anchor="middle" x="1100" y="-221.9" font-family="Times Roman,serif" font-size="14.00">rst2html</text>
</g>
<!-- gen_userdocs&#45;&gt;rst2html -->
<g id="edge54" class="edge"><title>gen_userdocs&#45;&gt;rst2html</title>
<path fill="none" stroke="black" stroke-dasharray="1,5" d="M601.07,-227.835C617.954,-227.504 636.771,-227.183 654,-227 801.828,-225.426 977.233,-225.644 1056.85,-225.856"/>
<polygon fill="black" stroke="black" points="1056.98,-229.356 1066.99,-225.884 1057,-222.356 1056.98,-229.356"/>
<text text-anchor="middle" x="739" y="-231.4" font-family="Times Roman,serif" font-size="14.00">1: ant</text>
</g>
<!-- gen_userdocs&#45;&gt;rst2html -->
<g id="edge56" class="edge"><title>gen_userdocs&#45;&gt;rst2html</title>
<path fill="none" stroke="black" stroke-dasharray="1,5" d="M601.211,-214.635C617.937,-210.69 636.626,-206.96 654,-205 801.067,-188.406 976.846,-208.245 1056.71,-219.403"/>
<polygon fill="black" stroke="black" points="1056.48,-222.906 1066.87,-220.849 1057.46,-215.975 1056.48,-222.906"/>
<text text-anchor="middle" x="739" y="-209.4" font-family="Times Roman,serif" font-size="14.00">2: ant</text>
</g>
<!-- gen_userdocs&#45;&gt;rst2html -->
<g id="edge58" class="edge"><title>gen_userdocs&#45;&gt;rst2html</title>
<path fill="none" stroke="black" stroke-dasharray="1,5" d="M601.184,-237.944C617.991,-240.425 636.734,-242.773 654,-244 801.585,-254.489 977.109,-239.32 1056.81,-230.931"/>
<polygon fill="black" stroke="black" points="1057.38,-234.39 1066.95,-229.845 1056.63,-227.429 1057.38,-234.39"/>
<text text-anchor="middle" x="739" y="-252.4" font-family="Times Roman,serif" font-size="14.00">3: ant</text>
</g>
<!-- out_fn -->
<g id="node69" class="node"><title>out_fn</title>
<text text-anchor="middle" x="56" y="-1104.9" font-family="Times Roman,serif" font-size="14.00">out_fn</text>
</g>
<!-- out_fn&#45;&gt;gen_xsldocs -->
<g id="edge60" class="edge"><title>out_fn&#45;&gt;gen_xsldocs</title>
<path fill="none" stroke="black" d="M84.3251,-1109C120.503,-1109 183.961,-1109 230.255,-1109"/>
<polygon fill="black" stroke="black" points="230.445,-1112.5 240.445,-1109 230.445,-1105.5 230.445,-1112.5"/>
<text text-anchor="middle" x="164" y="-1113.4" font-family="Times Roman,serif" font-size="14.00">1: property</text>
</g>
<!-- init_data -->
<g id="node77" class="node"><title>init_data</title>
<polygon fill="none" stroke="black" points="581,-1016 517,-1016 517,-980 581,-980 581,-1016"/>
<text text-anchor="middle" x="549" y="-993.9" font-family="Times Roman,serif" font-size="14.00">init&#45;data</text>
</g>
<!-- init_step -->
<g id="node81" class="node"><title>init_step</title>
<polygon fill="none" stroke="black" points="1133,-1016 1067,-1016 1067,-980 1133,-980 1133,-1016"/>
<text text-anchor="middle" x="1100" y="-993.9" font-family="Times Roman,serif" font-size="14.00">init&#45;step</text>
</g>
<!-- init_data&#45;&gt;init_step -->
<g id="edge70" class="edge"><title>init_data&#45;&gt;init_step</title>
<path fill="none" stroke="black" d="M581.817,-998C676.436,-998 949.805,-998 1056.56,-998"/>
<polygon fill="black" stroke="black" points="1056.66,-1001.5 1066.66,-998 1056.66,-994.5 1056.66,-1001.5"/>
<text text-anchor="middle" x="739" y="-1019.4" font-family="Times Roman,serif" font-size="14.00">3: foreach (init_sequence) </text>
<text text-anchor="middle" x="739" y="-1002.4" font-family="Times Roman,serif" font-size="14.00"> as dataset_key</text>
</g>
<!-- init_sequence -->
<g id="node78" class="node"><title>init_sequence</title>
<text text-anchor="middle" x="287" y="-993.9" font-family="Times Roman,serif" font-size="14.00">init_sequence</text>
</g>
<!-- init_sequence&#45;&gt;init_data -->
<g id="edge68" class="edge"><title>init_sequence&#45;&gt;init_data</title>
<path fill="none" stroke="black" d="M339.704,-998C388.641,-998 460.604,-998 506.114,-998"/>
<polygon fill="black" stroke="black" points="506.245,-1001.5 516.245,-998 506.245,-994.5 506.245,-1001.5"/>
<text text-anchor="middle" x="410" y="-1002.4" font-family="Times Roman,serif" font-size="14.00">2: property</text>
</g>
<!-- init_step&#45;&gt;xsl_dirsmc_init_xsl -->
<g id="edge74" class="edge"><title>init_step&#45;&gt;xsl_dirsmc_init_xsl</title>
<path fill="none" stroke="black" d="M1133.08,-1002.24C1198.98,-1009.08 1349.43,-1016.49 1456,-959 1512.82,-928.345 1554.95,-862.428 1575.33,-825.144"/>
<polygon fill="black" stroke="black" points="1578.65,-826.351 1580.27,-815.88 1572.48,-823.058 1578.65,-826.351"/>
<text text-anchor="middle" x="1416" y="-992.4" font-family="Times Roman,serif" font-size="14.00">2: saxon&#45;xslt</text>
</g>
<!-- render_profiles -->
<g id="node87" class="node"><title>render_profiles</title>
<polygon fill="none" stroke="black" points="1154,-370 1046,-370 1046,-334 1154,-334 1154,-370"/>
<text text-anchor="middle" x="1100" y="-347.9" font-family="Times Roman,serif" font-size="14.00">render&#45;profiles</text>
</g>
<!-- render_profiles&#45;&gt;xsl_dircomp2view_xsl -->
<g id="edge80" class="edge"><title>render_profiles&#45;&gt;xsl_dircomp2view_xsl</title>
<path fill="none" stroke="black" d="M1154.76,-346.075C1243.64,-337.764 1413.65,-327.716 1456,-367 1483.89,-392.87 1439.92,-424.31 1466,-452 1476.09,-462.714 1489.47,-469.294 1503.69,-473.179"/>
<polygon fill="black" stroke="black" points="1503.11,-476.636 1513.64,-475.456 1504.67,-469.813 1503.11,-476.636"/>
<text text-anchor="middle" x="1416" y="-371.4" font-family="Times Roman,serif" font-size="14.00">1: xslt</text>
</g>
<!-- cache_dir_profiles -->
<g id="node89" class="node"><title>cache_dir_profiles</title>
<text text-anchor="middle" x="1100" y="-401.9" font-family="Times Roman,serif" font-size="14.00">${cache.dir}/profiles</text>
</g>
<!-- cache_dir_profiles&#45;&gt;xsl_dircomp2view_xsl -->
<g id="edge82" class="edge"><title>cache_dir_profiles&#45;&gt;xsl_dircomp2view_xsl</title>
<path fill="none" stroke="black" d="M1171.07,-399.271C1268.71,-390.768 1434.73,-379.248 1456,-397 1475.07,-412.919 1448.41,-434.457 1466,-452 1476.3,-462.267 1489.63,-468.666 1503.71,-472.519"/>
<polygon fill="black" stroke="black" points="1503.02,-475.95 1513.55,-474.795 1504.6,-469.131 1503.02,-475.95"/>
<text text-anchor="middle" x="1416" y="-401.4" font-family="Times Roman,serif" font-size="14.00">in</text>
</g>
<!-- smc_stats -->
<g id="node93" class="node"><title>smc_stats</title>
<polygon fill="none" stroke="black" points="1139,-478 1061,-478 1061,-442 1139,-442 1139,-478"/>
<text text-anchor="middle" x="1100" y="-455.9" font-family="Times Roman,serif" font-size="14.00">smc&#45;stats</text>
</g>
<!-- smc_stats&#45;&gt;xsl_dirsmc_stats_xsl -->
<g id="edge86" class="edge"><title>smc_stats&#45;&gt;xsl_dirsmc_stats_xsl</title>
<path fill="none" stroke="black" d="M1139.03,-460.767C1190.07,-462.52 1281.91,-468.258 1358,-487 1358.71,-487.175 1455.49,-525.47 1456,-526 1465.41,-535.863 1455.82,-545.934 1466,-555 1478.04,-565.714 1493.34,-572.497 1509.02,-576.725"/>
<polygon fill="black" stroke="black" points="1508.28,-580.145 1518.82,-579.039 1509.89,-573.333 1508.28,-580.145"/>
<text text-anchor="middle" x="1416" y="-530.4" font-family="Times Roman,serif" font-size="14.00">1: saxon&#45;xslt</text>
</g>
<!-- cache_dir_dcr_cmd_map_xml -->
<g id="node95" class="node"><title>cache_dir_dcr_cmd_map_xml</title>
<text text-anchor="middle" x="1100" y="-671.9" font-family="Times Roman,serif" font-size="14.00">${cache.dir}/dcr&#45;cmd&#45;map.xml</text>
</g>
<!-- cache_dir_dcr_cmd_map_xml&#45;&gt;xsl_dirsmc_stats_xsl -->
<g id="edge88" class="edge"><title>cache_dir_dcr_cmd_map_xml&#45;&gt;xsl_dirsmc_stats_xsl</title>
<path fill="none" stroke="black" d="M1202.82,-691.959C1255.47,-694.145 1316.96,-686.542 1358,-649 1388.74,-620.878 1343.83,-583.482 1376,-557 1403.45,-534.401 1420.6,-553.702 1456,-557 1479.23,-559.164 1504.45,-563.41 1526.62,-567.798"/>
<polygon fill="black" stroke="black" points="1526.07,-571.259 1536.57,-569.817 1527.46,-564.399 1526.07,-571.259"/>
<text text-anchor="middle" x="1416" y="-561.4" font-family="Times Roman,serif" font-size="14.00">in</text>
</g>
<!-- cache_dir_dcr_cmd_map_xml&#45;&gt;xsl_dirsmc2stats_datasets_xsl -->
<g id="edge94" class="edge"><title>cache_dir_dcr_cmd_map_xml&#45;&gt;xsl_dirsmc2stats_datasets_xsl</title>
<path fill="none" stroke="black" d="M1202.61,-693.341C1256.03,-696.184 1318.31,-688.762 1358,-649 1385.62,-621.332 1346.98,-500.191 1376,-474 1402.4,-450.179 1426.82,-453.688 1456,-474 1466.5,-481.31 1456.35,-492.6 1466,-501 1471.73,-505.983 1478.16,-510.11 1485.01,-513.524"/>
<polygon fill="black" stroke="black" points="1484.01,-516.909 1494.57,-517.748 1486.84,-510.506 1484.01,-516.909"/>
<text text-anchor="middle" x="1416" y="-478.4" font-family="Times Roman,serif" font-size="14.00">in</text>
</g>
<!-- out_dir_smc_stats_dataset_xml&#45;&gt;amc_xsl_dir_dataset2html_xsl -->
<g id="edge102" class="edge"><title>out_dir_smc_stats_dataset_xml&#45;&gt;amc_xsl_dir_dataset2html_xsl</title>
<path fill="none" stroke="black" d="M2042.11,-511.924C2054.9,-509.977 2067.74,-507.976 2080,-506 2089.02,-504.547 2098.46,-502.97 2107.83,-501.374"/>
<polygon fill="black" stroke="black" points="2108.67,-504.781 2117.93,-499.639 2107.49,-497.882 2108.67,-504.781"/>
<text text-anchor="middle" x="2070" y="-513.4" font-family="Times Roman,serif" font-size="14.00">in</text>
</g>
<!-- out_dir_smc_stats_dataset_xml&#45;&gt;amc_xsl_dir_dataset2html_xsl -->
<g id="edge108" class="edge"><title>out_dir_smc_stats_dataset_xml&#45;&gt;amc_xsl_dir_dataset2html_xsl</title>
<path fill="none" stroke="black" d="M2021.73,-509.9C2028.75,-507.31 2035.59,-504.36 2042,-501 2051.48,-496.032 2050,-488.804 2060,-485 2068.31,-481.841 2071.11,-484.871 2080,-485 2082.85,-485.042 2085.75,-485.089 2088.67,-485.143"/>
<polygon fill="black" stroke="black" points="2088.62,-488.643 2098.69,-485.344 2088.76,-481.644 2088.62,-488.643"/>
<text text-anchor="middle" x="2070" y="-489.4" font-family="Times Roman,serif" font-size="14.00">in</text>
</g>
<!-- amc_xsl_dir -->
<g id="node103" class="node"><title>amc_xsl_dir</title>
<text text-anchor="middle" x="549" y="-339.9" font-family="Times Roman,serif" font-size="14.00">amc_xsl_dir</text>
</g>
<!-- amc_xsl_dir&#45;&gt;smc_stats2 -->
<g id="edge98" class="edge"><title>amc_xsl_dir&#45;&gt;smc_stats2</title>
<path fill="none" stroke="black" d="M595.503,-340.118C697.297,-331.619 939.328,-311.414 1046.9,-302.433"/>
<polygon fill="black" stroke="black" points="1047.2,-305.92 1056.88,-301.6 1046.62,-298.944 1047.2,-305.92"/>
<text text-anchor="middle" x="739" y="-340.4" font-family="Times Roman,serif" font-size="14.00">2: property</text>
</g>
</g>
</svg>
