<?xml version="1.0" encoding="UTF-8" standalone="no"?>
<?xml-stylesheet type="text/css"?><?xml-stylesheet href="../scripts/style/smc-graph.css" type="text/css"?><svg
   xmlns:dc="http://purl.org/dc/elements/1.1/"
   xmlns:cc="http://creativecommons.org/ns#"
   xmlns:rdf="http://www.w3.org/1999/02/22-rdf-syntax-ns#"
   xmlns:svg="http://www.w3.org/2000/svg"
   xmlns="http://www.w3.org/2000/svg"
   xmlns:sodipodi="http://sodipodi.sourceforge.net/DTD/sodipodi-0.dtd"
   xmlns:inkscape="http://www.inkscape.org/namespaces/inkscape"
   version="1.1"
   width="100"
   height="100"
   id="svg2"
   inkscape:version="0.48.1 "
   sodipodi:docname="graph_legend.svg">
  <metadata
     id="metadata58">
    <rdf:RDF>
      <cc:Work
         rdf:about="">
        <dc:format>image/svg+xml</dc:format>
        <dc:type
           rdf:resource="http://purl.org/dc/dcmitype/StillImage" />
        <dc:title></dc:title>
      </cc:Work>
    </rdf:RDF>
  </metadata>
  <defs
     id="defs56" />
  <sodipodi:namedview
     pagecolor="#ffffff"
     bordercolor="#666666"
     borderopacity="1"
     objecttolerance="10"
     gridtolerance="10"
     guidetolerance="10"
     inkscape:pageopacity="0"
     inkscape:pageshadow="2"
     inkscape:window-width="1600"
     inkscape:window-height="838"
     id="namedview54"
     showgrid="false"
     inkscape:zoom="4.1571429"
     inkscape:cx="50"
     inkscape:cy="35"
     inkscape:window-x="-8"
     inkscape:window-y="-8"
     inkscape:window-maximized="1"
     inkscape:current-layer="svg2" />
  <g
     class="node type-profile"
     transform="translate(13,7)"
     id="g4">
    <circle
       r="4"
       id="circle6"
       d="M 4,0 C 4,2.209139 2.209139,4 0,4 -2.209139,4 -4,2.209139 -4,0 c 0,-2.209139 1.790861,-4 4,-4 2.209139,0 4,1.790861 4,4 z"
       cx="0"
       cy="0"
       sodipodi:cx="0"
       sodipodi:cy="0"
       sodipodi:rx="4"
       sodipodi:ry="4" />
    <title
       id="title8">Profile</title>
    <text
       x="8"
       y="4"
       class="shadow"
       id="text10">Profile</text>
    <text
       x="8"
       y="4"
       id="text12">Profile</text>
  </g>
  <g
     class="node type-component"
     transform="translate(13,22)"
     id="g14">
    <circle
       r="4"
       id="circle16"
       d="M 4,0 C 4,2.209139 2.209139,4 0,4 -2.209139,4 -4,2.209139 -4,0 c 0,-2.209139 1.790861,-4 4,-4 2.209139,0 4,1.790861 4,4 z"
       cx="0"
       cy="0"
       sodipodi:cx="0"
       sodipodi:cy="0"
       sodipodi:rx="4"
       sodipodi:ry="4" />
    <title
       id="title18">Component</title>
    <text
       x="8"
       y="4"
       class="shadow"
       id="text20">Component</text>
    <text
       x="8"
       y="4"
       id="text22">Component</text>
  </g>
  <g
     class="node type-element"
     transform="translate(13,37)"
     id="g24">
    <circle
       r="4"
       id="circle26"
       d="M 4,0 C 4,2.209139 2.209139,4 0,4 -2.209139,4 -4,2.209139 -4,0 c 0,-2.209139 1.790861,-4 4,-4 2.209139,0 4,1.790861 4,4 z"
       cx="0"
       cy="0"
       sodipodi:cx="0"
       sodipodi:cy="0"
       sodipodi:rx="4"
       sodipodi:ry="4" />
    <title
       id="title28">Element</title>
    <text
       x="8"
       y="4"
       class="shadow"
       id="text30">Element</text>
    <text
       x="8"
       y="4"
       id="text32">Element</text>
  </g>
  <g
     class="node type-datcat"
     transform="translate(13,52)"
     id="g34">
    <circle
       r="4"
       id="circle36"
       d="M 4,0 C 4,2.209139 2.209139,4 0,4 -2.209139,4 -4,2.209139 -4,0 c 0,-2.209139 1.790861,-4 4,-4 2.209139,0 4,1.790861 4,4 z"
       cx="0"
       cy="0"
       sodipodi:cx="0"
       sodipodi:cy="0"
       sodipodi:rx="4"
       sodipodi:ry="4" />
    <title
       id="title38">Data Category</title>
    <text
       x="8"
       y="4"
       class="shadow"
       id="text40">Data Category</text>
    <text
       x="8"
       y="4"
       id="text42">Data Category</text>
  </g>
  <g
     class="node selected type-element"
     transform="translate(13,67)"
     id="g44">
    <circle
       r="4"
       id="circle46"
       d="M 4,0 C 4,2.209139 2.209139,4 0,4 -2.209139,4 -4,2.209139 -4,0 c 0,-2.209139 1.790861,-4 4,-4 2.209139,0 4,1.790861 4,4 z"
       cx="0"
       cy="0"
       sodipodi:cx="0"
       sodipodi:cy="0"
       sodipodi:rx="4"
       sodipodi:ry="4" />
    <title
       id="title48">selected node</title>
    <text
       x="8"
       y="4"
       class="shadow"
       id="text50">selected node</text>
    <text
       x="8"
       y="4"
       id="text52">selected node</text>
  </g>
  <g
     id="g3082"
     transform="translate(13,80.47079)"
     class="node type-collection">
    <circle
       d="M 4,0 C 4,2.209139 2.209139,4 0,4 -2.209139,4 -4,2.209139 -4,0 c 0,-2.209139 1.790861,-4 4,-4 2.209139,0 4,1.790861 4,4 z"
       id="circle3084"
       r="4"
       cx="0"
       cy="0"
       sodipodi:cx="0"
       sodipodi:cy="0"
       sodipodi:rx="4"
       sodipodi:ry="4" />
    <title
       id="title3086">collection</title>
    <text
       id="text3088"
       class="shadow"
       y="4"
       x="8">collection</text>
    <text
       id="text3090"
       y="4"
       x="8">collection</text>
  </g>
  <g
     class="node type-profile-group"
     transform="translate(13,92.97938)"
     id="g3092">
    <circle
       sodipodi:ry="4"
       sodipodi:rx="4"
       sodipodi:cy="0"
       sodipodi:cx="0"
       cy="0"
       cx="0"
       r="4"
       id="circle3094"
       d="M 4,0 C 4,2.209139 2.209139,4 0,4 -2.209139,4 -4,2.209139 -4,0 c 0,-2.209139 1.790861,-4 4,-4 2.209139,0 4,1.790861 4,4 z" />
    <title
       id="title3096">profile group</title>
    <text
       x="8"
       y="4"
       class="shadow"
       id="text3098">profile group</text>
    <text
       x="8"
       y="4"
       id="text3100">profile group</text>
  </g>
</svg>
